<svg width="24" height="24" viewBox="0 0 24 24" fill="none" xmlns="http://www.w3.org/2000/svg">
<path fill-rule="evenodd" clip-rule="evenodd" d="M11 12C11 7.77182 7.67022 4.02314 3 3.17775L3 20.8222C7.67022 19.9769 11 16.2282 11 12ZM3 22.8479C8.67543 21.9751 13 17.4505 13 12C13 6.54951 8.67543 2.0249 3 1.15209C2.34958 1.05207 1.68143 1 1 1L1 23C1.68142 23 2.34958 22.9479 3 22.8479Z" fill="#DEBE7E"/>
<path fill-rule="evenodd" clip-rule="evenodd" d="M12 13C7.77182 13 4.02314 16.3298 3.17775 21H20.8223C19.9769 16.3298 16.2282 13 12 13ZM22.8479 21C21.9751 15.3246 17.4505 11 12 11C6.54951 11 2.0249 15.3246 1.15209 21C1.05207 21.6504 1 22.3186 1 23H23C23 22.3186 22.9479 21.6504 22.8479 21Z" fill="#DEBE7E"/>
<path fill-rule="evenodd" clip-rule="evenodd" d="M21 3H3V21H21V3ZM1 1L1 23H23L23 1L1 1Z" fill="#DEBE7E"/>
</svg>
