<svg width="24" height="24" viewBox="0 0 24 24" fill="none" xmlns="http://www.w3.org/2000/svg">
<path fill-rule="evenodd" clip-rule="evenodd" d="M12.0002 3.51264L4.09575 19.5001H19.9046L12.0002 3.51264ZM12.8966 0.813145C12.5296 0.0707507 11.4708 0.0707477 11.1038 0.813142L1.58937 20.0568C1.26077 20.7215 1.74436 21.5001 2.48579 21.5001H21.5146C22.256 21.5001 22.7396 20.7215 22.411 20.0568L12.8966 0.813145Z" fill="#7DC1CA"/>
<path fill-rule="evenodd" clip-rule="evenodd" d="M2.19991 15.0001H21.8005C20.8746 10.4363 16.8378 7.00005 12.0002 7.00005C7.16256 7.00005 3.12577 10.4363 2.19991 15.0001ZM0.0412315 16.0004C0.549239 9.84068 5.70942 5.00005 12.0002 5.00005C18.2909 5.00005 23.4511 9.84068 23.9591 16.0004C24.0045 16.5508 23.5525 17.0001 23.0002 17.0001H1.00018C0.447898 17.0001 -0.004163 16.5508 0.0412315 16.0004Z" fill="#7DC1CA"/>
</svg>
