<svg width="24" height="24" viewBox="0 0 24 24" fill="none" xmlns="http://www.w3.org/2000/svg">
<path fill-rule="evenodd" clip-rule="evenodd" d="M11 12C11 7.77182 7.67022 4.02314 3 3.17775L3 20.8222C7.67022 19.9769 11 16.2282 11 12ZM3 22.8479C8.67543 21.9751 13 17.4505 13 12C13 6.54951 8.67543 2.0249 3 1.15209C2.34958 1.05207 1.68143 1 1 1L1 23C1.68142 23 2.34958 22.9479 3 22.8479Z" fill="#BBA9E4"/>
<path fill-rule="evenodd" clip-rule="evenodd" d="M13 12C13 16.2282 16.3298 19.9769 21 20.8223V3.17775C16.3298 4.02314 13 7.77182 13 12ZM21 1.15209C15.3246 2.0249 11 6.54951 11 12C11 17.4505 15.3246 21.9751 21 22.8479C21.6504 22.9479 22.3186 23 23 23V1C22.3186 1 21.6504 1.05206 21 1.15209Z" fill="#BBA9E4"/>
<path fill-rule="evenodd" clip-rule="evenodd" d="M7.04403 16.2411C7.37889 19.0264 9.57621 21 12 21C14.4238 21 16.6211 19.0264 16.956 16.2411L12 10.9312L7.04403 16.2411ZM5 15.5L12 8L19 15.5C19 19.6421 15.866 23 12 23C8.13401 23 5 19.6421 5 15.5Z" fill="#BBA9E4"/>
</svg>
