<svg width="24" height="24" viewBox="0 0 24 24" fill="none" xmlns="http://www.w3.org/2000/svg">
<path fill-rule="evenodd" clip-rule="evenodd" d="M8.5 21.2009L14.8198 12L8.5 2.79915L2.18021 12L8.5 21.2009ZM7.69593 23.5627C8.09643 24.1458 8.90357 24.1458 9.30407 23.5627L16.8024 12.646C17.0659 12.2625 17.0659 11.7375 16.8024 11.354L9.30407 0.437303C8.90357 -0.145768 8.09642 -0.145768 7.69593 0.437303L0.197587 11.354C-0.0658627 11.7375 -0.0658623 12.2625 0.197588 12.646L7.69593 23.5627Z" fill="#DF859B"/>
<path fill-rule="evenodd" clip-rule="evenodd" d="M15 21.333L21.7876 12L15 2.66704L8.21238 12L15 21.333ZM14.2339 1.61365L14.2346 1.61463L14.2339 1.61365ZM14.1486 23.5627C14.5727 24.1458 15.4273 24.1458 15.8514 23.5627L23.7908 12.646C24.0697 12.2625 24.0697 11.7375 23.7908 11.354L15.8514 0.437303C15.4273 -0.145768 14.5727 -0.145768 14.1486 0.437303L6.20921 11.354C5.93026 11.7375 5.93026 12.2625 6.20921 12.646L14.1486 23.5627Z" fill="#DF859B"/>
<path fill-rule="evenodd" clip-rule="evenodd" d="M0 12C0 11.4477 0.447715 11 1 11H23C23.5523 11 24 11.4477 24 12C24 12.5523 23.5523 13 23 13H1C0.447715 13 0 12.5523 0 12Z" fill="#DF859B"/>
</svg>
