<svg width="24" height="25" viewBox="0 0 24 25" fill="none" xmlns="http://www.w3.org/2000/svg">
<path fill-rule="evenodd" clip-rule="evenodd" d="M12 2.81788L2.49718 12.2498L12 21.6816L21.5028 12.2498L12 2.81788ZM12.7044 0.699185C12.3145 0.312185 11.6854 0.312186 11.2955 0.699186L0.373183 11.54C-0.0208789 11.9311 -0.0208786 12.5684 0.373183 12.9595L11.2955 23.8003C11.6854 24.1873 12.3145 24.1873 12.7044 23.8003L23.6268 12.9595C24.0208 12.5684 24.0208 11.9311 23.6268 11.54L12.7044 0.699185Z" fill="#BB9F8F"/>
<path fill-rule="evenodd" clip-rule="evenodd" d="M12 5.16002L8.2497 12L12 18.84L15.7502 12L12 5.16002ZM12.8768 2.59924C12.4972 1.90693 11.5027 1.90693 11.1231 2.59924L6.23241 11.5192C6.0682 11.8187 6.06821 12.1813 6.23241 12.4808L11.1231 21.4007C11.5027 22.093 12.4972 22.093 12.8768 21.4007L17.7675 12.4808C17.9317 12.1813 17.9317 11.8187 17.7675 11.5192L12.8768 2.59924Z" fill="#BB9F8F"/>
<path fill-rule="evenodd" clip-rule="evenodd" d="M12 14C12.5523 14 13 14.4477 13 15V22C13 22.5523 12.5523 23 12 23C11.4477 23 11 22.5523 11 22V15C11 14.4477 11.4477 14 12 14Z" fill="#BB9F8F"/>
</svg>
