<svg width="24" height="24" viewBox="0 0 24 24" fill="none" xmlns="http://www.w3.org/2000/svg">
<path fill-rule="evenodd" clip-rule="evenodd" d="M12 17C14.7614 17 17 14.7614 17 12C17 9.23858 14.7614 7 12 7C9.23858 7 7 9.23858 7 12C7 14.7614 9.23858 17 12 17ZM12 19C15.866 19 19 15.866 19 12C19 8.13401 15.866 5 12 5C8.13401 5 5 8.13401 5 12C5 15.866 8.13401 19 12 19Z" fill="#5992AA"/>
<path fill-rule="evenodd" clip-rule="evenodd" d="M18.7126 13.9916C18.5201 14.6414 18.2358 15.2517 17.8748 15.8076L20.7749 17.1465L12 21.872L3.22513 17.1465L6.12519 15.8076C5.76415 15.2517 5.47987 14.6414 5.28738 13.9916L0.59638 16.1572C-0.171693 16.5118 -0.205316 17.5706 0.538773 17.9714L11.4996 23.8741C11.8112 24.042 12.1887 24.042 12.5004 23.8741L23.4612 17.9714C24.2053 17.5706 24.1717 16.5118 23.4036 16.1572L18.7126 13.9916Z" fill="#5992AA"/>
<path fill-rule="evenodd" clip-rule="evenodd" d="M3.22513 6.85354L12 10.9045L20.7749 6.85354L12 2.12798L3.22513 6.85354ZM0.538774 6.02865C-0.205316 6.42936 -0.171693 7.48822 0.59638 7.84281L11.5573 12.9029C11.8376 13.0324 12.1624 13.0324 12.4427 12.9029L23.4036 7.84281C24.1717 7.48822 24.2053 6.42936 23.4612 6.02865L12.5004 0.125856C12.1887 -0.0419521 11.8112 -0.041952 11.4996 0.125856L0.538774 6.02865Z" fill="#5992AA"/>
</svg>
