<svg width="24" height="24" viewBox="0 0 24 24" fill="none" xmlns="http://www.w3.org/2000/svg">
<path fill-rule="evenodd" clip-rule="evenodd" d="M0 14.3659C0 14.3659 5.37258 23.7317 12 23.7317C18.6274 23.7317 24 14.3659 24 14.3659C24 14.3659 18.6274 5 12 5C5.37258 5 0 14.3659 0 14.3659ZM2.36605 14.3659C2.43485 14.4684 2.50888 14.5773 2.58797 14.6917C3.15787 15.5157 3.97747 16.6066 4.98113 17.6888C7.08794 19.9604 9.57852 21.7317 12 21.7317C14.4215 21.7317 16.9121 19.9604 19.0189 17.6888C20.0225 16.6066 20.8421 15.5157 21.412 14.6917C21.4911 14.5773 21.5652 14.4684 21.6339 14.3659C21.5652 14.2633 21.4911 14.1544 21.412 14.04C20.8421 13.216 20.0225 12.1251 19.0189 11.0429C16.9121 8.77131 14.4215 7 12 7C9.57852 7 7.08794 8.77131 4.98113 11.0429C3.97747 12.1251 3.15787 13.216 2.58797 14.04C2.50888 14.1544 2.43485 14.2633 2.36605 14.3659Z" fill="#F2A4A7"/>
<path fill-rule="evenodd" clip-rule="evenodd" d="M0 9.36585C0 9.36585 5.37258 18.7317 12 18.7317C18.6274 18.7317 24 9.36585 24 9.36585C24 9.36585 18.6274 0 12 0C5.37258 0 0 9.36585 0 9.36585ZM2.36605 9.36585C2.43485 9.46844 2.50888 9.5773 2.58797 9.69167C3.15787 10.5157 3.97747 11.6066 4.98113 12.6888C7.08794 14.9604 9.57852 16.7317 12 16.7317C14.4215 16.7317 16.9121 14.9604 19.0189 12.6888C20.0225 11.6066 20.8421 10.5157 21.412 9.69167C21.4911 9.5773 21.5652 9.46844 21.6339 9.36585C21.5652 9.26327 21.4911 9.15441 21.412 9.04004C20.8421 8.21597 20.0225 7.12512 19.0189 6.04294C16.9121 3.77131 14.4215 2 12 2C9.57852 2 7.08794 3.77131 4.98113 6.04294C3.97747 7.12512 3.15787 8.21597 2.58797 9.04004C2.50888 9.15441 2.43485 9.26327 2.36605 9.36585Z" fill="#F2A4A7"/>
<path fill-rule="evenodd" clip-rule="evenodd" d="M12 16C13.3309 16 15 14.5661 15 12C15 9.43394 13.3309 8 12 8C10.6691 8 9 9.43394 9 12C9 14.5661 10.6691 16 12 16ZM12 18C14.7614 18 17 15.3137 17 12C17 8.68629 14.7614 6 12 6C9.23858 6 7 8.68629 7 12C7 15.3137 9.23858 18 12 18Z" fill="#F2A4A7"/>
</svg>
