<svg width="54" height="54" viewBox="0 0 54 54" fill="none" xmlns="http://www.w3.org/2000/svg">
  <circle cx="27" cy="27" r="27" fill="#394F71" />
  <path
    fill-rule="evenodd"
    clip-rule="evenodd"
    d="M34.0599 11.4361L33.1046 11L29.8886 18.0586C28.2869 17.569 26.5725 17.5358 24.9414 17.9738C22.9681 18.5037 21.235 19.6915 20.0288 21.3406C18.8227 22.9897 18.2157 25.0012 18.3085 27.0422C18.4013 29.0833 19.1882 31.0314 20.5391 32.5642C21.8899 34.0971 23.7237 35.1227 25.7368 35.4714C27.75 35.8201 29.8219 35.4709 31.6095 34.4816C33.3972 33.4923 34.7934 31.9223 35.5672 30.0314C36.341 28.1404 36.4459 26.042 35.8646 24.0833C35.6997 23.5277 35.1156 23.211 34.56 23.3759C34.0044 23.5408 33.6877 24.1248 33.8526 24.6804C34.2979 26.1807 34.2175 27.7881 33.6248 29.2365C33.0321 30.6849 31.9626 31.8875 30.5933 32.6453C29.224 33.403 27.637 33.6705 26.095 33.4034C25.8219 33.3561 25.5532 33.2926 25.29 33.2135L34.1283 13.8152C36.7864 15.2631 38.9486 17.4913 40.315 20.2108C41.8392 23.2443 42.2818 26.7073 41.5697 30.0266C40.8576 33.3459 39.0334 36.3226 36.399 38.4639C33.7647 40.6052 30.4781 41.7828 27.0833 41.8018C23.6885 41.8208 20.389 40.68 17.7308 38.5683C15.0727 36.4565 13.2154 33.5004 12.4662 30.1893C11.717 26.8781 12.1209 23.4104 13.611 20.3601C15.1012 17.3097 17.5882 14.8597 20.6605 13.4154C21.185 13.1688 21.4103 12.5437 21.1637 12.0193C20.9172 11.4948 20.2921 11.2695 19.7676 11.516C16.2626 13.1637 13.4253 15.9589 11.7252 19.4388C10.0252 22.9188 9.56444 26.8749 10.4191 30.6524C11.2739 34.43 13.3928 37.8024 16.4253 40.2116C19.4578 42.6207 23.2221 43.9222 27.095 43.9005C30.968 43.8789 34.7174 42.5354 37.7228 40.0925C40.7282 37.6496 42.8093 34.2537 43.6218 30.4668C44.4342 26.68 43.9292 22.7293 42.1904 19.2685C40.4516 15.8078 37.5832 13.0445 34.0599 11.4361ZM23.3957 32.3092L29.0086 19.99C27.8593 19.6889 26.645 19.6894 25.4857 20.0008C23.9743 20.4066 22.6467 21.3165 21.7228 22.5796C20.7989 23.8428 20.334 25.3836 20.4051 26.9469C20.4762 28.5103 21.079 30.0025 22.1137 31.1766C22.4947 31.609 22.9259 31.9887 23.3957 32.3092Z"
    fill="url(#paint0_linear_219_1475)"
  />
  <defs>
    <linearGradient id="paint0_linear_219_1475" x1="14.5" y1="11" x2="38.5" y2="41" gradientUnits="userSpaceOnUse">
      <stop stop-color="#7DC1CA" />
      <stop offset="1" stop-color="#F2A4A7" />
    </linearGradient>
  </defs>
</svg>
