<svg width="90" height="22" viewBox="0 0 90 22" fill="none" xmlns="http://www.w3.org/2000/svg">
<g clip-path="url(#clip0_222_13563)">
<path fill-rule="evenodd" clip-rule="evenodd" d="M34.913 15.3684L33.6965 21.0082H30.8984L35.5213 0.568819H38.8359L43.185 21.0082H40.3566L39.1704 15.3684H34.913ZM38.8359 13.0939L37.8931 8.21072C37.6193 6.81568 37.3456 4.99707 37.1332 3.54086H37.0111C36.7987 5.02689 36.4935 6.90666 36.2208 8.21072L35.2476 13.0939H38.8359ZM53.8653 0.0234375V17.2178C53.8653 18.3404 53.9261 19.9781 53.9865 21.0087H51.5235L51.341 19.2199H51.2497C50.7631 20.2505 49.6378 21.2518 48.1481 21.2518C45.4108 21.2518 43.7381 18.2793 43.7381 13.7009C43.7381 8.48468 45.9578 6.02819 48.3001 6.02819C49.4857 6.02819 50.4286 6.57458 50.9456 7.69617H51.0064V0.0234375H53.8653ZM51.0059 11.8808C51.0059 11.6084 51.0059 11.2748 50.9755 10.9705C50.8234 9.6366 50.0631 8.48417 49.0295 8.48417C47.2346 8.48417 46.6269 10.9705 46.6269 13.7004C46.6269 16.7331 47.4176 18.8555 48.9383 18.8555C49.577 18.8555 50.4281 18.5219 50.9147 16.7634C50.9755 16.5208 51.0059 16.1564 51.0059 15.8238V11.8808ZM60.6749 21.2513C57.7253 21.2513 55.5958 18.7342 55.5958 13.6706C55.5958 8.30221 58.1197 6.02768 60.8265 6.02768C63.7462 6.02768 65.8442 8.63581 65.8442 13.6094C65.8442 19.4625 62.9549 21.2513 60.7048 21.2513H60.6749ZM60.7657 19.0076C62.5292 19.0076 62.925 15.884 62.925 13.6403C62.925 11.4259 62.5297 8.27238 60.7053 8.27238C58.8192 8.27238 58.4547 11.4259 58.4547 13.6403C58.4547 16.0962 58.8805 19.0076 60.7358 19.0076H60.7657ZM67.5677 0.0234375H70.4261V7.93828H70.4869C71.2472 6.6044 72.2813 6.02768 73.5891 6.02768C76.1129 6.02768 77.6949 8.87842 77.6949 13.3971C77.6949 18.6735 75.5355 21.2513 73.1025 21.2513C71.6426 21.2513 70.8214 20.4623 70.1822 19.1583H70.0616L69.909 21.0082H67.446C67.5069 20.0079 67.5677 18.3399 67.5677 17.2173V0.0234375ZM70.4261 15.792C70.4261 16.1266 70.4565 16.4602 70.5477 16.7023C71.0034 18.4921 71.8859 18.8555 72.4633 18.8555C74.1664 18.8555 74.8051 16.6118 74.8051 13.5791C74.8051 10.7587 74.1365 8.48417 72.4328 8.48417C71.49 8.48417 70.7297 9.60627 70.5168 10.6677C70.456 10.971 70.4255 11.3657 70.4255 11.6685V15.792H70.4261ZM81.9133 14.2155C81.9437 18.0063 83.5855 18.946 85.3191 18.946C86.3532 18.946 87.2352 18.7039 87.8739 18.4001L88.2997 20.4623C87.4177 20.9172 86.0795 21.1604 84.7717 21.1604C81.0617 21.1604 79.1152 18.3703 79.1152 13.8212C79.1152 8.99922 81.3349 6.02718 84.4067 6.02718C87.4785 6.02718 88.9079 8.9689 88.9079 12.6693C88.9079 13.3966 88.877 13.852 88.8471 14.2458L81.9133 14.2155ZM86.2011 12.1841C86.2315 9.57594 85.3191 8.1814 84.1943 8.1814C82.7035 8.1814 82.0344 10.3346 81.9437 12.1841H86.2011Z" fill="#394F71"/>
<path fill-rule="evenodd" clip-rule="evenodd" d="M14.7871 0.623413H23.3268V21.0082L14.7871 0.623413ZM8.77132 0.623413H0.225586V21.0082L8.77132 0.623413ZM11.7797 8.13592L17.2207 21.0082H13.6552L12.0281 16.9085H8.04544L11.7797 8.13592Z" fill="#394F71"/>
<path fill-rule="evenodd" clip-rule="evenodd" d="M88.6651 5.98978C88.7508 5.99017 88.8356 6.00748 88.9145 6.04071C88.9934 6.07394 89.065 6.12243 89.125 6.18338C89.1851 6.24433 89.2324 6.31653 89.2643 6.39582C89.2962 6.47511 89.3121 6.55992 89.3109 6.64535C89.3109 7.01534 89.0245 7.30395 88.6621 7.30395C88.3027 7.30395 88.0102 7.01584 88.0102 6.64535C88.0098 6.55959 88.0263 6.47459 88.0588 6.39521C88.0913 6.31582 88.1392 6.24361 88.1998 6.18272C88.2603 6.12182 88.3323 6.07344 88.4117 6.04033C88.491 6.00722 88.5761 5.99004 88.6621 5.98978H88.6651ZM88.6621 6.09137C88.3732 6.09137 88.1359 6.33955 88.1359 6.64535C88.1359 6.95721 88.3732 7.20185 88.6651 7.20185C88.9571 7.20488 89.1908 6.95721 89.1908 6.64838C89.1908 6.33955 88.9571 6.09137 88.6651 6.09137H88.6621ZM88.5394 7.02747H88.4228V6.29558C88.4842 6.28698 88.543 6.27788 88.6307 6.27788C88.7417 6.27788 88.8142 6.30164 88.8583 6.33348C88.9024 6.36533 88.9257 6.41486 88.9257 6.48512C88.9257 6.58116 88.8613 6.63979 88.7822 6.66304V6.6686C88.8466 6.68022 88.8907 6.73885 88.9049 6.84651C88.9226 6.96024 88.9399 7.00371 88.952 7.02747H88.8294C88.8116 7.00371 88.7944 6.93699 88.7797 6.84095C88.762 6.74745 88.7153 6.71257 88.6215 6.71257H88.5399V7.02747H88.5394ZM88.5394 6.62209H88.6241C88.7204 6.62209 88.803 6.58722 88.803 6.49674C88.803 6.43255 88.7559 6.36836 88.6241 6.36836C88.5866 6.36836 88.5597 6.37139 88.5394 6.37443V6.62209ZM24.4528 0.623413C24.5384 0.623806 24.6232 0.641114 24.7021 0.674343C24.7811 0.707571 24.8526 0.75606 24.9127 0.81701C24.9727 0.87796 25.02 0.950166 25.0519 1.02946C25.0839 1.10875 25.0997 1.19355 25.0986 1.27898C25.0986 1.64897 24.8122 1.93758 24.4497 1.93758C24.0903 1.93758 23.7979 1.64948 23.7979 1.27898C23.7974 1.19323 23.8139 1.10822 23.8464 1.02884C23.8789 0.949454 23.9269 0.877246 23.9874 0.81635C24.048 0.755455 24.12 0.707069 24.1993 0.673961C24.2786 0.640854 24.3637 0.623678 24.4497 0.623413H24.4528ZM24.4497 0.725007C24.1603 0.725007 23.9236 0.973183 23.9236 1.27898C23.9236 1.59084 24.1603 1.83548 24.4528 1.83548C24.7447 1.83851 24.9789 1.59085 24.9789 1.28202C24.9789 0.973185 24.7447 0.725007 24.4528 0.725007H24.4497ZM24.3271 1.6611H24.21V0.929208C24.2787 0.917841 24.3482 0.912095 24.4178 0.912025C24.5288 0.912025 24.6018 0.934771 24.6454 0.967119C24.6895 0.998963 24.7128 1.049 24.7128 1.11875C24.7128 1.21479 24.6484 1.27342 24.5694 1.29667V1.30223C24.6337 1.31386 24.6778 1.37249 24.6925 1.48066C24.7098 1.59438 24.7275 1.63785 24.7392 1.66161H24.6165C24.5988 1.63785 24.581 1.57113 24.5668 1.4751C24.5491 1.38159 24.5024 1.34671 24.4087 1.34671H24.3271V1.6611ZM24.3271 1.25573H24.4117C24.508 1.25573 24.5901 1.22085 24.5901 1.13038C24.5901 1.06619 24.5435 1.002 24.4117 1.002C24.3737 1.002 24.3473 1.00503 24.3271 1.00806V1.25573Z" fill="#394F71"/>
</g>
<defs>
<clipPath id="clip0_222_13563">
<rect width="89.1" height="22" fill="white" transform="translate(0.241211)"/>
</clipPath>
</defs>
</svg>
