<svg width="124" height="26" viewBox="0 0 124 26" fill="none" xmlns="http://www.w3.org/2000/svg">
<g clip-path="url(#clip0_222_13587)">
<path d="M0.439767 11.8299C0.556977 10.4744 0.907436 9.17953 1.44309 7.9334C1.89083 6.89416 2.46985 5.9334 3.16139 5.04636C3.71579 4.3353 4.35107 3.69796 5.05081 3.12959C5.74352 2.56717 6.46202 2.0416 7.2614 1.64208C8.23776 1.15456 9.25162 0.765739 10.3194 0.530305C10.9898 0.382862 11.6662 0.274657 12.353 0.238985C12.7187 0.21996 13.0867 0.193801 13.4513 0.20807C16.0264 0.313896 18.3823 1.08441 20.4944 2.5957C21.7111 3.4661 22.7484 4.51009 23.6005 5.74671C24.006 6.3353 24.353 6.95718 24.6507 7.60641C25.0762 8.53268 25.4032 9.49344 25.6013 10.497C25.7114 11.0594 25.7923 11.6254 25.8345 12.1986C25.8814 12.8537 25.8908 13.5053 25.8263 14.1593C25.79 14.5315 25.7595 14.906 25.6962 15.2747C25.4841 16.5018 25.1324 17.6813 24.5651 18.7943C24.0646 19.7764 23.4727 20.692 22.7706 21.5386C21.8482 22.6528 20.7558 23.5588 19.5181 24.2889C18.5288 24.8739 17.4786 25.3151 16.3686 25.6064C15.7556 25.7669 15.1379 25.8977 14.5038 25.9322C14.41 25.9298 14.3163 25.9275 14.2225 25.9251C14.1498 25.9227 14.076 25.9108 14.0057 25.9227C13.9541 25.931 13.9072 25.9726 13.858 25.9988H12.4175C12.2768 25.9298 12.1315 25.8858 11.9756 25.9453C11.8678 25.9393 11.7599 25.9334 11.6521 25.9275C10.9887 25.8549 10.3358 25.7372 9.69233 25.5553C8.35848 25.1795 7.11723 24.6028 5.97326 23.8157C4.79647 23.0047 3.77088 22.0333 2.92697 20.8668C2.23894 19.9156 1.6693 18.8977 1.22625 17.8085C0.966041 17.1665 0.794914 16.4946 0.651918 15.8169C0.548773 15.3294 0.462037 14.8383 0.440939 14.3389C0.440939 14.1641 0.437423 13.9893 0.440939 13.8145C0.443284 13.7277 0.403432 13.6777 0.32959 13.6456V12.6338C0.459693 12.6005 0.397572 12.4994 0.40226 12.4221C0.413981 12.2247 0.425702 12.0261 0.437423 11.8288L0.439767 11.8299ZM6.78318 13.5719C6.7738 13.6456 6.76794 13.7194 6.75505 13.7919C6.56751 14.7978 6.37646 15.8026 6.1901 16.8074C6.14321 17.0606 6.25925 17.2961 6.4796 17.4209C6.6941 17.5422 6.93321 17.5148 7.13129 17.3555C7.26491 17.2485 7.32235 17.1011 7.3704 16.9453C7.70445 15.8514 8.0385 14.7586 8.37255 13.6647C8.4206 13.5053 8.4206 13.5053 8.57649 13.5053C8.96329 13.5053 9.34891 13.5041 9.7357 13.503C11.1352 13.503 12.5335 13.5018 13.933 13.5006C13.9494 13.5077 13.9658 13.5148 13.9834 13.522C14.0279 13.6837 14.0713 13.8454 14.117 14.0059C14.4159 15.0547 14.7042 16.107 15.0172 17.1522C15.2645 17.9786 15.5552 18.7907 15.9361 19.5648C16.1506 20.0012 16.4014 20.4138 16.7507 20.7574C17.2899 21.2889 17.9439 21.3115 18.5288 20.9643C18.7269 20.8466 18.9109 20.6896 19.0656 20.5172C19.3868 20.1629 19.647 19.761 19.8322 19.3163C19.9717 18.981 20.1041 18.6421 20.219 18.2972C20.5507 17.2996 20.7722 16.2711 21.0219 15.2509C21.0605 15.0951 21.0863 14.9346 21.1004 14.7753C21.1121 14.6397 21.0441 14.5541 20.9281 14.5148C20.8132 14.4756 20.6878 14.5172 20.6175 14.6338C20.5753 14.7015 20.546 14.7788 20.519 14.8537C20.219 15.698 19.9201 16.541 19.6235 17.3864C19.4536 17.8704 19.2485 18.3377 19.0035 18.7883C18.8875 19.0024 18.7503 19.2021 18.5534 19.3496C18.2909 19.5446 18.0014 19.5291 17.7763 19.2937C17.6661 19.1783 17.5606 19.0499 17.4868 18.9084C17.3075 18.5624 17.1106 18.22 16.9875 17.8525C16.7472 17.1391 16.5433 16.4126 16.3428 15.6861C16.1576 15.0131 15.9971 14.3329 15.8295 13.6552C15.8189 13.6147 15.8341 13.5672 15.8388 13.5006C16.0768 13.5006 16.303 13.5006 16.5292 13.5006C18.1502 13.5006 19.7701 13.5006 21.3911 13.5006C21.5575 13.5006 21.7251 13.4994 21.8916 13.4887C22.242 13.4673 22.5327 13.1783 22.5327 12.8335C22.5327 12.5077 22.3112 12.1902 21.922 12.1486C21.6243 12.1177 21.3254 12.0915 21.0254 12.0713C20.5729 12.0416 20.1205 12.0143 19.6681 11.994C18.9426 11.9619 18.2159 11.9334 17.4903 11.912C16.8703 11.8942 16.2502 11.8882 15.6302 11.8763C15.3805 11.8716 15.3864 11.8692 15.3208 11.6314C15.1379 10.9691 14.9644 10.3044 14.7593 9.64921C14.396 8.48631 14.008 7.33173 13.4958 6.22234C13.259 5.70866 12.9613 5.24255 12.5991 4.81687C12.4737 4.66943 12.326 4.53863 12.1725 4.4221C11.7974 4.1391 11.3825 4.08798 10.9406 4.24493C10.7179 4.3246 10.5198 4.44707 10.337 4.59689C10.044 4.83589 9.80134 5.12246 9.57864 5.42686C9.16372 5.99642 8.88358 6.63851 8.614 7.28536C8.09359 8.53031 7.71148 9.82163 7.37392 11.1272C7.32235 11.3294 7.2696 11.5303 7.21686 11.7372C7.15474 11.7408 7.10199 11.7479 7.04925 11.7467C6.39521 11.742 5.74235 11.736 5.08832 11.7324C4.88203 11.7313 4.67457 11.7229 4.46828 11.7384C3.99123 11.7741 3.62554 12.2735 3.71696 12.7467C3.80135 13.1879 4.13775 13.4839 4.58666 13.4923C5.13286 13.5018 5.68023 13.4958 6.2276 13.4994C6.41397 13.4994 6.60033 13.5101 6.7867 13.5148C6.78552 13.5327 6.78318 13.5505 6.78201 13.5684L6.78318 13.5719Z" fill="#394F71"/>
<path d="M0.441944 14.3413C0.405696 14.3401 0.368279 14.3377 0.332031 14.3365C0.332031 14.2688 0.332031 14.201 0.332031 14.1344C0.341386 14.1237 0.35074 14.1142 0.360094 14.1035C0.35074 14.0999 0.341386 14.0975 0.332031 14.094C0.332031 13.9453 0.332031 13.7967 0.332031 13.6481C0.405696 13.6802 0.445452 13.7301 0.443113 13.8169C0.438436 13.9917 0.443113 14.1665 0.443113 14.3401L0.441944 14.3413Z" fill="#394F71"/>
<path d="M0.439605 11.83C0.427913 12.0274 0.41622 12.2259 0.404527 12.4233C0.379972 12.4269 0.356586 12.4293 0.332031 12.4328C0.332031 12.2164 0.332031 12.0012 0.332031 11.7848C0.368279 11.8002 0.403358 11.8145 0.439605 11.83Z" fill="#394F71"/>
<path d="M11.658 26C11.6568 25.9762 11.6545 25.9524 11.6533 25.9298C11.7612 25.9358 11.869 25.9417 11.9768 25.9476C12.0178 25.9655 12.0577 25.9833 12.0987 26H11.658Z" fill="#394F71"/>
<path d="M14.224 25.9263C14.3178 25.9286 14.4116 25.931 14.5053 25.9334C14.503 25.956 14.5018 25.9786 14.4995 26.0012H14.1396C14.1678 25.9762 14.1959 25.9524 14.224 25.9275V25.9263Z" fill="#394F71"/>
<path d="M12.0975 26C12.0565 25.9821 12.0166 25.9643 11.9756 25.9477C12.1315 25.887 12.2756 25.931 12.4175 26C12.3108 26 12.2041 26 12.0975 26Z" fill="#394F71"/>
<path d="M14.2239 25.9263C14.1958 25.9512 14.1676 25.975 14.1395 26H13.8594C13.9086 25.9738 13.9555 25.9322 14.0071 25.9239C14.0774 25.912 14.1512 25.9239 14.2239 25.9263Z" fill="#394F71"/>
<path d="M0.332031 12.4329C0.356586 12.4293 0.379972 12.4269 0.404527 12.4233C0.39985 12.5006 0.462991 12.6017 0.332031 12.635C0.332031 12.5684 0.332031 12.5006 0.332031 12.4329Z" fill="#394F71"/>
<path d="M0.332031 14.094C0.341645 14.0976 0.351258 14.0999 0.360872 14.1035C0.351258 14.1142 0.341645 14.1237 0.332031 14.1344C0.332031 14.1213 0.332031 14.1071 0.332031 14.094Z" fill="#394F71"/>
<path d="M59.2813 18.8693C58.9344 18.8716 58.5886 18.8764 58.2417 18.8752C57.7213 18.8752 57.202 18.8716 56.6816 18.8693C56.6734 18.8562 56.6652 18.8419 56.6558 18.8288C56.6535 18.5863 56.65 18.3425 56.6488 18.0999C56.6476 16.6552 56.6535 15.2117 56.6418 13.767C56.6371 13.2723 56.4976 12.8062 56.1858 12.4127C55.9057 12.0607 55.5388 11.8704 55.0899 11.8193C54.8707 11.7943 54.6562 11.767 54.4382 11.8039C54.001 11.8776 53.6494 12.1083 53.3306 12.4103C53.1008 12.6279 52.9684 12.8431 53.027 13.1962C53.095 13.6053 53.0786 14.0298 53.0797 14.4471C53.0844 15.8443 53.0797 17.2414 53.0797 18.6386C53.0797 18.7111 53.0797 18.7836 53.0797 18.8669H50.4214C50.4214 18.7848 50.4214 18.7064 50.4214 18.6279C50.4214 17.3056 50.4226 15.9822 50.4214 14.66C50.4214 14.3425 50.4156 14.025 50.4015 13.7087C50.3874 13.3901 50.3136 13.0809 50.1811 12.7908C49.8928 12.1594 49.3771 11.8633 48.7148 11.7884C48.2917 11.7408 47.9096 11.849 47.5615 12.0952C47.3071 12.2747 47.0985 12.4995 46.9016 12.7396C46.8395 12.8157 46.8383 12.899 46.8395 12.987C46.8406 14.1475 46.843 15.308 46.8442 16.4697C46.8442 17.1986 46.843 17.9275 46.8418 18.6564C46.8418 18.723 46.8418 18.7884 46.8418 18.8669H44.1987V9.64809H46.8301V10.1641C46.8746 10.1499 46.9028 10.1487 46.918 10.1332C47.5627 9.52443 48.3456 9.32229 49.2024 9.34845C50.2491 9.38055 51.1469 9.76699 51.8865 10.5209C51.9194 10.5542 51.9534 10.5874 51.9873 10.6184C51.9967 10.6267 52.0108 10.6291 52.0248 10.635C52.2065 10.4899 52.387 10.3389 52.5734 10.1986C53.1735 9.74321 53.8498 9.484 54.5941 9.39125C55.3548 9.29613 56.0991 9.33655 56.8141 9.63739C57.5525 9.94773 58.1702 10.4198 58.5945 11.1142C58.9274 11.6576 59.1489 12.2533 59.238 12.8871C59.2942 13.2866 59.3188 13.6933 59.3212 14.0964C59.3306 15.5946 59.3247 17.0928 59.3247 18.591C59.3247 18.6719 59.32 18.7527 59.3177 18.8336C59.3071 18.8467 59.2966 18.8586 59.2848 18.8716L59.2813 18.8693Z" fill="#394F71"/>
<path d="M42.7563 18.8716H39.8248C39.4943 18.0416 39.1626 17.2057 38.8286 16.3638H32.9493C32.8555 16.6005 32.7606 16.8442 32.6633 17.0856C32.4429 17.6349 32.2202 18.1843 32.0034 18.7348C31.9671 18.8264 31.9307 18.8799 31.8206 18.8787C30.9075 18.8739 29.9933 18.8751 29.0802 18.8739C29.0673 18.8739 29.0544 18.8668 29.0181 18.8561C30.877 14.4637 32.7348 10.0749 34.5961 5.67656C34.6395 5.673 34.6852 5.66467 34.7297 5.66467C35.4892 5.66467 36.2499 5.66467 37.0095 5.66705C37.1935 5.66705 37.1923 5.66705 37.2685 5.84779C37.7069 6.88941 38.1452 7.93102 38.5824 8.97383C39.0923 10.189 39.601 11.4066 40.1132 12.6207C40.6148 13.8109 41.1212 14.9988 41.6252 16.1879C41.985 17.0368 42.346 17.8846 42.7059 18.7324C42.7211 18.7681 42.7328 18.8062 42.7551 18.8692L42.7563 18.8716ZM37.7584 13.717C37.7385 13.6599 37.7221 13.6017 37.6998 13.5458C37.1103 12.0737 36.5195 10.6017 35.9288 9.1296C35.9159 9.09868 35.8901 9.07252 35.8655 9.03566C35.2337 10.6326 34.6102 12.2093 33.9772 13.8085C34.112 13.8085 34.2234 13.8085 34.3347 13.8085C35.474 13.8074 36.6121 13.8062 37.7514 13.805C37.8229 13.7824 37.7889 13.7503 37.7596 13.7182L37.7584 13.717Z" fill="#394F71"/>
<path d="M111.951 5.18067C111.958 5.31504 111.972 5.4494 111.972 5.58258C111.972 6.97259 111.966 8.3626 111.966 9.75261C111.966 12.4982 111.97 15.2449 111.972 17.9904C111.972 18.233 111.973 18.4756 111.972 18.7193C111.972 18.7645 111.966 18.8109 111.962 18.8668H109.309V18.3804C109.259 18.3923 109.218 18.3923 109.19 18.4102C108.689 18.7372 108.129 18.9143 107.552 19.0213C107.242 19.0796 106.915 19.076 106.596 19.0653C106.047 19.0463 105.512 18.9476 105.002 18.7276C104.1 18.34 103.404 17.7205 102.896 16.8751C102.565 16.3269 102.345 15.7395 102.237 15.1081C102.17 14.7169 102.15 14.3246 102.173 13.9262C102.232 12.9595 102.545 12.0867 103.11 11.3138C103.831 10.3281 104.79 9.72051 105.992 9.50766C107.117 9.30909 108.163 9.52312 109.152 10.0796C109.197 10.1046 109.244 10.1248 109.306 10.1545V5.18186C109.369 5.17235 109.425 5.15808 109.48 5.15808C110.287 5.15808 111.094 5.15808 111.901 5.15927C111.917 5.1664 111.934 5.17354 111.95 5.18067H111.951ZM109.306 14.2342C109.306 13.8097 109.302 13.384 109.308 12.9595C109.309 12.837 109.274 12.7419 109.196 12.648C108.704 12.0665 108.08 11.7693 107.33 11.7276C106.521 11.6836 105.85 11.969 105.349 12.6135C104.903 13.1854 104.733 13.8465 104.82 14.5683C104.914 15.3448 105.263 15.9797 105.91 16.4185C106.933 17.1129 108.437 16.8477 109.23 15.8133C109.29 15.7336 109.307 15.6468 109.307 15.5493C109.305 15.1105 109.307 14.6729 109.307 14.2342H109.306Z" fill="#394F71"/>
<path d="M61.1925 22.5969C61.1866 22.5231 61.1772 22.4494 61.1772 22.3769C61.1772 18.3067 61.1772 14.2366 61.1772 10.1664C61.1772 9.99877 61.1772 9.83111 61.1772 9.648H63.8297V10.1629C63.9153 10.1177 63.9727 10.0891 64.0278 10.0582C64.8506 9.58498 65.7426 9.38878 66.6779 9.44348C67.6484 9.50055 68.5111 9.86441 69.273 10.4863C70.1766 11.2235 70.6607 12.1985 70.874 13.3234C70.9678 13.8157 70.9948 14.3163 70.9408 14.824C70.8272 15.8811 70.3947 16.7824 69.7148 17.5778C69.0315 18.3781 68.1595 18.8323 67.1421 19.013C66.7951 19.0749 66.4412 19.1046 66.0872 19.0463C66.0614 19.0416 66.0344 19.0416 66.0075 19.0404C65.2573 19.0214 64.5705 18.7943 63.9411 18.3852C63.9247 18.3745 63.9059 18.3662 63.8871 18.3591C63.8825 18.3567 63.8743 18.3591 63.8485 18.3638C63.845 18.4292 63.8391 18.4994 63.8391 18.5695C63.8391 19.8929 63.8391 21.2152 63.8391 22.5386C63.8391 22.6123 63.8332 22.686 63.8297 22.761C63.7817 22.7336 63.7219 22.7158 63.6879 22.6765C63.6269 22.6064 63.5883 22.5172 63.5273 22.4482C63.4816 22.3959 63.4207 22.3388 63.3574 22.3246C63.2167 22.2937 63.0702 22.2794 62.926 22.277C62.5744 22.2711 62.2228 22.277 61.8711 22.2746C61.6602 22.2723 61.4797 22.3305 61.3554 22.5124C61.3132 22.5731 61.2687 22.6111 61.1937 22.5992L61.1925 22.5969ZM63.8379 14.239C63.8379 14.6706 63.8414 15.1022 63.8356 15.5338C63.8332 15.6646 63.8743 15.7645 63.9575 15.862C64.4908 16.4792 65.1636 16.7669 65.9688 16.7788C66.9581 16.7931 67.8324 16.1581 68.1888 15.1914C68.4044 14.6052 68.4079 13.9904 68.204 13.3864C67.8512 12.34 66.9123 11.6016 65.7332 11.711C65.0065 11.7788 64.4111 12.0939 63.9364 12.6528C63.8661 12.736 63.8356 12.8168 63.8367 12.925C63.8403 13.3638 63.8379 13.8014 63.8379 14.2402V14.239Z" fill="#394F71"/>
<path d="M122.699 14.9381H115.98C116.021 15.0749 116.052 15.1902 116.09 15.302C116.415 16.2651 117.126 16.7943 118.166 16.8513C118.494 16.8692 118.817 16.8513 119.134 16.7419C119.413 16.6456 119.652 16.4934 119.83 16.2544C119.873 16.195 119.918 16.1605 119.993 16.1605C120.853 16.1641 121.714 16.1641 122.574 16.1664C122.593 16.1664 122.61 16.1783 122.654 16.1926C122.624 16.2877 122.606 16.3852 122.567 16.4744C121.995 17.7978 121.024 18.6468 119.634 18.9976C118.633 19.2497 117.639 19.2247 116.655 18.9215C115.398 18.535 114.498 17.7158 113.905 16.5457C113.402 15.5517 113.285 14.491 113.447 13.3959C113.572 12.5457 113.883 11.7705 114.413 11.0951C115.085 10.2366 115.967 9.71578 117.018 9.47677C117.529 9.36025 118.047 9.31506 118.568 9.3543C119.695 9.43991 120.683 9.8549 121.504 10.6575C121.967 11.1094 122.266 11.6599 122.474 12.2651C122.599 12.6278 122.687 12.9976 122.723 13.3852C122.759 13.7752 122.804 14.1605 122.762 14.5505C122.749 14.6742 122.722 14.7966 122.698 14.9381H122.699ZM120.109 13.3507C120.118 13.3365 120.128 13.3222 120.137 13.3079C120.077 13.0939 120.036 12.8727 119.954 12.6682C119.725 12.0975 119.312 11.7265 118.705 11.6207C118.452 11.5767 118.186 11.5648 117.93 11.5874C117.247 11.6492 116.695 11.9583 116.336 12.566C116.214 12.7729 116.133 13.0035 116.038 13.2259C116.024 13.258 116.036 13.302 116.036 13.3579C116.209 13.3579 116.369 13.3579 116.528 13.3579C117.589 13.3579 118.65 13.3579 119.709 13.3567C119.843 13.3567 119.975 13.3519 120.109 13.3495V13.3507Z" fill="#394F71"/>
<path d="M100.711 18.8692H98.0629V18.2497C98.0019 18.2747 97.9632 18.2806 97.9375 18.302C97.3936 18.7562 96.7665 19.0155 96.0738 19.1189C95.4245 19.2152 94.7833 19.1724 94.1563 18.981C93.2291 18.6992 92.5517 18.0975 92.0641 17.2652C91.7394 16.7111 91.5589 16.1058 91.4991 15.4685C91.4593 15.0464 91.437 14.6207 91.4346 14.1974C91.4264 12.7539 91.4299 11.3092 91.4299 9.86563C91.4299 9.7931 91.4393 9.72176 91.4452 9.64209H94.0883C94.0906 9.72414 94.0941 9.80142 94.0941 9.87871C94.0941 11.4233 94.0953 12.9691 94.0941 14.5137C94.0941 14.8335 94.134 15.1463 94.2336 15.4495C94.4962 16.2473 95.074 16.6706 95.9273 16.7206C96.3622 16.7455 96.756 16.6112 97.124 16.3912C97.4358 16.2045 97.7077 15.9667 97.9527 15.6956C98.023 15.6171 98.0594 15.5363 98.0594 15.4245C98.0558 13.6029 98.0558 11.7812 98.0547 9.95957C98.0547 9.85969 98.0547 9.75981 98.0547 9.64566H100.709C100.713 12.7134 100.711 15.78 100.711 18.8692Z" fill="#394F71"/>
<path d="M86.6185 9.61826C86.7919 9.62302 86.9642 9.63253 87.1377 9.63253C87.984 9.63253 88.8314 9.63253 89.6777 9.63015C89.7363 9.63015 89.7949 9.63015 89.8699 9.63015V11.8953C89.7949 11.8953 89.7245 11.8953 89.6542 11.8953C88.6943 11.8953 87.7343 11.8953 86.7744 11.8953C86.7216 11.8953 86.6689 11.9013 86.6149 11.9048C86.6032 11.9191 86.5915 11.9334 86.5798 11.9464C86.5786 12.5802 86.5763 13.2152 86.5751 13.8489C86.5751 14.3151 86.5751 14.78 86.5763 15.2461C86.5763 15.5077 86.6396 15.7538 86.7638 15.9833C86.976 16.3745 87.3206 16.5683 87.7413 16.6444C88.209 16.7288 88.6708 16.6825 89.1303 16.585C89.3237 16.5434 89.5147 16.4922 89.7187 16.4435C89.8312 17.208 89.9425 17.9571 90.0562 18.73C89.8722 18.7907 89.6929 18.8549 89.51 18.9096C88.774 19.1343 88.0203 19.195 87.2561 19.1522C85.7159 19.0654 84.5438 18.0107 84.1383 16.5885C83.9953 16.0856 83.9367 15.5707 83.9355 15.0499C83.932 14.0915 83.9355 13.1331 83.9355 12.1747C83.9355 12.0891 83.9355 12.0023 83.9355 11.8929C83.2944 11.8929 82.6755 11.8929 82.0578 11.8929C82.0438 11.8834 82.0297 11.8739 82.0156 11.8644V9.63967H83.9285V6.33765H86.5774C86.5774 6.42326 86.5774 6.50174 86.5774 6.5814C86.5774 7.53979 86.5751 8.49817 86.5751 9.45655C86.5751 9.48985 86.5786 9.52433 86.581 9.55762C86.5938 9.57784 86.6067 9.59805 86.6196 9.61826H86.6185Z" fill="#394F71"/>
<path d="M72.4573 18.8299C72.4573 18.6278 72.4538 18.4257 72.4538 18.2223C72.4538 13.95 72.4526 9.67773 72.4526 5.40663C72.4526 5.34598 72.4562 5.28534 72.4585 5.2247C72.4679 5.20924 72.4772 5.19378 72.4878 5.17833C72.5405 5.17238 72.5921 5.1593 72.6449 5.1593C73.4184 5.16049 74.1909 5.16406 74.9644 5.16763C75.0031 5.16763 75.043 5.17238 75.0699 5.17476C75.0864 5.18903 75.091 5.1926 75.0946 5.19854C75.0981 5.2033 75.1016 5.21043 75.1028 5.21638C75.1074 5.24254 75.1157 5.2687 75.1157 5.29604C75.118 9.76097 75.1192 14.2271 75.1203 18.692C75.1203 18.7324 75.118 18.7729 75.1157 18.8133C75.1157 18.8252 75.1051 18.8371 75.0946 18.862C75.0641 18.8668 75.0266 18.8763 74.9891 18.8763C74.1756 18.8763 73.3622 18.8763 72.5499 18.8763C72.53 18.8763 72.5101 18.8715 72.4901 18.8692C72.4796 18.8561 72.469 18.843 72.4573 18.8299Z" fill="#394F71"/>
<path d="M77.7785 18.8312C77.7773 18.6826 77.7738 18.5339 77.7738 18.3865C77.7738 15.5458 77.7727 12.7063 77.7715 9.86567C77.7715 9.79908 77.7715 9.73249 77.7715 9.67066C77.9098 9.62786 80.138 9.61121 80.4415 9.65164C80.4415 9.73249 80.4415 9.81811 80.4415 9.90253C80.4415 12.7361 80.4415 15.5696 80.4415 18.4031C80.4415 18.5446 80.4392 18.6861 80.438 18.8276C80.4286 18.8419 80.4204 18.855 80.4111 18.8692C80.1708 18.8716 79.9317 18.8764 79.6914 18.8752C79.0643 18.8752 78.4384 18.8716 77.8113 18.8704C77.8008 18.8573 77.7891 18.8443 77.7785 18.8312Z" fill="#394F71"/>
<path d="M79.1502 7.90967C78.4317 7.92156 77.6382 7.4602 77.5128 6.56246C77.4237 5.92869 77.7589 5.26995 78.3438 4.97031C79.2651 4.49944 80.3821 4.97744 80.6317 5.9929C80.8029 6.68969 80.4547 7.44475 79.8077 7.7432C79.5874 7.84546 79.3623 7.92394 79.1502 7.90848V7.90967Z" fill="#394F71"/>
<path d="M61.1924 22.5969C61.2674 22.6088 61.3131 22.5708 61.3541 22.5101C61.4784 22.3282 61.6601 22.2711 61.8699 22.2723C62.2215 22.2759 62.5731 22.2687 62.9248 22.2747C63.0689 22.2771 63.2154 22.2925 63.3561 22.3222C63.4194 22.3353 63.4803 22.3936 63.526 22.4459C63.587 22.5149 63.6257 22.6052 63.6866 22.6742C63.7206 22.7134 63.7804 22.7313 63.8284 22.7586V23.2985C63.6831 23.3377 61.4549 23.3496 61.1924 23.3127V22.5957V22.5969Z" fill="#394F71"/>
<path d="M86.5796 11.9465C86.5916 11.9323 86.6036 11.918 86.6156 11.9049C86.6036 11.9192 86.5916 11.9334 86.5796 11.9465Z" fill="#394F71"/>
<path d="M56.6562 18.8287C56.6647 18.8418 56.6731 18.8561 56.6827 18.8692C56.6743 18.8561 56.6659 18.8418 56.6562 18.8287Z" fill="#394F71"/>
<path d="M72.4575 18.83C72.4683 18.843 72.4792 18.8561 72.4912 18.8692C72.4804 18.8561 72.4695 18.843 72.4575 18.83Z" fill="#394F71"/>
<path d="M77.7788 18.8312C77.7896 18.8443 77.8016 18.8573 77.8125 18.8704C77.8004 18.8573 77.7896 18.8443 77.7788 18.8312Z" fill="#394F71"/>
<path d="M72.4876 5.17957C72.4779 5.19502 72.4683 5.21048 72.4575 5.22594C72.4671 5.21048 72.4767 5.19502 72.4876 5.17957Z" fill="#394F71"/>
<path d="M13.9321 13.5006C13.9485 13.5077 13.9649 13.5149 13.9824 13.522C13.966 13.5149 13.9497 13.5077 13.9321 13.5006Z" fill="#394F71"/>
<path d="M37.75 13.8049C37.7523 13.7764 37.7558 13.7467 37.7582 13.7181C37.7874 13.7502 37.8213 13.7823 37.75 13.8049Z" fill="#394F71"/>
<path d="M120.109 13.3508C120.119 13.3365 120.128 13.3223 120.137 13.308C120.127 13.3223 120.117 13.3365 120.109 13.3508Z" fill="#394F71"/>
<path d="M13.544 11.8406C11.9546 11.8204 10.3922 11.8014 8.80518 11.7812C8.83448 11.667 8.85323 11.5767 8.88019 11.4887C9.13805 10.6397 9.38068 9.78357 9.66198 8.9429C9.95266 8.07489 10.2809 7.21995 10.7743 6.44231C10.8634 6.30081 10.9665 6.16644 11.0802 6.04397C11.2889 5.82043 11.5034 5.84302 11.6452 6.10937C11.7905 6.38166 11.9265 6.66109 12.0437 6.94647C12.352 7.70033 12.6133 8.47084 12.829 9.25681C13.0529 10.0749 13.2873 10.8894 13.517 11.7051C13.5264 11.7372 13.5299 11.7705 13.544 11.8406Z" fill="#394F71"/>
</g>
<defs>
<clipPath id="clip0_222_13587">
<rect width="122.909" height="26" fill="white" transform="translate(0.332031)"/>
</clipPath>
</defs>
</svg>
