<svg width="110" height="30" viewBox="0 0 110 30" fill="none" xmlns="http://www.w3.org/2000/svg">
<g clip-path="url(#clip0_222_13567)">
<path d="M35.9434 8.15159C36.1114 8.14837 36.2795 8.14407 36.4475 8.14407C38.078 8.14407 39.7085 8.13869 41.339 8.14514C41.9921 8.14729 42.642 8.20643 43.2695 8.40428C45.2935 9.04192 46.7305 10.3355 47.5441 12.3172C47.776 12.8828 47.9408 13.4709 48.0036 14.0753C48.06 14.6215 48.0685 15.1763 48.0536 15.7258C48.0408 16.2269 47.9313 16.7226 47.7856 17.2011C47.5558 17.958 47.2229 18.6677 46.7624 19.3183C46.204 20.1086 45.5382 20.7785 44.6873 21.2398C44.0736 21.572 43.429 21.829 42.7419 21.9785C42.4027 22.0527 42.0655 22.0806 41.723 22.0806C39.8351 22.0817 37.9483 22.0806 36.0604 22.0806C36.0093 22.0806 35.9583 22.0806 35.8891 22.0806C35.8838 22.0011 35.8774 21.9408 35.8774 21.8817C35.8774 17.4269 35.8796 12.972 35.8806 8.51719C35.8806 8.41073 35.8881 8.30321 35.8923 8.19676C35.9093 8.1817 35.9253 8.16665 35.9423 8.15159H35.9434ZM38.7449 19.314C39.733 19.314 40.6892 19.3118 41.6454 19.314C42.1559 19.3161 42.6313 19.1839 43.0897 18.9645C44.0895 18.4882 44.7692 17.7204 45.0946 16.6623C45.2191 16.2559 45.252 15.8172 45.3031 15.3903C45.3393 15.0828 45.2818 14.7742 45.2637 14.4656C45.2276 13.8602 45.0521 13.3021 44.767 12.7903C44.3427 12.0301 43.7002 11.4935 42.8887 11.1785C42.4271 11 41.9453 10.9129 41.4486 10.9161C40.6424 10.9204 39.8351 10.9172 39.0289 10.9172C38.9417 10.9172 38.8534 10.9172 38.746 10.9172V19.3118L38.7449 19.314Z" fill="#394F71"/>
<path d="M13.8195 11.2237C13.7344 11.286 13.6535 11.357 13.5621 11.4097C11.7135 12.4753 9.86285 13.5398 8.01324 14.6022C7.82924 14.7075 7.63992 14.8043 7.45378 14.9054C7.41869 14.9 7.38359 14.8936 7.34849 14.8882C7.35062 14.129 7.35487 13.371 7.35593 12.6118C7.35806 11.0054 7.35487 9.39786 7.36231 7.79141C7.36231 7.61614 7.30807 7.52259 7.15598 7.43549C5.32445 6.38603 3.49824 5.32689 1.66991 4.27205C1.43379 4.13549 1.19129 4.01076 0.954102 3.88173C0.960483 3.85377 0.958356 3.82797 0.967928 3.82259C1.96878 3.25377 2.97282 2.68926 3.97261 2.11936C4.78946 1.65377 5.60311 1.18281 6.41677 0.709687C6.67735 0.558074 6.93581 0.40216 7.18788 0.235493C7.31977 0.148397 7.42294 0.165601 7.55164 0.24087C9.4608 1.35162 11.3721 2.45807 13.2834 3.5656C13.4589 3.66775 13.6365 3.76668 13.8163 3.86883C13.8163 3.98173 13.8163 4.07958 13.8163 4.17743C13.8163 6.48065 13.8141 8.78388 13.8131 11.0871C13.8131 11.1312 13.8173 11.1764 13.8195 11.2204L13.8216 11.2237H13.8195Z" fill="#394F71"/>
<path d="M7.39743 14.9925C9.34276 16.1108 11.2892 17.2291 13.2345 18.3474C13.4185 18.4538 13.6057 18.5549 13.8025 18.6656C13.8067 18.7216 13.8141 18.7818 13.8141 18.8431C13.8141 21.1549 13.811 23.4667 13.8184 25.7786C13.8184 25.985 13.7567 26.1011 13.5791 26.2022C12.692 26.7065 11.8135 27.2248 10.9307 27.7345C9.84691 28.3592 8.76203 28.9818 7.67716 29.6044C7.58781 29.656 7.49528 29.7033 7.36446 29.7732C7.35701 29.6366 7.34744 29.542 7.34744 29.4484C7.34957 27.1904 7.34957 24.9312 7.3602 22.6732C7.3602 22.4495 7.29745 22.3259 7.09856 22.213C5.3585 21.2194 3.62483 20.2108 1.88902 19.2097C1.58271 19.0334 1.27107 18.8667 0.936035 18.6818C3.08451 17.4398 5.20215 16.2162 7.31872 14.9915C7.34425 14.9915 7.37084 14.9925 7.39636 14.9936L7.39743 14.9925Z" fill="#394F71"/>
<path d="M13.8195 11.2237L13.8174 11.2205C15.1522 10.4624 16.4881 9.70758 17.8197 8.94522C18.5664 8.51834 19.3088 8.08178 20.0501 7.64522C20.1756 7.57102 20.2713 7.55167 20.4107 7.63232C22.4741 8.83124 24.5417 10.0237 26.6083 11.2173C26.6306 11.2302 26.6498 11.2506 26.6795 11.2742C26.6827 11.328 26.6891 11.3893 26.6891 11.4506C26.6891 13.7538 26.6859 16.057 26.6934 18.3613C26.6934 18.5742 26.6338 18.7001 26.4466 18.8065C25.3979 19.4033 24.3577 20.014 23.3122 20.6173C22.39 21.1495 21.4658 21.6785 20.5426 22.2076C20.4596 22.2549 20.3745 22.2979 20.2564 22.3613C20.2479 22.2506 20.2352 22.1667 20.2352 22.0839C20.2373 19.8248 20.2394 17.5667 20.249 15.3076C20.249 15.0689 20.1799 14.9259 19.9618 14.8001C18.0346 13.685 16.1158 12.5538 14.195 11.428C14.0726 11.356 13.9461 11.2904 13.8216 11.2226L13.8195 11.2237Z" fill="#394F71"/>
<path d="M96.5114 21.1581C96.2763 21.3462 96.0561 21.557 95.8041 21.7161C95.0627 22.186 94.2469 22.3871 93.3695 22.3645C92.8823 22.3516 92.4037 22.2989 91.9517 22.1204C90.6945 21.6258 89.7926 20.7376 89.1799 19.5355C88.913 19.0118 88.746 18.4495 88.662 17.8796C88.5928 17.4097 88.6364 16.9183 88.6662 16.4387C88.6939 15.9903 88.7896 15.5484 88.9619 15.1301C89.6405 13.4806 90.7583 12.3118 92.5409 11.9204C93.0514 11.8086 93.5779 11.7968 94.1129 11.8731C94.5171 11.9312 94.8936 12.0516 95.2691 12.1817C95.6743 12.3215 96.0157 12.5849 96.3316 12.8763C96.3837 12.9247 96.4348 12.9731 96.489 13.0172C96.4986 13.0247 96.5209 13.0172 96.5603 13.0151V12.1333C96.7464 12.0688 98.8481 12.0548 99.2576 12.114C99.2533 15.4215 99.2671 18.7355 99.2491 22.0634H96.5698C96.5645 21.7624 96.5581 21.4624 96.5528 21.1634C96.5486 21.1495 96.5443 21.1344 96.5411 21.1204C96.5305 21.1323 96.5209 21.1441 96.5103 21.157L96.5114 21.1581ZM93.9438 19.7763C95.1893 19.8355 96.5741 18.8226 96.5645 17.0914C96.556 15.5086 95.4754 14.4151 93.9076 14.4086C92.559 14.4032 91.1742 15.3806 91.3061 17.5011C91.4965 18.5462 92.3378 19.8075 93.9427 19.7753L93.9438 19.7763Z" fill="#394F71"/>
<path d="M80.2733 20.1549C79.7426 20.9957 79.0513 21.5893 78.1525 21.9409C77.693 22.1205 77.2272 22.2775 76.7379 22.3334C76.4305 22.3678 76.1189 22.3603 75.8083 22.3613C75.5605 22.3613 75.3106 22.3646 75.0649 22.3345C74.8054 22.3022 74.548 22.2474 74.2959 22.1775C72.8037 21.7656 71.7039 20.8699 70.9998 19.4764C70.8115 19.1044 70.6764 18.7119 70.5807 18.3173C70.4456 17.7624 70.4265 17.185 70.4956 16.6108C70.5243 16.3753 70.5371 16.1377 70.5711 15.9044C70.5871 15.7936 70.6413 15.6893 70.6743 15.5807C71.1497 13.9979 72.1144 12.8538 73.6418 12.213C74.0587 12.0377 74.4905 11.9259 74.9426 11.8936C75.2404 11.8721 75.5392 11.8205 75.837 11.8291C77.3516 11.8721 78.613 12.4656 79.5894 13.6398C79.8968 14.0097 80.1244 14.4323 80.3021 14.8839C80.4467 15.2517 80.585 15.6183 80.6541 16.0087C80.7594 16.6044 80.8041 17.2011 80.6839 17.8022C80.6584 17.9302 80.6626 18.0635 80.652 18.2226H73.3142C73.4567 18.6613 73.6673 19.0097 73.9874 19.2871C74.2438 19.5097 74.5394 19.657 74.8628 19.757C75.3967 19.9226 75.9487 19.9377 76.488 19.8656C77.0453 19.7904 77.542 19.5334 77.9334 19.1065C77.993 19.042 78.0515 18.9753 78.1217 18.8968C78.8343 19.314 79.5416 19.728 80.2744 20.157L80.2733 20.1549ZM73.2376 16.0624H78.0121C77.9983 15.9828 77.9972 15.9194 77.977 15.8624C77.7792 15.2947 77.4399 14.842 76.9038 14.556C76.3699 14.271 75.8019 14.2151 75.2116 14.3022C74.4225 14.4194 73.8407 14.842 73.4503 15.5334C73.361 15.6914 73.3121 15.8721 73.2376 16.0613V16.0624Z" fill="#394F71"/>
<path d="M49.1812 17.2355C49.1854 16.5226 49.2811 15.8269 49.5545 15.1656C50.2596 13.4548 51.503 12.3602 53.2909 11.9226C53.6717 11.829 54.0759 11.7914 54.4683 11.7946C55.1895 11.8011 55.8797 11.9538 56.5551 12.2452C57.4209 12.6194 58.0973 13.2075 58.6845 13.9215C59.0248 14.3355 59.2163 14.8323 59.4003 15.3301C59.5566 15.7516 59.6077 16.1925 59.6715 16.6355C59.7247 17.0043 59.7108 17.3645 59.6651 17.7247C59.5992 18.2527 59.4609 18.7591 59.2577 19.257C58.8727 20.2022 58.2675 20.9602 57.4496 21.5441C56.8551 21.9688 56.1743 22.2204 55.4681 22.3892C54.8491 22.5376 54.2163 22.5258 53.5962 22.4355C52.9346 22.3387 52.323 22.0645 51.7508 21.714C50.8808 21.1817 50.2288 20.4505 49.7544 19.5441C49.5056 19.0688 49.363 18.5624 49.2471 18.0462C49.1886 17.7839 49.2014 17.5054 49.1812 17.2344V17.2355ZM51.8987 17.0344C51.8987 17.2301 51.8582 17.4376 51.9061 17.6215C52.0422 18.1495 52.272 18.6366 52.6719 19.0226C52.9346 19.2763 53.2377 19.4806 53.5813 19.5957C53.8525 19.686 54.1418 19.7151 54.4322 19.7215C54.8289 19.729 55.2012 19.6452 55.5564 19.4763C56.5413 19.0075 56.9348 18.1624 57.0061 17.1247C57.0369 16.6677 56.9029 16.2323 56.7051 15.829C56.402 15.2129 55.9276 14.7903 55.2511 14.5968C54.7289 14.4473 54.2173 14.4172 53.6951 14.5602C52.7325 14.8247 51.8497 15.814 51.8997 17.0344H51.8987Z" fill="#394F71"/>
<path d="M70.3308 12.171C70.1968 12.4839 70.0586 12.7946 69.9309 13.1108C69.8012 13.4312 69.6799 13.7559 69.5587 14.0807C69.2736 14.8419 68.9907 15.6043 68.7057 16.3656C68.4174 17.1355 68.1302 17.9065 67.8367 18.6753C67.6176 19.2505 67.3847 19.8204 67.1677 20.3968C66.9603 20.9484 66.7635 21.5043 66.5593 22.0688H63.5716C63.4557 21.7764 63.3408 21.485 63.227 21.1936C63.0888 20.8387 62.9473 20.4839 62.8175 20.1258C62.6782 19.7441 62.557 19.3559 62.4144 18.9753C62.2592 18.5624 62.0837 18.157 61.9262 17.7441C61.8114 17.4452 61.7156 17.1376 61.6018 16.8387C61.4806 16.5226 61.3434 16.2118 61.2211 15.8957C60.986 15.2871 60.752 14.6785 60.5255 14.0667C60.3691 13.643 60.2309 13.2129 60.0766 12.7882C59.9969 12.5688 59.9001 12.3549 59.7905 12.0903C60.8095 12.0785 61.7773 12.0871 62.7452 12.0839C63.5025 14.2968 64.2534 16.4936 65.0192 18.7301C65.0713 18.6807 65.1245 18.6527 65.1394 18.6118C65.3383 18.0505 65.5329 17.4871 65.7286 16.9237C65.9754 16.2118 66.2264 15.5022 66.47 14.7893C66.7571 13.9538 67.039 13.1161 67.3208 12.2796C67.3602 12.1613 67.4091 12.0721 67.5538 12.0731C68.4749 12.0828 69.3959 12.0893 70.317 12.0968C70.3223 12.1215 70.3276 12.1473 70.3319 12.1721L70.3308 12.171Z" fill="#394F71"/>
<path d="M81.208 14.6237V12.1032C81.492 12.0763 81.7717 12.0968 82.0504 12.0925C82.3237 12.0893 82.5971 12.0925 82.8874 12.0925C82.8959 12.0194 82.9098 11.9613 82.9098 11.9032C82.9119 11.4043 82.9098 10.9043 82.9108 10.4054C82.9108 10.1258 82.9172 10.1376 83.1874 10.0548C83.9617 9.81828 84.7328 9.5699 85.506 9.32796C85.5209 9.32366 85.5401 9.33226 85.5581 9.33549C85.572 9.34947 85.5869 9.36345 85.6007 9.3785C85.6039 10.1817 85.6071 10.985 85.6092 11.7882C85.6092 11.8763 85.6092 11.9634 85.6092 12.0828H87.7928V14.6925H85.6241C85.6156 14.7667 85.606 14.8183 85.606 14.8688C85.606 16.1634 85.6124 17.457 85.606 18.7516C85.6039 19.0774 85.7187 19.328 85.9985 19.4785C86.1389 19.5548 86.308 19.6054 86.4675 19.614C86.8292 19.6333 87.1929 19.6183 87.5567 19.6172C87.6354 19.6172 87.713 19.6172 87.8098 19.6172C87.8151 19.7118 87.8236 19.7893 87.8236 19.8677C87.8236 20.5376 87.8226 21.2065 87.8204 21.8763C87.8204 22.086 87.7843 22.1172 87.5747 22.1237C86.9738 22.1409 86.3729 22.1645 85.773 22.1764C85.6454 22.1785 85.5124 22.1548 85.389 22.1204C85.1295 22.0484 84.8711 21.9677 84.6158 21.8785C84.0765 21.6903 83.6766 21.329 83.3905 20.8376C83.1406 20.4075 83.0289 19.9355 82.9566 19.4441C82.8949 19.028 82.914 18.6129 82.9119 18.1979C82.9045 17.1355 82.9087 16.0742 82.9087 15.0118C82.9087 14.9237 82.9087 14.8355 82.9087 14.7097C82.345 14.7 81.7994 14.6914 81.2537 14.6817C81.2389 14.6634 81.224 14.6452 81.2091 14.6269L81.208 14.6237Z" fill="#394F71"/>
<path d="M108.853 22.0688H106.229V7.56018H108.898C108.902 7.65158 108.91 7.7376 108.91 7.82255C108.91 12.3494 108.91 16.8763 108.909 21.4032C108.909 21.6086 108.904 21.8139 108.902 22.0182C108.886 22.0354 108.87 22.0527 108.854 22.0699L108.853 22.0688Z" fill="#394F71"/>
<path d="M104.063 22.0677H101.39V12.1H104.033C104.088 12.2935 104.117 21.2011 104.063 22.0677Z" fill="#394F71"/>
<path d="M102.755 11.0538C101.798 11.0645 101.087 10.2452 101.095 9.4269C101.104 8.54626 101.847 7.76454 102.71 7.78927C103.702 7.81722 104.372 8.5398 104.362 9.40755C104.349 10.4785 103.53 11.0463 102.755 11.0549V11.0538Z" fill="#394F71"/>
<path d="M7.39747 14.9925C7.37194 14.9925 7.34535 14.9914 7.31982 14.9903C7.3294 14.9559 7.33897 14.9215 7.34854 14.8871C7.38364 14.8925 7.41874 14.8989 7.45384 14.9043C7.43469 14.9333 7.41661 14.9624 7.39747 14.9914V14.9925Z" fill="#394F71"/>
<path d="M85.6007 9.37736C85.5868 9.36338 85.5719 9.3494 85.5581 9.33435C85.5719 9.34833 85.5868 9.36231 85.6007 9.37736Z" fill="#394F71"/>
<path d="M70.3308 12.171C70.3255 12.1462 70.3202 12.1204 70.3159 12.0957C70.3212 12.1204 70.3266 12.1462 70.3308 12.171Z" fill="#394F71"/>
<path d="M96.5112 21.158C96.5219 21.1462 96.5314 21.1344 96.5421 21.1215C96.5463 21.1354 96.5506 21.1505 96.5538 21.1645L96.5314 21.1655L96.5112 21.1569V21.158Z" fill="#394F71"/>
</g>
<defs>
<clipPath id="clip0_222_13567">
<rect width="108.913" height="30" fill="white" transform="translate(0.418945)"/>
</clipPath>
</defs>
</svg>
