<svg width="81" height="22" viewBox="0 0 81 22" fill="none" xmlns="http://www.w3.org/2000/svg">
<g clip-path="url(#clip0_222_13370)">
<path d="M20.1035 0.0183105V16.9707L22.2751 16.979V8.91001H27.5217V6.77434H22.2751V2.15398H29.1048V0.0183105H20.1035ZM33.0252 3.45865C33.8126 3.45865 34.4426 2.81878 34.4426 2.03764C34.4426 1.2565 33.8044 0.61663 33.0252 0.61663C32.2378 0.61663 31.6079 1.2565 31.6079 2.03764C31.6079 2.81878 32.2461 3.45865 33.0252 3.45865ZM31.9229 5.59432V16.9707H34.0945V5.59432H31.9229Z" fill="#394F71"/>
<path fill-rule="evenodd" clip-rule="evenodd" d="M42.1587 5.26196C39.266 5.26196 37.252 7.71341 37.252 10.6219C37.252 13.5304 39.266 15.9819 42.1587 15.9819C43.4849 15.9819 44.5707 15.4666 45.3664 14.6356V16.1397C45.3664 18.0261 43.891 19.5967 41.9598 19.5967C41.2636 19.5967 40.5756 19.3308 40.0286 18.9485L38.9345 20.8432C39.8048 21.4083 40.8409 21.7324 41.9515 21.7324C45.0348 21.7324 47.5297 19.2311 47.5297 16.1397V5.59436H45.3664V6.60818C44.5707 5.77718 43.4849 5.26196 42.1587 5.26196ZM39.4318 10.6219C39.4318 8.81864 40.8077 7.39763 42.3991 7.39763C43.9905 7.39763 45.3664 8.81864 45.3664 10.6219C45.3664 12.4252 43.9905 13.8462 42.3991 13.8462C40.8077 13.8462 39.4318 12.4252 39.4318 10.6219Z" fill="#394F71"/>
<path d="M55.3786 7.39763C54.0939 7.39763 53.0495 8.49455 53.0495 9.7826V16.9707H50.8779V5.59436H53.0495V6.63311C53.6877 5.81042 54.6243 5.26196 55.851 5.26196C57.3761 5.26196 58.5448 6.01817 59.2244 7.18157C59.9787 6.05972 61.2054 5.26196 62.689 5.26196C65.1673 5.26196 66.7089 7.26467 66.7172 9.74105V16.9707H64.5456V9.77429C64.5456 8.48624 63.5013 7.38932 62.2166 7.38932C60.9318 7.38932 59.8875 8.48624 59.8875 9.77429V16.9707H57.7159V9.77429C57.7076 8.48624 56.6633 7.39763 55.3786 7.39763Z" fill="#394F71"/>
<path fill-rule="evenodd" clip-rule="evenodd" d="M78.3044 6.88241C77.3347 5.8769 76.0085 5.26196 74.4752 5.26196C71.2427 5.26196 68.9385 8.01257 68.9385 11.2867C68.9385 14.5609 71.2344 17.3115 74.4752 17.3115C76.0085 17.3115 77.3347 16.6882 78.3044 15.691V16.9707H80.476V5.59436H78.3044V6.88241ZM71.1183 11.2867C71.1183 9.1178 72.776 7.39763 74.7155 7.39763C76.6467 7.39763 78.3127 9.10949 78.3127 11.2867C78.3127 13.4556 76.655 15.1758 74.7155 15.1758C72.776 15.1675 71.1183 13.4556 71.1183 11.2867Z" fill="#394F71"/>
<path d="M8.15918 11.0042C8.15918 8.98486 9.79201 7.33948 11.8144 7.33948C13.8285 7.33948 15.4696 8.97655 15.4696 11.0042C15.4696 13.0235 13.8368 14.6689 11.8144 14.6689C9.8003 14.6689 8.15918 13.0235 8.15918 11.0042Z" fill="#394F71"/>
<path d="M0.857422 18.3252C0.857422 16.3059 2.49025 14.6605 4.51264 14.6605H8.16785V18.3252C8.16785 20.3446 6.53502 21.9899 4.51264 21.9899C2.49025 21.9899 0.857422 20.3529 0.857422 18.3252Z" fill="#394F71"/>
<path d="M8.15918 0.0183198V7.33943H11.8144C13.8285 7.33943 15.4696 5.70236 15.4696 3.67472C15.4696 1.65539 13.8368 0.0100098 11.8144 0.0100098H8.15918V0.0183198Z" fill="#394F71"/>
<path d="M0.857422 3.68302C0.857422 5.70235 2.49025 7.34773 4.51264 7.34773H8.16785V0.0183105H4.51264C2.49025 0.0183105 0.857422 1.65538 0.857422 3.68302Z" fill="#394F71"/>
<path d="M0.857422 11.0042C0.857422 13.0235 2.49025 14.6689 4.51264 14.6689H8.16785V7.33948H4.51264C2.49025 7.33948 0.857422 8.98486 0.857422 11.0042Z" fill="#394F71"/>
</g>
<defs>
<clipPath id="clip0_222_13370">
<rect width="79.619" height="22" fill="white" transform="translate(0.857422)"/>
</clipPath>
</defs>
</svg>
