<svg width="90" height="26" viewBox="0 0 90 26" fill="none" xmlns="http://www.w3.org/2000/svg">
<g clip-path="url(#clip0_222_13481)">
<path d="M60.5925 20.7791C56.6851 20.658 53.929 17.8742 53.9642 13.7487C53.9963 10.0032 56.6033 7.3291 59.9816 7.0879C65.0299 6.72661 67.1948 10.2758 67.3978 13.0439C67.7943 18.4339 64.1872 20.7029 60.5914 20.7802L60.5925 20.7791ZM56.8994 13.8113C56.9512 14.253 56.9688 14.7031 57.0599 15.1364C57.2732 16.1513 57.737 17.0065 58.6191 17.6122C59.3304 18.0998 60.1017 18.2032 60.93 18.1729C62.6103 18.1123 63.8507 16.9773 64.2886 15.4121C64.533 14.5391 64.5588 13.6537 64.3828 12.7797C64.1395 11.5726 63.5887 10.5546 62.4302 9.97609C61.7562 9.63986 61.0428 9.57721 60.3119 9.60645C59.289 9.64717 58.4814 10.1024 57.8478 10.9044C57.1758 11.7554 56.9077 12.7327 56.9004 13.8124L56.8994 13.8113Z" fill="#394F71"/>
<path d="M89.6064 7.4178C89.1953 8.56431 88.7988 9.71708 88.3712 10.8573C86.9901 14.538 85.5996 18.2167 84.2081 21.8932C83.6925 23.2548 83.1624 24.6112 82.6333 25.9843H79.8048C80.2448 24.7835 80.6734 23.6088 81.1073 22.4352C81.2367 22.0854 81.4168 21.7502 81.5027 21.3899C81.5587 21.1571 81.5473 20.8678 81.4613 20.6454C80.456 18.0507 79.429 15.4653 78.4133 12.8747C77.702 11.0599 77 9.23989 76.2939 7.42302C77.3189 7.42407 78.3439 7.42511 79.3679 7.42616C80.5906 10.7874 81.8133 14.1475 83.0765 17.6215C83.2142 17.2654 83.326 16.996 83.4223 16.7214C84.468 13.7424 85.5095 10.7623 86.5562 7.78431C86.6008 7.65588 86.6774 7.53893 86.7385 7.41676C86.7706 7.39065 86.8037 7.36455 86.8358 7.3374C87.7283 7.3374 88.6207 7.3374 89.5132 7.3374C89.5442 7.36455 89.5753 7.39065 89.6064 7.4178Z" fill="#394F71"/>
<path d="M11.1488 7.33845C12.0371 7.33949 12.9254 7.34158 13.8137 7.34262C13.8407 7.36664 13.8665 7.39065 13.8935 7.41467C13.9007 10.1107 13.8997 12.8078 13.9214 15.5039C13.9245 15.9425 13.9597 16.4019 14.0933 16.8133C14.3884 17.7197 15.1483 18.0684 15.9993 18.271C17.072 18.5258 18.1228 18.2678 19.1799 18.1446C19.2193 17.9744 19.2907 17.8042 19.2917 17.634C19.299 14.6028 19.2979 11.5705 19.2948 8.53925C19.2948 8.19467 19.2721 7.85009 19.2596 7.50551C19.2638 7.47106 19.2752 7.43973 19.2938 7.41049C20.2246 7.4178 21.1564 7.42616 22.0872 7.43347C22.1151 7.46166 22.1441 7.48881 22.1721 7.517C22.17 11.6937 22.1679 15.8694 22.1648 20.0461C22.1389 20.0732 22.113 20.1004 22.0882 20.1275C20.7381 20.3092 19.3839 20.4711 18.0379 20.6789C16.7272 20.8804 15.4558 20.7446 14.1854 20.3907C12.2028 19.8393 11.2244 18.438 11.1084 16.5094C11.1156 16.3894 11.1291 16.2682 11.1291 16.1482C11.1364 13.2109 11.1426 10.2747 11.1488 7.3374V7.33845Z" fill="#394F71"/>
<path d="M2.57134 20.564C2.57134 17.0179 2.57134 13.4709 2.57134 9.92484C2.55788 9.89143 2.54339 9.85697 2.52993 9.82356H0.474776C0.474776 9.0634 0.454069 8.33874 0.496518 7.61826C0.50273 7.50653 0.790555 7.33633 0.95828 7.3238C1.4687 7.28517 1.9843 7.30918 2.57238 7.30918V4.70396C2.56824 4.66637 2.56409 4.62774 2.55995 4.59015C2.68626 2.49657 3.37477 0.692234 5.66908 0.181631C6.84937 -0.080457 8.14769 -0.100296 9.30313 0.539784C9.43151 0.610788 9.55886 0.815447 9.563 0.962676C9.58888 1.74268 9.57542 2.52372 9.57542 3.31207C9.08053 3.12725 8.6198 2.8495 8.13526 2.79938C7.51199 2.7336 6.83798 2.74091 6.2437 2.91633C5.60903 3.10428 5.46616 3.76211 5.41128 4.38549C5.39782 4.39488 5.37194 4.40637 5.37297 4.41263C5.37919 4.43978 5.39265 4.46484 5.403 4.49095C5.403 4.56091 5.403 4.62982 5.403 4.69978C5.39058 4.71023 5.36676 4.72589 5.3678 4.73007C5.37919 4.75617 5.39575 4.78019 5.41128 4.80525C5.42267 5.63745 5.43406 6.46966 5.44545 7.30083C5.59868 7.33842 5.75191 7.40838 5.90514 7.40942C7.19621 7.41987 8.48728 7.41673 9.77835 7.41778V9.83087C8.35579 9.83087 6.9529 9.83087 5.54898 9.83087C5.51171 10 5.44234 10.1692 5.44131 10.3383C5.43095 13.781 5.42785 17.2226 5.42371 20.6652C4.49811 20.6632 3.57355 20.6611 2.64796 20.659C2.62207 20.6277 2.59515 20.5963 2.56927 20.565L2.57134 20.564Z" fill="#394F71"/>
<path d="M43.5711 10.5702C42.8598 10.2371 42.1744 9.80799 41.429 9.59706C40.756 9.40702 40.0178 9.41329 39.3086 9.41433C38.8261 9.41433 38.208 10.0743 38.1221 10.5441C38.0155 11.1278 38.2567 11.7449 38.8209 11.9861C39.6824 12.3547 40.5893 12.6126 41.4621 12.953C42.6569 13.4187 43.7595 14.0265 44.1219 15.3996C44.7141 17.6477 43.978 19.7778 41.3348 20.4878C39.3987 21.0078 37.5765 20.7656 35.7915 19.9365C35.54 19.8196 35.4085 19.665 35.4209 19.3465C35.4509 18.5655 35.4302 17.7813 35.4302 17.064C36.3071 17.4378 37.1872 17.8523 38.0952 18.1875C38.9659 18.5091 39.8666 18.436 40.7208 18.104C41.6868 17.7281 41.8835 16.331 40.9921 15.8016C40.287 15.3828 39.4535 15.1542 38.6501 14.9401C37.2172 14.5569 35.952 13.9701 35.4582 12.4299C34.7345 10.1755 35.806 7.67787 38.4275 7.21321C40.1068 6.91562 41.7396 7.0712 43.2978 7.82509C43.5783 7.96084 43.7098 8.11955 43.6953 8.45264C43.6643 9.14702 43.6798 9.84349 43.6757 10.5389C43.6405 10.5494 43.6053 10.5608 43.5701 10.5713L43.5711 10.5702Z" fill="#394F71"/>
<path d="M49.3781 16.1931C49.2269 17.0305 49.8533 18.0548 50.7716 18.0726C51.72 18.0903 52.5793 17.8314 53.4128 17.421C53.4563 17.42 53.4997 17.4189 53.5432 17.4179C53.5567 17.4513 53.5702 17.4847 53.5826 17.5181C53.5722 18.3326 53.5619 19.146 53.5505 19.9604C52.0927 20.6903 50.5739 21.038 48.9722 20.5619C47.6749 20.1755 46.9119 19.2525 46.6168 17.9295C46.5733 17.7332 46.5505 17.5327 46.5174 17.3343C46.5309 17.3249 46.5568 17.3145 46.5557 17.3082C46.5516 17.2811 46.5392 17.256 46.5298 17.2299V17.02C46.5423 17.0096 46.5661 16.9939 46.564 16.9898C46.5536 16.9637 46.536 16.9396 46.5216 16.9156V9.84133H44.6341C44.6341 9.06342 44.6196 8.32309 44.6517 7.58591C44.6559 7.4888 44.8971 7.33426 45.0389 7.32277C45.4841 7.28518 45.9324 7.30293 46.3807 7.2998C46.4191 7.18285 46.4884 7.06591 46.4895 6.94896C46.4957 5.98832 46.4895 5.02767 46.4863 4.06703L46.4884 4.06494C47.4233 4.06494 48.3582 4.06494 49.2942 4.06494L49.2952 4.06703C49.3108 5.11956 49.3263 6.17313 49.3418 7.22567C49.3863 7.27056 49.4309 7.31442 49.4743 7.35932C49.641 7.37811 49.8077 7.41153 49.9744 7.41257C50.9828 7.41988 51.9913 7.42093 52.9997 7.42406C52.9997 8.18422 52.9997 8.94334 52.9997 9.7035C52.8112 9.70663 52.6238 9.70872 52.4354 9.71289C51.4477 9.73169 50.461 9.74944 49.4733 9.76824C49.4288 9.81314 49.3853 9.85804 49.3408 9.90189C49.3221 9.98438 49.288 10.0669 49.288 10.1494C49.2849 12.055 49.2838 13.9596 49.289 15.8652C49.289 15.9759 49.3449 16.0855 49.375 16.1951L49.3781 16.1931Z" fill="#394F71"/>
<path d="M27.5572 0.108587C27.5634 0.699591 27.5738 1.29059 27.5738 1.8816C27.5748 7.93469 27.5738 13.9888 27.5738 20.0419V20.6622H24.9947C24.9916 20.5755 24.9844 20.4888 24.9844 20.4022C24.9844 13.7675 24.9844 7.13276 24.9844 0.499108C24.9844 0.343526 24.9989 0.1869 25.0061 0.0313178C25.824 0.0313178 26.642 0.0313176 27.4599 0.0302734C27.492 0.0563779 27.5241 0.0835267 27.5551 0.109631L27.5572 0.108587Z" fill="#394F71"/>
<path d="M30.2816 0.0303413C31.0995 0.0303413 31.9175 0.0303411 32.7354 0.0292969C32.7675 0.0554013 32.7996 0.0825501 32.8306 0.108655C32.8368 0.699658 32.8472 1.29066 32.8472 1.88167C32.8482 7.93476 32.8472 13.9889 32.8472 20.042V20.6622H30.2682C30.2651 20.5756 30.2578 20.4889 30.2578 20.4022C30.2578 13.7675 30.2578 7.13283 30.2578 0.499176C30.2578 0.343594 30.2723 0.186968 30.2796 0.0313857L30.2816 0.0303413Z" fill="#394F71"/>
<path d="M72.1775 10.3373C72.1682 11.4305 72.1516 12.5248 72.1496 13.6181C72.1454 15.9466 72.1485 18.2751 72.1485 20.6391H69.2786C69.2703 20.5389 69.2506 20.4084 69.2506 20.2779C69.2485 16.4885 69.2547 12.6992 69.2402 8.91095C69.2392 8.53818 69.3728 8.38677 69.6927 8.23119C71.2416 7.47938 72.9954 7.08991 74.6727 7.22565C74.9998 8.11424 75.3312 9.01641 75.6987 10.0146C74.4998 9.8883 73.3474 9.79746 72.2479 10.2621C72.2241 10.2872 72.2013 10.3122 72.1775 10.3363V10.3373Z" fill="#394F71"/>
<path d="M25.0068 0.0302734C24.9995 0.185856 24.9851 0.342483 24.9851 0.498065C24.984 7.13276 24.9851 13.7675 24.9851 20.4011C24.9851 20.4878 24.9913 20.5744 24.9954 20.6611C24.9571 20.5087 24.8867 20.3552 24.8867 20.2027C24.8815 13.6307 24.8815 7.05758 24.8867 0.485534C24.8867 0.334128 24.9654 0.181679 25.0068 0.0302734Z" fill="#394F71"/>
<path d="M30.2822 0.0302734C30.2749 0.185856 30.2604 0.342483 30.2604 0.498065C30.2594 7.13276 30.2604 13.7675 30.2604 20.4011C30.2604 20.4878 30.2667 20.5744 30.2708 20.6611C30.2325 20.5087 30.1621 20.3552 30.1621 20.2027C30.1569 13.6307 30.1569 7.05758 30.1621 0.485534C30.1621 0.334128 30.2408 0.181679 30.2822 0.0302734Z" fill="#394F71"/>
<path d="M5.42676 20.6642C5.4309 17.2216 5.43401 13.78 5.44436 10.3373C5.44436 10.1681 5.51476 9.99899 5.55203 9.82983C5.54893 13.2516 5.54789 16.6723 5.53857 20.0941C5.53857 20.2841 5.4661 20.4742 5.42779 20.6642H5.42676Z" fill="#394F71"/>
<path d="M19.2594 7.50659C19.2718 7.85117 19.2946 8.19575 19.2946 8.54033C19.2977 11.5716 19.2977 14.6039 19.2915 17.6351C19.2915 17.8053 19.219 17.9755 19.1797 18.1457C19.1838 14.8012 19.1869 11.4578 19.1952 8.11326C19.1952 7.91069 19.2366 7.70812 19.2584 7.50659H19.2594Z" fill="#394F71"/>
<path d="M11.1487 7.33845C11.1424 10.2757 11.1362 13.2119 11.129 16.1492C11.129 16.2693 11.1155 16.3904 11.1083 16.5105C11.0793 16.309 11.0265 16.1074 11.0265 15.9049C11.0213 13.2005 11.0203 10.496 11.0286 7.79057C11.0286 7.63917 11.1072 7.48881 11.1497 7.3374L11.1487 7.33845Z" fill="#394F71"/>
<path d="M49.3776 16.193C49.3476 16.0834 49.2917 15.9727 49.2917 15.8631C49.2865 13.9575 49.2876 12.0529 49.2907 10.1472C49.2907 10.0648 49.3248 9.98227 49.3435 9.89978C49.36 10.6265 49.387 11.3522 49.389 12.079C49.3932 13.45 49.3828 14.822 49.3776 16.193Z" fill="#394F71"/>
<path d="M9.78017 7.41675C8.4891 7.41571 7.19803 7.4178 5.90696 7.4084C5.75373 7.40735 5.6005 7.3374 5.44727 7.2998C6.7373 7.30294 8.02734 7.30189 9.31737 7.31338C9.47164 7.31442 9.6259 7.38021 9.78017 7.41675Z" fill="#394F71"/>
<path d="M53.0019 7.42304C51.9935 7.4199 50.9851 7.4199 49.9766 7.41155C49.8099 7.41051 49.6433 7.37709 49.4766 7.3583C50.6196 7.34577 51.7636 7.33324 52.9067 7.32593C52.9377 7.32593 52.9698 7.38962 53.0019 7.42304Z" fill="#394F71"/>
<path d="M49.4746 9.76615C50.4623 9.74736 51.449 9.72856 52.4367 9.71081C52.6252 9.70768 52.8125 9.70455 53.001 9.70142C52.9689 9.73483 52.9368 9.79852 52.9057 9.79852C51.7617 9.79121 50.6187 9.77764 49.4746 9.76615Z" fill="#394F71"/>
<path d="M46.4884 4.06604C46.4915 5.02668 46.4977 5.98732 46.4915 6.94797C46.4915 7.06491 46.4211 7.18186 46.3828 7.29881C46.3859 6.38098 46.3859 5.46315 46.3973 4.54532C46.3994 4.38556 46.4563 4.2258 46.4884 4.06604Z" fill="#394F71"/>
<path d="M49.3435 7.22467C49.3279 6.17214 49.3124 5.11857 49.2969 4.06604C49.329 4.31142 49.388 4.5568 49.3869 4.80114C49.3838 5.60933 49.36 6.41648 49.3435 7.22467Z" fill="#394F71"/>
<path d="M79.3669 7.4262C78.3419 7.42516 77.3169 7.42411 76.293 7.42307C76.3582 7.38548 76.4224 7.31552 76.4886 7.31447C77.3625 7.30716 78.2363 7.30612 79.1112 7.31447C79.1971 7.31447 79.282 7.38757 79.3679 7.4262H79.3669Z" fill="#394F71"/>
<path d="M22.0873 7.43554C21.1565 7.42823 20.2247 7.41988 19.2939 7.41257C19.8603 7.37811 20.4266 7.32068 20.9929 7.31755C21.3864 7.31546 21.7798 7.38751 22.1743 7.42614C22.1453 7.42614 22.1163 7.42823 22.0873 7.43659V7.43554Z" fill="#394F71"/>
<path d="M49.295 4.06388C48.3601 4.06388 47.4252 4.06388 46.4893 4.06388C46.8361 4.03151 47.184 3.9699 47.5308 3.97408C48.1189 3.98139 48.707 4.03151 49.294 4.06388H49.295Z" fill="#394F71"/>
<path d="M53.5508 19.9605C53.5611 19.1461 53.5715 18.3326 53.5829 17.5182C53.5725 18.3326 53.5622 19.1461 53.5508 19.9605Z" fill="#394F71"/>
<path d="M22.0869 7.43561C22.1149 7.4283 22.1439 7.42517 22.1739 7.42517C22.1946 7.4565 22.1946 7.48782 22.1718 7.51915C22.1439 7.49095 22.1149 7.46381 22.0869 7.43561Z" fill="#394F71"/>
<path d="M5.40408 4.48998C5.39372 4.46388 5.38027 4.43882 5.37405 4.41167C5.37302 4.4054 5.3989 4.39392 5.41236 4.38452C5.40925 4.42002 5.40718 4.45448 5.40408 4.48998Z" fill="#394F71"/>
<path d="M86.8356 7.3374C86.8035 7.36351 86.7704 7.38961 86.7383 7.41676C86.7704 7.39065 86.8035 7.36455 86.8356 7.3374Z" fill="#394F71"/>
<path d="M32.8306 0.108655C32.7985 0.0825501 32.7664 0.0554013 32.7354 0.0292969C32.7674 0.0554013 32.7995 0.0825501 32.8306 0.108655Z" fill="#394F71"/>
<path d="M72.1768 10.3373C72.2006 10.3123 72.2233 10.2872 72.2472 10.2632C72.2233 10.2882 72.2006 10.3133 72.1768 10.3373Z" fill="#394F71"/>
<path d="M43.5703 10.5702C43.6055 10.5598 43.6407 10.5483 43.6759 10.5378C43.6749 10.565 43.6728 10.5932 43.6718 10.6203C43.6376 10.6036 43.6045 10.5869 43.5703 10.5702Z" fill="#394F71"/>
<path d="M46.5234 16.9147C46.5379 16.9387 46.5545 16.9627 46.5659 16.9888C46.568 16.993 46.5441 17.0086 46.5317 17.0191L46.5234 16.9147Z" fill="#394F71"/>
<path d="M46.532 17.2289C46.5413 17.255 46.5537 17.28 46.5578 17.3072C46.5589 17.3135 46.533 17.3249 46.5195 17.3333C46.5237 17.2988 46.5278 17.2633 46.532 17.2289Z" fill="#394F71"/>
<path d="M53.5435 17.418C53.5001 17.419 53.4566 17.4201 53.4131 17.4211L53.5435 17.418Z" fill="#394F71"/>
<path d="M27.5572 0.108655C27.5251 0.0825501 27.493 0.0554013 27.4619 0.0292969C27.494 0.0554013 27.5261 0.0825501 27.5572 0.108655Z" fill="#394F71"/>
<path d="M5.41177 4.80431C5.39728 4.77925 5.37967 4.75524 5.36829 4.72913C5.36622 4.72496 5.39106 4.70929 5.40349 4.69885C5.40659 4.73435 5.40866 4.76881 5.41177 4.80431Z" fill="#394F71"/>
<path d="M22.0879 20.1297C22.1138 20.1025 22.1397 20.0754 22.1645 20.0482C22.1386 20.0754 22.1127 20.1025 22.0879 20.1297Z" fill="#394F71"/>
</g>
<defs>
<clipPath id="clip0_222_13481">
<rect width="89.1429" height="26" fill="white" transform="translate(0.476562)"/>
</clipPath>
</defs>
</svg>
