<svg width="71" height="24" viewBox="0 0 71 24" fill="none" xmlns="http://www.w3.org/2000/svg">
<g clip-path="url(#clip0_222_13389)">
<path d="M15.301 5.83961C14.6644 5.83961 14.0279 5.83961 13.3923 5.83961C12.701 5.83961 12.0087 5.83961 11.3174 5.83961C10.5703 5.83961 9.8233 5.83961 9.07625 5.83961C9.058 5.83759 9.03976 5.83457 9.02151 5.83457C7.96531 5.83457 6.91011 5.83457 5.8539 5.83457C5.82248 5.83457 5.79207 5.83961 5.7647 5.84263C5.75761 5.85877 5.75153 5.86683 5.75051 5.8749C5.7495 5.91121 5.74747 5.94852 5.7495 5.98482C5.78903 7.2504 6.25936 8.34052 7.13514 9.24912C8.18425 10.3362 9.48677 10.8555 10.9961 10.8687C11.6418 10.8747 12.2874 10.8687 12.9321 10.8687H13.0831C13.0862 10.909 13.0892 10.9312 13.0892 10.9534C13.0892 11.5725 13.0811 12.1917 13.0933 12.8099C13.0984 13.1064 13.1217 13.4049 13.1693 13.6973C13.4998 15.696 15.0861 17.2954 17.0566 17.7482C17.4043 17.8279 17.7631 17.8631 18.1179 17.9136C18.278 17.9368 18.3064 17.9045 18.3064 17.7331C18.3064 16.6883 18.3064 15.6426 18.3064 14.5978C18.3064 14.5575 18.2983 14.5162 18.2942 14.4758C18.2983 14.4214 18.3054 14.3669 18.3054 14.3135C18.3064 13.7437 18.3074 13.1729 18.3054 12.6032C18.3054 12.5306 18.2973 12.4579 18.2932 12.3864C18.2973 11.8811 18.3024 11.3749 18.3044 10.8697C18.3044 10.7245 18.2973 10.5792 18.2932 10.434C18.2973 10.07 18.3024 9.70594 18.3034 9.34189C18.3034 9.10995 18.2963 8.87801 18.2932 8.64607C18.2932 7.99564 18.3105 7.3452 18.2861 6.69577C18.2689 6.24096 17.8472 5.85171 17.387 5.84364C16.6917 5.83053 15.9953 5.84162 15.299 5.84263L15.301 5.83961ZM9.60131 11.4233C8.92826 11.4233 8.25521 11.4233 7.58114 11.4233C6.81584 11.4233 6.05055 11.4233 5.28525 11.4233C4.50171 11.4233 3.71716 11.4233 2.93362 11.4233C2.90625 11.4213 2.87888 11.4172 2.85152 11.4172C1.94735 11.4172 1.04421 11.4172 0.140043 11.4172C0.105579 11.4172 0.0701018 11.4243 0.0224609 11.4293C0.0325973 11.5756 0.0396927 11.7117 0.0518564 11.8478C0.147138 12.9339 0.564756 13.8869 1.29559 14.6936C2.3599 15.8695 3.70702 16.4332 5.29134 16.4493C5.93702 16.4564 6.58271 16.4503 7.22738 16.4513C7.27603 16.4513 7.32469 16.4564 7.38145 16.4594C7.38145 16.5239 7.38145 16.5744 7.38145 16.6238C7.38145 17.2561 7.37638 17.8894 7.38551 18.5217C7.40172 19.6128 7.75954 20.5879 8.4336 21.4441C9.281 22.5191 10.397 23.1554 11.7472 23.3823C12.0209 23.4277 12.3006 23.4368 12.5844 23.463V21.0236C12.5844 20.235 12.5844 19.4464 12.5844 18.6578C12.5844 17.9055 12.5844 17.1542 12.5844 16.4019V14.3941C12.5855 13.7064 12.5946 13.0186 12.5844 12.3309C12.5784 11.864 12.1628 11.4374 11.6884 11.4263C10.993 11.4102 10.2967 11.4233 9.6003 11.4243L9.60131 11.4233ZM56.4698 9.79468C56.4769 9.78661 56.484 9.77854 56.4911 9.77048V7.40469C56.2285 7.40469 55.9771 7.40066 55.7248 7.40469C55.0517 7.4178 54.3969 7.52772 53.7684 7.77176C52.694 8.18825 51.9297 8.94558 51.3793 9.93586C51.357 9.9762 51.3337 10.0165 51.3104 10.0569L51.28 10.0468V7.64369H48.8178V21.8323H51.28V21.6589C51.28 18.9633 51.28 16.2678 51.28 13.5723C51.28 13.1245 51.3023 12.6788 51.4067 12.2391C51.6388 11.2599 52.1851 10.5369 53.1268 10.1275C53.7695 9.84813 54.4506 9.76342 55.1399 9.74829C55.5828 9.73922 56.0268 9.77754 56.4708 9.79367L56.4698 9.79468ZM11.4542 0.281128C11.4583 0.91644 11.5688 1.51142 11.7999 2.08219C12.5763 4.00124 14.4647 5.28699 16.5457 5.3122C17.2461 5.32026 17.9476 5.31421 18.648 5.31522C18.6967 5.31522 18.7463 5.31522 18.8011 5.31522C18.8041 5.36363 18.8071 5.39489 18.8071 5.42615C18.8071 6.02718 18.795 6.62719 18.8122 7.22721C18.8224 7.59125 18.8467 7.96236 18.9217 8.31733C19.1812 9.53753 19.84 10.5127 20.8334 11.265C21.7264 11.9406 22.7492 12.2573 23.8581 12.3309C23.9767 12.339 24.0172 12.3027 24.0172 12.1786C24.0142 8.54322 24.0152 4.90782 24.0132 1.27242C24.0132 1.16855 23.999 1.06065 23.9696 0.96182C23.8449 0.539287 23.4668 0.281128 22.9772 0.281128C19.1832 0.281128 15.3882 0.281128 11.5941 0.281128C11.5536 0.281128 11.513 0.281128 11.4542 0.281128ZM36.2751 3.19046C36.2751 3.25701 36.2751 3.30743 36.2751 3.35685C36.2751 7.53781 36.2771 11.7188 36.2721 15.9007C36.2721 16.3495 36.2376 16.7993 36.19 17.246C36.1393 17.723 35.9609 18.1586 35.6619 18.5388C35.1338 19.2114 34.3847 19.4242 33.5809 19.4746C33.1541 19.5018 32.7203 19.4565 32.2925 19.4222C31.8263 19.3849 31.3701 19.285 30.9262 19.1358C30.7985 19.0924 30.6697 19.0511 30.5369 19.0077C30.5319 19.037 30.5278 19.0511 30.5278 19.0642C30.5278 19.8387 30.5298 20.6141 30.5248 21.3886C30.5248 21.4854 30.5765 21.4996 30.6444 21.5207C31.4827 21.79 32.3412 21.9372 33.221 21.9574C33.8414 21.9715 34.4617 21.9695 35.074 21.8414C36.7343 21.4945 37.8665 20.5375 38.4666 18.9563C38.8173 18.0305 38.9177 17.0655 38.9197 16.0883C38.9258 11.8388 38.9217 7.58823 38.9217 3.33869C38.9217 3.29029 38.9217 3.24289 38.9217 3.19046H36.2751ZM44.9893 21.8344V7.64369H42.4644V21.8344H44.9893ZM43.771 2.20623C43.7061 2.20623 43.6422 2.2032 43.5773 2.20623C42.9428 2.23547 42.4502 2.50674 42.1684 3.08255C41.9008 3.62811 41.9109 4.19082 42.1724 4.74042C42.3326 5.07622 42.5972 5.31119 42.9438 5.45237C43.4324 5.65305 43.9301 5.66616 44.4288 5.50279C44.961 5.32833 45.3208 4.97236 45.4556 4.42881C45.5093 4.212 45.5114 3.97804 45.5103 3.75215C45.5073 3.136 45.2296 2.67212 44.6792 2.38472C44.3974 2.23749 44.0923 2.17396 43.771 2.20623Z" fill="#394F71"/>
<path d="M70.857 21.8485C70.1282 21.8465 69.4004 21.8435 68.6716 21.8415C68.5702 21.8415 68.4699 21.8415 68.3503 21.8415V19.3204C68.2195 19.5352 68.1171 19.7167 68.0006 19.8891C67.2251 21.0357 66.1355 21.7023 64.7884 21.9917C64.1457 22.1299 63.494 22.1702 62.8483 22.1158C61.2275 21.9786 59.8945 21.2898 58.9316 19.9567C58.2717 19.0441 57.8936 18.0145 57.6929 16.9183C57.6128 16.4796 57.5571 16.0349 57.5277 15.5902C57.4943 15.1031 57.4689 14.611 57.5014 14.1249C57.5926 12.7323 57.8977 11.3921 58.6204 10.1729C59.4749 8.73083 60.7115 7.80812 62.3698 7.4713C62.9993 7.34323 63.6369 7.31701 64.2775 7.37449C65.2871 7.46525 66.2166 7.7698 67.0184 8.40612C67.5789 8.85084 68.0036 9.40346 68.3138 10.0448C68.3189 10.0539 68.3249 10.063 68.33 10.071C68.3351 10.066 68.3402 10.061 68.3462 10.0559V7.63265H68.5003C69.2362 7.63265 69.9721 7.63265 70.708 7.63265C70.7587 7.63265 70.8084 7.62761 70.859 7.62458V21.8475L70.857 21.8485ZM64.0038 19.8942C64.3262 19.8579 64.6515 19.8397 64.9698 19.7822C66.0128 19.5937 66.8795 19.1066 67.5009 18.2343C68.0685 17.4366 68.2824 16.527 68.3077 15.57C68.3239 14.9488 68.2925 14.3266 68.2854 13.7044C68.2803 13.2748 68.2063 12.8553 68.0898 12.4439C67.588 10.6852 66.2885 9.75842 64.6414 9.66262C64.2339 9.63842 63.8183 9.66867 63.4119 9.7201C62.5391 9.83103 61.7829 10.1931 61.1869 10.8506C60.447 11.6674 60.1632 12.6728 60.0486 13.7296C59.9706 14.4466 59.9766 15.1707 60.0699 15.8897C60.1388 16.4161 60.2422 16.9344 60.4267 17.4336C60.6852 18.1304 61.0693 18.7395 61.6826 19.1842C62.3739 19.6854 63.1625 19.8629 64.0048 19.8952L64.0038 19.8942Z" fill="#394F71"/>
<path d="M11.4541 0.281128C11.5129 0.281128 11.5534 0.281128 11.594 0.281128C15.388 0.281128 19.1831 0.281128 22.9771 0.281128C23.4667 0.281128 23.8448 0.538278 23.9695 0.96182C23.9988 1.06165 24.013 1.16855 24.013 1.27242C24.0151 4.90782 24.0141 8.54322 24.0171 12.1786C24.0171 12.3027 23.9765 12.339 23.858 12.3309C22.749 12.2573 21.7263 11.9416 20.8333 11.265C19.8399 10.5127 19.181 9.53652 18.9216 8.31733C18.8455 7.96236 18.8222 7.59126 18.8121 7.22721C18.7948 6.62719 18.807 6.02617 18.807 5.42615C18.807 5.39489 18.804 5.36363 18.8009 5.31522C18.7452 5.31522 18.6965 5.31522 18.6479 5.31522C17.9474 5.31522 17.246 5.32027 16.5456 5.3122C14.4646 5.28699 12.5762 4.00023 11.7998 2.08219C11.5686 1.51142 11.4582 0.91644 11.4541 0.281128Z" fill="#394F71"/>
<path d="M36.2748 3.18945H38.9214C38.9214 3.24189 38.9214 3.28929 38.9214 3.33769C38.9214 7.58723 38.9244 11.8378 38.9194 16.0873C38.9183 17.0645 38.818 18.0295 38.4663 18.9553C37.8662 20.5365 36.734 21.4935 35.0736 21.8404C34.4614 21.9685 33.841 21.9705 33.2207 21.9564C32.3409 21.9362 31.4813 21.789 30.644 21.5197C30.5761 21.4986 30.5234 21.4844 30.5244 21.3876C30.5295 20.6131 30.5275 19.8377 30.5275 19.0632C30.5275 19.0501 30.5315 19.037 30.5366 19.0067C30.6684 19.0501 30.7971 19.0914 30.9258 19.1348C31.3698 19.284 31.8259 19.3839 32.2922 19.4212C32.721 19.4555 33.1538 19.5008 33.5805 19.4736C34.3844 19.4232 35.1334 19.2104 35.6615 18.5378C35.9595 18.1576 36.139 17.722 36.1896 17.245C36.2373 16.7982 36.2707 16.3485 36.2717 15.8997C36.2778 11.7188 36.2748 7.53781 36.2748 3.35584C36.2748 3.30643 36.2748 3.25601 36.2748 3.18945Z" fill="#394F71"/>
<path d="M18.2942 14.4749C18.2982 14.5152 18.3064 14.5566 18.3064 14.5969C18.3064 15.6416 18.3064 16.6874 18.3064 17.7321C18.3064 17.9035 18.277 17.9348 18.1178 17.9126C17.763 17.8622 17.4042 17.8279 17.0565 17.7472C15.085 17.2944 13.4987 15.6951 13.1693 13.6964C13.1206 13.4039 13.0983 13.1054 13.0932 12.8089C13.0821 12.1908 13.0902 11.5716 13.0892 10.9524C13.0892 10.9302 13.0861 10.908 13.0831 10.8677H12.9321C12.2864 10.8677 11.6407 10.8728 10.996 10.8677C9.48672 10.8546 8.18318 10.3353 7.13508 9.24817C6.2593 8.34058 5.78898 7.24946 5.74944 5.98387C5.74843 5.94757 5.74944 5.91026 5.75046 5.87396C5.75046 5.86589 5.75755 5.85782 5.76465 5.84169C5.79202 5.83967 5.82242 5.83362 5.85385 5.83362C6.91006 5.83362 7.96525 5.83362 9.02146 5.83362C9.0397 5.83362 9.05795 5.83765 9.07619 5.83866C9.10356 5.879 9.12485 5.92639 9.15931 5.95866C9.3965 6.18052 9.63876 6.39834 9.87697 6.61919C10.1831 6.90256 10.4872 7.18794 10.7913 7.47333C11.293 7.94326 11.7927 8.4152 12.2945 8.88513C12.5854 9.15741 12.8783 9.42767 13.1693 9.70096C13.671 10.1709 14.1717 10.6428 14.6725 11.1128C14.9735 11.3951 15.2756 11.6755 15.5766 11.9578C16.0845 12.4348 16.5923 12.9118 17.0991 13.3898C17.4661 13.7357 17.832 14.0826 18.1999 14.4275C18.2243 14.4507 18.2628 14.4597 18.2942 14.4759V14.4749Z" fill="#394F71"/>
<path d="M56.4693 9.79469C56.0254 9.77755 55.5814 9.73923 55.1384 9.74931C54.4492 9.76444 53.768 9.84915 53.1254 10.1285C52.1837 10.5379 51.6384 11.2599 51.4052 12.2401C51.3008 12.6788 51.2785 13.1245 51.2785 13.5733C51.2785 16.2688 51.2785 18.9644 51.2785 21.6599V21.8334H48.8164V7.6437H51.2785V10.0468L51.3089 10.0569C51.3322 10.0165 51.3556 9.97621 51.3779 9.93587C51.9283 8.94559 52.6925 8.18826 53.767 7.77178C54.3955 7.52874 55.0513 7.41782 55.7233 7.40471C55.9757 7.39966 56.2281 7.40471 56.4896 7.40471V9.77049C56.4825 9.77856 56.4754 9.78662 56.4683 9.79469H56.4693ZM51.2826 10.0952C51.2826 10.0952 51.2897 10.0892 51.2897 10.0861C51.2897 10.0831 51.2856 10.0801 51.2826 10.0771C51.2795 10.0801 51.2755 10.0831 51.2755 10.0861C51.2755 10.0892 51.2795 10.0922 51.2826 10.0952Z" fill="#394F71"/>
<path d="M12.5844 21.0226V23.462C12.3006 23.4358 12.0209 23.4277 11.7472 23.3813C10.396 23.1554 9.281 22.5181 8.4336 21.4431C7.75954 20.588 7.40172 19.6118 7.38551 18.5207C7.37638 17.8884 7.38246 17.2551 7.38145 16.6228C7.38145 16.5734 7.38145 16.523 7.38145 16.4584C7.32469 16.4554 7.27603 16.4504 7.22738 16.4504C6.58169 16.4504 5.93601 16.4554 5.29134 16.4483C3.70804 16.4322 2.36092 15.8685 1.29559 14.6927C0.564756 13.8849 0.147138 12.9329 0.0518564 11.8469C0.0396927 11.7107 0.0325973 11.5746 0.0224609 11.4284C0.0701018 11.4233 0.105579 11.4163 0.140043 11.4163C1.0442 11.4163 1.94735 11.4163 2.85152 11.4163C2.87888 11.4163 2.90625 11.4203 2.93362 11.4223C2.96099 11.4717 2.97822 11.5322 3.01775 11.5705C6.14887 14.6866 9.281 17.8017 12.4152 20.9147C12.4618 20.9611 12.5287 20.9873 12.5855 21.0226H12.5844Z" fill="#394F71"/>
<path d="M44.9898 21.8343H42.4648V7.64368H44.9898V21.8343Z" fill="#394F71"/>
<path d="M12.5845 21.0226C12.5267 20.9873 12.4608 20.9611 12.4142 20.9147C9.28 17.8017 6.14787 14.6867 3.01675 11.5706C2.97823 11.5323 2.961 11.4728 2.93262 11.4224C3.71616 11.4224 4.50071 11.4224 5.28425 11.4224C5.31162 11.4627 5.33291 11.5101 5.36737 11.5434C5.50928 11.6805 5.65828 11.8086 5.79816 11.9478C8.01093 14.1461 10.2217 16.3455 12.4344 18.5439C12.478 18.5873 12.5338 18.6195 12.5845 18.6569C12.5845 19.4454 12.5845 20.234 12.5845 21.0226Z" fill="#394F71"/>
<path d="M18.2942 14.4749C18.2627 14.4587 18.2252 14.4497 18.1999 14.4265C17.832 14.0816 17.466 13.7347 17.0991 13.3888C16.5923 12.9108 16.0844 12.4338 15.5766 11.9568C15.2756 11.6745 14.9735 11.3941 14.6725 11.1117C14.1707 10.6418 13.671 10.1699 13.1692 9.69994C12.8783 9.42766 12.5854 9.15741 12.2945 8.88412C11.7927 8.41419 11.292 7.94224 10.7912 7.47231C10.4872 7.18693 10.1831 6.90154 9.87694 6.61817C9.63874 6.39733 9.39749 6.1795 9.15929 5.95765C9.12483 5.92538 9.10354 5.87798 9.07617 5.83765C9.82322 5.83765 10.5703 5.83765 11.3173 5.83765C11.3416 5.87496 11.3599 5.91832 11.3913 5.94857C11.5231 6.07564 11.6599 6.19766 11.7937 6.32371C12.2823 6.78154 12.7699 7.23937 13.2584 7.69719C13.5625 7.98258 13.8676 8.26595 14.1727 8.55134C14.6613 9.00917 15.1489 9.46699 15.6374 9.92482C15.9517 10.2193 16.2669 10.5127 16.5811 10.8082C16.9876 11.1924 17.393 11.5786 17.7985 11.9629C17.9353 12.0919 18.0732 12.219 18.2121 12.3451C18.2344 12.3652 18.2678 12.3713 18.2962 12.3834C18.3003 12.456 18.3073 12.5286 18.3084 12.6002C18.3084 13.17 18.3084 13.7407 18.3084 14.3105C18.3084 14.3649 18.3013 14.4194 18.2972 14.4729L18.2942 14.4749Z" fill="#394F71"/>
<path d="M12.5844 18.6569C12.5337 18.6195 12.479 18.5873 12.4344 18.5439C10.2216 16.3455 8.01086 14.1461 5.79809 11.9478C5.65821 11.8086 5.50921 11.6805 5.3673 11.5434C5.33283 11.5101 5.31155 11.4637 5.28418 11.4224C6.04947 11.4224 6.81477 11.4224 7.58006 11.4224C7.60439 11.4688 7.61858 11.5252 7.65406 11.5605C9.24952 13.1498 10.847 14.7381 12.4455 16.3254C12.481 16.3607 12.5367 16.3758 12.5834 16.401C12.5834 17.1533 12.5834 17.9046 12.5834 18.6569H12.5844Z" fill="#394F71"/>
<path d="M18.2943 12.3844C18.2659 12.3723 18.2315 12.3652 18.2102 12.346C18.0703 12.22 17.9324 12.0929 17.7966 11.9638C17.3901 11.5796 16.9857 11.1934 16.5792 10.8092C16.266 10.5137 15.9508 10.2203 15.6355 9.9258C15.147 9.46797 14.6594 9.01014 14.1708 8.55231C13.8667 8.26693 13.5616 7.98356 13.2565 7.69817C12.768 7.24034 12.2804 6.78252 11.7918 6.32469C11.658 6.19964 11.5212 6.07661 11.3894 5.94955C11.358 5.9193 11.3398 5.87594 11.3154 5.83862C12.0067 5.83862 12.699 5.83862 13.3903 5.83862C13.4116 5.88199 13.4228 5.93543 13.4552 5.96669C13.8171 6.30452 14.183 6.63629 14.5459 6.97311C14.855 7.2595 15.1622 7.54792 15.4703 7.83633C15.9619 8.29718 16.4535 8.75703 16.9441 9.21889C17.2148 9.47402 17.4793 9.7342 17.749 9.99034C17.8848 10.1194 18.0216 10.2485 18.1635 10.3725C18.198 10.4028 18.2507 10.4119 18.2943 10.431C18.2984 10.5762 18.3055 10.7215 18.3055 10.8667C18.3034 11.3719 18.2984 11.8781 18.2943 12.3833V12.3844Z" fill="#394F71"/>
<path d="M43.772 2.20525C44.0933 2.17398 44.3984 2.23651 44.6802 2.38374C45.2306 2.67114 45.5084 3.13502 45.5114 3.75117C45.5124 3.97706 45.5114 4.21102 45.4567 4.42783C45.3219 4.97137 44.962 5.32735 44.4299 5.50181C43.9312 5.66518 43.4335 5.65106 42.9449 5.45139C42.5982 5.3092 42.3337 5.07424 42.1735 4.73944C41.911 4.18984 41.9019 3.62814 42.1695 3.08157C42.4512 2.50677 42.9439 2.2355 43.5784 2.20525C43.6433 2.20222 43.7071 2.20525 43.772 2.20525Z" fill="#394F71"/>
<path d="M12.5844 16.401C12.5377 16.3768 12.482 16.3607 12.4465 16.3254C10.848 14.7391 9.25051 13.1508 7.65505 11.5605C7.61957 11.5252 7.60538 11.4688 7.58105 11.4224C8.25411 11.4224 8.92716 11.4224 9.60123 11.4224C9.6286 11.4627 9.64988 11.5091 9.68435 11.5434C10.6098 12.4661 11.5373 13.3878 12.4647 14.3085C12.4992 14.3428 12.5448 14.365 12.5854 14.3922V16.4L12.5844 16.401Z" fill="#394F71"/>
<path d="M18.2936 10.431C18.249 10.4119 18.1973 10.4028 18.1629 10.3725C18.022 10.2485 17.8851 10.1204 17.7483 9.99034C17.4797 9.7342 17.2141 9.47402 16.9435 9.21889C16.4539 8.75703 15.9612 8.29617 15.4696 7.83633C15.1625 7.54792 14.8554 7.2595 14.5452 6.97311C14.1823 6.6373 13.8164 6.30452 13.4545 5.96669C13.4221 5.93644 13.4109 5.88199 13.3896 5.83862C14.0262 5.83862 14.6628 5.83862 15.2983 5.83862C15.3257 5.87896 15.347 5.92535 15.3814 5.95863C15.5163 6.08871 15.6561 6.21477 15.793 6.34284C16.1102 6.63932 16.4285 6.9358 16.7448 7.23429C17.1705 7.63666 17.5932 8.04306 18.0199 8.44441C18.101 8.52004 18.2004 8.57753 18.2916 8.64307C18.2956 8.87501 18.3027 9.10695 18.3017 9.33889C18.3017 9.70294 18.2946 10.067 18.2916 10.431H18.2936Z" fill="#394F71"/>
<path d="M12.5847 14.3932C12.5442 14.3649 12.4986 14.3427 12.4641 14.3095C11.5366 13.3888 10.6092 12.467 9.6837 11.5443C9.64924 11.51 9.62795 11.4647 9.60059 11.4233C10.297 11.4233 10.9933 11.4092 11.6887 11.4253C12.1631 11.4364 12.5786 11.863 12.5847 12.3299C12.5949 13.0177 12.5847 13.7054 12.5847 14.3932Z" fill="#394F71"/>
<path d="M18.294 8.64304C18.2028 8.57749 18.1035 8.52102 18.0224 8.44438C17.5946 8.04403 17.173 7.63763 16.7472 7.23426C16.431 6.93576 16.1127 6.63928 15.7954 6.3428C15.6586 6.21473 15.5187 6.08868 15.3839 5.95859C15.3494 5.92531 15.3281 5.87892 15.3008 5.83859C15.9971 5.83859 16.6925 5.82649 17.3889 5.8396C17.8491 5.84766 18.2707 6.23692 18.288 6.69172C18.3123 7.34115 18.294 7.9926 18.2951 8.64203L18.294 8.64304Z" fill="#394F71"/>
<path d="M68.344 10.058C68.3389 10.063 68.3338 10.0681 68.3277 10.0731C68.3227 10.064 68.3166 10.0549 68.3115 10.0469C68.3227 10.0509 68.3328 10.0549 68.344 10.059V10.058Z" fill="#394F71"/>
<path d="M51.2825 10.0942C51.2825 10.0942 51.2754 10.0882 51.2754 10.0851C51.2754 10.0821 51.2805 10.0791 51.2825 10.076C51.2845 10.0791 51.2896 10.0821 51.2896 10.0851C51.2896 10.0882 51.2845 10.0912 51.2825 10.0942Z" fill="#394F71"/>
</g>
<defs>
<clipPath id="clip0_222_13389">
<rect width="70.8571" height="24" fill="white"/>
</clipPath>
</defs>
</svg>
