<svg width="87" height="26" viewBox="0 0 87 26" fill="none" xmlns="http://www.w3.org/2000/svg">
<g clip-path="url(#clip0_246_3881)">
<path d="M44.809 9.16457C48.7506 9.16457 51.5562 12.1667 51.5562 15.9792C51.5562 19.8532 48.7207 22.787 44.809 22.787C40.8956 22.787 38.0617 19.8816 38.0617 15.9792C38.0617 12.1391 40.8864 9.16457 44.809 9.16457ZM58.9763 9.16457C62.9179 9.16457 65.7236 12.1667 65.7236 15.9792C65.7236 19.8532 62.8866 22.787 58.9763 22.787C55.0629 22.787 52.2291 19.8816 52.2291 15.9792C52.2291 12.1391 55.0538 9.16457 58.9763 9.16457ZM81.7702 9.17771C84.1468 9.17771 86.4192 10.6166 86.4192 14.0692V22.4141H83.0499V14.776C83.0499 13.3893 82.3701 12.3433 80.7768 12.3433C79.2876 12.3433 78.3993 13.4944 78.3993 14.8812V22.4149H74.9525V14.776C74.9525 13.3893 74.2474 12.3433 72.6794 12.3433C71.1642 12.3433 70.2757 13.4683 70.2757 14.8812V22.4149H66.8028V9.54377H70.1201V11.1139C70.8251 9.85841 72.4713 9.17771 73.8814 9.17771C75.6322 9.17771 77.0422 9.93668 77.695 11.3226C78.7131 9.7525 80.0725 9.17771 81.7702 9.17771ZM36.9586 3.47498V22.4141H33.4849V3.47498H36.9586ZM58.9763 12.2711C56.9349 12.2711 55.274 13.9348 55.274 15.9784C55.274 18.0221 56.9349 19.6859 58.9763 19.6859C61.0177 19.6859 62.6787 18.0221 62.6787 15.9784C62.6779 13.9348 61.017 12.2711 58.9763 12.2711ZM44.809 12.3148C42.7906 12.3148 41.1488 13.9586 41.1488 15.98C41.1488 18.0014 42.7906 19.6452 44.809 19.6452C46.8274 19.6452 48.4684 18.0014 48.4684 15.98C48.4684 13.9586 46.8274 12.3148 44.809 12.3148Z" fill="#394F71"/>
<path d="M26.4834 11.5052H18.9203L25.4703 7.71985L24.0319 5.22529L17.4819 9.01061L21.2627 2.45474L18.7705 1.01406L14.9898 7.56992V0H12.1128V7.57064L8.33053 1.01406L5.83918 2.45401L9.62069 9.00989L3.07069 5.22529L1.63218 7.71913L8.18219 11.5045H0.619141V14.3844H8.18146L1.63218 18.1697L3.07069 20.6643L9.61997 16.8797L5.83845 23.4355L8.33053 24.8755L12.112 18.3189V25.8895H14.9891V18.3196L18.7699 24.8755L21.2619 23.4355L17.4804 16.879L24.0304 20.6643L25.469 18.1697L18.9196 14.3851H26.4819V11.5052H26.4834ZM13.5513 16.8615C11.3819 16.8615 9.62358 15.1015 9.62358 12.9299C9.62358 10.7584 11.3819 8.99829 13.5513 8.99829C15.7206 8.99829 17.4789 10.7584 17.4789 12.9299C17.4789 15.1015 15.7206 16.8615 13.5513 16.8615Z" fill="#394F71"/>
</g>
<defs>
<clipPath id="clip0_246_3881">
<rect width="85.8" height="26" fill="white" transform="translate(0.619141)"/>
</clipPath>
</defs>
</svg>
