<svg width="90" height="32" viewBox="0 0 90 32" fill="none" xmlns="http://www.w3.org/2000/svg">
<g clip-path="url(#clip0_222_13523)">
<path d="M40.8826 21.8453V13.376H41.0323L47.151 21.8453H49.0765V9.40801H46.9371V17.856H46.7873L40.6686 9.40801H38.7432V21.8453H40.8826ZM55.131 22.0373C57.955 22.0373 59.688 20.2027 59.688 17.1307C59.688 14.08 57.955 12.224 55.131 12.224C52.3284 12.224 50.5741 14.08 50.5741 17.1307C50.5955 20.2027 52.307 22.0373 55.131 22.0373ZM55.131 20.2453C53.6334 20.2453 52.7777 19.1147 52.7777 17.1307C52.7777 15.168 53.6334 14.016 55.131 14.016C56.6286 14.016 57.4844 15.168 57.4844 17.1307C57.4844 19.1147 56.6286 20.2453 55.131 20.2453ZM61.6348 10.112V12.48H60.1372V14.1867H61.6348V19.328C61.6348 21.1627 62.4906 21.888 64.6728 21.888C65.0793 21.888 65.4857 21.8453 65.8067 21.7813V20.1173C65.5499 20.1387 65.3788 20.16 65.0793 20.16C64.1807 20.16 63.7742 19.7547 63.7742 18.816V14.1867H65.8067V12.48H63.7742V10.112H61.6348ZM67.0903 21.8453H69.2297V12.416H67.0903V21.8453ZM68.16 10.8587C68.866 10.8587 69.4436 10.2827 69.4436 9.57868C69.4436 8.85334 68.866 8.27734 68.16 8.27734C67.454 8.27734 66.8764 8.85334 66.8764 9.57868C66.8764 10.2827 67.454 10.8587 68.16 10.8587ZM75.0917 22.0373C77.9157 22.0373 79.6486 20.2027 79.6486 17.1307C79.6486 14.08 77.9157 12.224 75.0917 12.224C72.2891 12.224 70.5347 14.08 70.5347 17.1307C70.5347 20.2027 72.2463 22.0373 75.0917 22.0373ZM75.0917 20.2453C73.5941 20.2453 72.7383 19.1147 72.7383 17.1307C72.7383 15.168 73.5941 14.016 75.0917 14.016C76.5679 14.016 77.445 15.168 77.445 17.1307C77.4236 19.1147 76.5679 20.2453 75.0917 20.2453ZM80.9109 21.8453H83.0503V16.3627C83.0503 14.976 83.8632 14.1013 85.1255 14.1013C86.4305 14.1013 87.0296 14.8267 87.0296 16.256V21.8453H89.169V15.744C89.169 13.4827 88.0137 12.224 85.9171 12.224C84.5051 12.224 83.5637 12.864 83.1145 13.9307H82.9647V12.416H80.8895C80.9109 12.416 80.9109 21.8453 80.9109 21.8453Z" fill="#394F71"/>
<path fill-rule="evenodd" clip-rule="evenodd" d="M5.96775 5.56806C6.97327 6.37873 7.33697 6.31472 9.21964 6.18672L26.9553 5.12006C27.3404 5.12006 27.0195 4.73606 26.8911 4.69339L23.9388 2.58139C23.3825 2.15472 22.6123 1.64272 21.1789 1.77072L4.02089 3.02939C3.40046 3.09339 3.27209 3.41339 3.52882 3.64806L5.96775 5.56806ZM7.03745 9.68539V28.2881C7.03745 29.2907 7.52952 29.6534 8.6634 29.5894L28.1534 28.4587C29.2873 28.3947 29.4156 27.7121 29.4156 26.9014V8.42672C29.4156 7.61606 29.0947 7.16806 28.4101 7.23206L8.04297 8.42672C7.29418 8.49072 7.03745 8.87472 7.03745 9.68539ZM26.2707 10.6881C26.3991 11.2427 26.2707 11.8187 25.7145 11.8827L24.7731 12.0747V25.8134C23.9602 26.2401 23.2114 26.4961 22.5695 26.4961C21.564 26.4961 21.3073 26.1761 20.5585 25.2374L14.4184 15.6161V24.9174L16.3653 25.3441C16.3653 25.3441 16.3653 26.4747 14.8035 26.4747L10.4819 26.7307C10.3535 26.4747 10.4819 25.8561 10.9098 25.7281L12.0437 25.4081V13.1201L10.4819 12.9921C10.3535 12.4374 10.6744 11.6267 11.5516 11.5627L16.1941 11.2427L22.5909 20.9707V12.3734L20.965 12.1814C20.8366 11.4987 21.3501 10.9867 21.9705 10.9227L26.2707 10.6881ZM2.58748 1.32272L20.4515 0.0213898C22.6337 -0.17061 23.2114 -0.0426098 24.5806 0.960057L30.2714 4.94939C31.2127 5.63206 31.5337 5.82406 31.5337 6.57072V28.4801C31.5337 29.8454 31.0416 30.6561 29.2873 30.7841L8.55643 32.0427C7.23 32.1067 6.60957 31.9147 5.92496 31.0401L1.71033 25.6001C0.961536 24.5974 0.640625 23.8507 0.640625 22.9761V3.49872C0.640625 2.36806 1.15408 1.45072 2.58748 1.32272Z" fill="#394F71"/>
</g>
<defs>
<clipPath id="clip0_222_13523">
<rect width="88.5714" height="32" fill="white" transform="translate(0.619141)"/>
</clipPath>
</defs>
</svg>
