<svg width="87" height="22" viewBox="0 0 87 22" fill="none" xmlns="http://www.w3.org/2000/svg">
<g clip-path="url(#clip0_222_13381)">
<path fill-rule="evenodd" clip-rule="evenodd" d="M27.8408 17.3225L28.9194 14.8011C30.0845 15.6775 31.6368 16.1331 33.1683 16.1331C34.2988 16.1331 35.0144 15.6949 35.0144 15.0307C34.9971 13.1736 28.2419 14.6273 28.19 9.9706C28.1727 7.60576 30.2608 5.78344 33.2201 5.78344C34.9798 5.78344 36.736 6.22163 37.991 7.21973L36.9815 9.79324C35.8337 9.05596 34.4059 8.53083 33.0473 8.53083C32.1242 8.53083 31.5158 8.96902 31.5158 9.52893C31.533 11.3513 38.3402 10.3531 38.4093 14.8011C38.4093 17.2182 36.373 18.9188 33.4483 18.9188C31.3049 18.9153 29.3378 18.4075 27.8408 17.3225ZM69.2609 13.89C68.7215 14.8359 67.712 15.4828 66.5435 15.4828C64.8184 15.4828 63.4286 14.0813 63.4286 12.3494C63.4286 10.6175 64.8219 9.21594 66.5435 9.21594C67.7086 9.21594 68.7215 9.86279 69.2609 10.8087L72.2374 9.14638C71.1242 7.15018 68.9808 5.78344 66.5435 5.78344C62.9377 5.78344 60.013 8.72558 60.013 12.3528C60.013 15.9801 62.9377 18.9222 66.5435 18.9222C68.9981 18.9222 71.1242 17.5729 72.2374 15.5593L69.2609 13.89ZM39.9063 0.333862H43.633V18.6718H39.9063V0.333862ZM73.6998 0.333862V18.6718H77.4266V13.1701L81.8483 18.6718H86.6192L80.9944 12.1372L86.2008 6.04079H81.6374L77.4232 11.1009V0.333862H73.6998Z" fill="#394F71"/>
<path d="M54.706 13.9247C54.1667 14.8185 53.0535 15.4827 51.7985 15.4827C50.0734 15.4827 48.6836 14.0812 48.6836 12.3493C48.6836 10.6174 50.0769 9.21589 51.7985 9.21589C53.0535 9.21589 54.1667 9.91491 54.706 10.8261V13.9247ZM54.706 6.04421V7.53267C54.0975 6.49979 52.5833 5.77991 50.9965 5.77991C47.7225 5.77991 45.147 8.68727 45.147 12.3319C45.147 15.9766 47.7225 18.9187 50.9965 18.9187C52.5798 18.9187 54.0941 18.2023 54.706 17.1659V18.6544H58.4328V6.04421H54.706Z" fill="#394F71"/>
<path fill-rule="evenodd" clip-rule="evenodd" d="M4.80601 13.9074C4.80601 15.1872 3.77924 16.2201 2.50701 16.2201C1.23478 16.2201 0.208008 15.1837 0.208008 13.9074C0.208008 12.6311 1.23478 11.5947 2.50701 11.5947H4.80601V13.9074ZM5.95378 13.9074C5.95378 12.6276 6.98055 11.5947 8.25278 11.5947C9.52501 11.5947 10.5518 12.6276 10.5518 13.9074V19.6874C10.5518 20.9672 9.52501 22 8.25278 22C6.98055 22 5.95378 20.9672 5.95378 19.6874V13.9074Z" fill="#394F71"/>
<path fill-rule="evenodd" clip-rule="evenodd" d="M8.25249 4.62536C6.98026 4.62536 5.95349 3.59248 5.95349 2.31268C5.95349 1.03288 6.98026 0 8.25249 0C9.52472 0 10.5515 1.03288 10.5515 2.31268V4.62536H8.25249ZM8.25249 5.79734C9.52472 5.79734 10.5515 6.83022 10.5515 8.11002C10.5515 9.38982 9.52472 10.4227 8.25249 10.4227H2.48943C1.2172 10.4227 0.19043 9.38634 0.19043 8.11002C0.19043 6.8337 1.2172 5.79734 2.48943 5.79734H8.25249Z" fill="#394F71"/>
<path fill-rule="evenodd" clip-rule="evenodd" d="M17.4626 8.11002C17.4626 6.83022 18.4893 5.79734 19.7616 5.79734C21.0338 5.79734 22.0606 6.83022 22.0606 8.11002C22.0606 9.38982 21.0338 10.4227 19.7616 10.4227H17.4626V8.11002ZM16.3148 8.11002C16.3148 9.38982 15.288 10.4227 14.0158 10.4227C12.7436 10.4227 11.7168 9.38982 11.7168 8.11002V2.31268C11.7168 1.03288 12.7436 0 14.0158 0C15.288 0 16.3148 1.03288 16.3148 2.31268V8.11002Z" fill="#394F71"/>
<path fill-rule="evenodd" clip-rule="evenodd" d="M14.0158 17.3747C15.288 17.3747 16.3148 18.4076 16.3148 19.6874C16.3148 20.9672 15.288 22 14.0158 22C12.7436 22 11.7168 20.9672 11.7168 19.6874V17.3747H14.0158ZM14.0158 16.2201C12.7436 16.2201 11.7168 15.1872 11.7168 13.9074C11.7168 12.6276 12.7436 11.5947 14.0158 11.5947H19.7789C21.0511 11.5947 22.0779 12.6276 22.0779 13.9074C22.0779 15.1872 21.0511 16.2201 19.7789 16.2201H14.0158Z" fill="#394F71"/>
</g>
<defs>
<clipPath id="clip0_222_13381">
<rect width="86.4286" height="22" fill="white" transform="translate(0.19043)"/>
</clipPath>
</defs>
</svg>
