<svg width="65" height="24" viewBox="0 0 65 24" fill="none" xmlns="http://www.w3.org/2000/svg">
<g clip-path="url(#clip0_222_13410)">
<path d="M46.4657 0C46.4955 0.0417391 46.5253 0.0834783 46.5552 0.125217C46.5341 0.26087 46.6341 0.281739 46.7287 0.328696C46.9093 0.417391 47.097 0.506087 47.2495 0.633044C47.4775 0.82087 47.6546 1.05217 47.7124 1.35826C47.7264 1.43304 47.8439 1.4887 47.9123 1.55304C47.9088 1.75478 47.9053 1.95652 47.9 2.15826C47.8316 2.23478 47.7142 2.30609 47.7019 2.3913C47.6651 2.65913 47.4967 2.84 47.3179 3.00348C47.0882 3.21565 46.8445 3.43304 46.5061 3.45044C46.2027 3.46435 45.8976 3.45565 45.5925 3.45044C45.5241 3.45044 45.4505 3.4313 45.3891 3.4C45.2313 3.31652 45.084 3.21739 44.9262 3.13565C44.8964 3.12 44.8421 3.1513 44.7982 3.16C44.0285 2.47826 43.9864 1.35826 44.7123 0.589565C44.9929 0.293913 45.3365 0.16 45.7205 0.0817391C45.7398 0.0782609 45.7503 0.0278261 45.7644 0C45.9976 0 46.2308 0 46.464 0L46.4657 0Z" fill="#394F71"/>
<path d="M60.9328 19.5461C61.0976 19.1652 61.294 18.7948 61.4167 18.4C61.5202 18.0696 61.5447 17.7131 61.5886 17.367C61.6201 17.1096 61.6271 16.8487 61.6447 16.5879L61.5886 16.5565C61.5044 16.6383 61.4185 16.7218 61.3343 16.8035C61.2309 16.6905 61.1572 16.7722 61.0818 16.8418C60.8135 17.0922 60.5575 17.3583 60.2717 17.5879C60.0613 17.7565 59.7966 17.8592 59.5826 18.0261C59.139 18.3722 58.5849 18.4383 58.0852 18.6418C57.9292 18.7061 57.7468 18.7026 57.5855 18.7565C57.5224 18.7774 57.4873 18.8748 57.4399 18.9374C57.3383 18.9531 57.2348 18.9687 57.1331 18.9844C57.1471 18.8679 57.105 18.8174 56.977 18.8174C56.4686 18.8226 55.9601 18.8174 55.4533 18.8244C55.4007 18.8244 55.3499 18.9009 55.299 18.9409C54.9922 18.8835 54.6853 18.8261 54.3802 18.7687C54.3469 18.7113 54.3276 18.6279 54.2785 18.6035C54.0593 18.4939 53.8261 18.4122 53.6087 18.3009C53.1984 18.0922 52.7951 17.8661 52.3866 17.6539C52.3007 17.6087 52.2042 17.5096 52.1095 17.6487C51.0224 16.8365 50.2947 15.7687 49.8248 14.52C49.5688 13.8383 49.3952 13.1374 49.3952 12.4018C49.3952 12.1026 49.3461 11.8035 49.3584 11.5044C49.3847 10.8279 49.5215 10.1652 49.7564 9.5322C49.9142 9.10785 50.1247 8.7009 50.3105 8.28698C50.4262 8.20177 50.57 8.13568 50.6524 8.02611C50.8874 7.71481 51.054 7.3409 51.3275 7.07133C51.7045 6.69916 52.1341 6.36524 52.583 6.08003C52.981 5.82785 53.4001 5.57742 53.891 5.51655C53.9173 5.51307 53.9384 5.4835 53.9629 5.47307C54.0734 5.43133 54.1821 5.36872 54.2961 5.35655C54.6082 5.32177 54.8344 5.1322 55.0798 4.97046C55.2376 4.93916 55.3937 4.89568 55.5533 4.87829C56.2318 4.8035 56.9087 4.81046 57.5785 4.96177C57.7661 5.0035 57.9537 5.04524 58.1413 5.08872C58.1887 5.16177 58.2185 5.26611 58.2851 5.29916C58.4675 5.38959 58.6621 5.46785 58.8602 5.51655C59.3845 5.64698 59.8369 5.91307 60.2314 6.25742C60.3822 6.38959 60.5207 6.4035 60.6838 6.42959C60.9258 6.66959 61.1677 6.90785 61.408 7.14785C61.4763 7.21742 61.5359 7.29394 61.6464 7.4209V5.86959C61.6885 5.77916 61.7429 5.69394 61.7709 5.60003C61.8165 5.44003 61.8779 5.3409 62.0813 5.34785C62.5529 5.3635 63.0264 5.36524 63.498 5.34785C63.7488 5.33742 63.982 5.34959 64.1994 5.48177C64.2029 5.69046 64.2082 5.89742 64.2082 6.10611C64.2082 9.64872 64.2082 13.1913 64.2082 16.7357C64.2082 16.9426 64.1836 17.1479 64.1696 17.3548C64.0995 17.4783 63.9697 17.6035 63.9697 17.727C63.9662 18.2922 63.8031 18.8209 63.6418 19.3513C63.6085 19.4574 63.598 19.5339 63.7347 19.5548C63.6786 19.687 63.6243 19.8192 63.5682 19.9513C63.5243 19.96 63.456 19.9548 63.4419 19.9809C63.349 20.1374 63.2841 20.3113 63.1824 20.4592C62.986 20.7461 62.7581 21.0122 62.5652 21.3009C62.2023 21.8452 61.6797 22.2192 61.1572 22.5861C60.8854 22.7774 60.5768 22.927 60.263 23.0452C59.8071 23.2157 59.3301 23.3322 58.869 23.4905C58.7322 23.5374 58.6183 23.6487 58.4938 23.7305C57.7293 23.9009 56.9543 23.807 56.1827 23.8279C56.0933 23.8296 56.0021 23.7965 55.9127 23.7809C55.8671 23.727 55.8303 23.6418 55.7742 23.6261C55.5305 23.5565 55.2815 23.5096 55.0343 23.4487C54.9063 23.4174 54.7853 23.3565 54.6573 23.3374C54.5363 23.3183 54.3925 23.2348 54.2961 23.3948C54.2803 23.3948 54.2663 23.3931 54.2505 23.3913C54.2329 23.3809 54.2172 23.3705 54.1996 23.3618L54.2031 23.3652C54.1821 23.2122 54.1067 23.1879 53.9857 23.2783C53.5053 23.1461 53.095 22.88 52.6829 22.6139C51.4976 21.8522 50.798 20.7287 50.2755 19.4713C50.2492 19.4087 50.2246 19.3461 50.1913 19.2661H52.5461C52.5619 19.3026 52.5689 19.3635 52.5952 19.3739C52.8267 19.4679 52.9512 19.6557 53.0915 19.8487C53.2808 20.1079 53.5105 20.3444 53.7507 20.56C53.9436 20.7322 54.1681 20.8783 54.3978 21.0035C54.6766 21.1565 54.9641 21.3148 55.2675 21.4C55.6672 21.5113 56.0846 21.5618 56.4966 21.6192C56.572 21.6296 56.6597 21.5479 56.7421 21.5079C56.9595 21.5044 57.1787 21.5009 57.3961 21.4974C57.4698 21.527 57.5434 21.5792 57.6206 21.5844C58.1939 21.6331 58.7392 21.5165 59.2355 21.2365C59.5528 21.0557 59.8474 20.8348 60.142 20.6174C60.1893 20.5826 60.1841 20.4748 60.2016 20.4018C60.2051 20.3948 60.2121 20.3896 60.2191 20.3879C60.3524 20.3218 60.5155 20.2835 60.6137 20.1844C60.782 20.0122 61.1046 19.8957 60.9363 19.5513L60.9328 19.5461ZM52.9354 15.0226C52.9477 15.0557 52.9512 15.0957 52.974 15.12C53.2493 15.4122 53.4912 15.7409 53.8682 15.9305C54.0366 16.0157 54.1698 16.1652 54.3381 16.2505C54.6467 16.407 54.9676 16.5374 55.2832 16.6765C55.4288 16.7409 55.5182 16.6905 55.5585 16.5409C55.6637 16.5548 55.7724 16.5565 55.8759 16.5844C56.6474 16.7844 57.4031 16.6974 58.1606 16.4992C58.7673 16.3409 59.3144 16.0713 59.8158 15.7044C60.6172 15.1165 61.1327 14.3357 61.422 13.3965C61.6131 12.7792 61.5973 12.1479 61.5921 11.5148C61.5886 11.0313 61.4921 10.5618 61.315 10.1148C61.1958 9.81568 61.0345 9.53394 60.8907 9.24351C60.8889 9.01916 60.7872 8.84524 60.6347 8.68003C60.2244 8.23307 59.7685 7.84177 59.2302 7.55133C59.0549 7.45568 58.8813 7.34959 58.6954 7.27829C58.5814 7.23481 58.4219 7.17394 58.357 7.37046C57.568 7.15655 56.7649 7.13742 55.9566 7.21742C55.9145 7.00524 55.7444 7.05916 55.6287 7.09568C55.3341 7.18785 55.0343 7.28177 54.766 7.42611C54.4311 7.60698 54.0488 7.70959 53.77 7.99307C53.6105 8.15481 53.4316 8.29916 53.2668 8.45568C53.2019 8.51655 53.1458 8.58785 53.0932 8.6609C52.8968 8.93568 52.7267 9.22959 52.5058 9.48177C52.2516 9.77394 52.1797 10.1322 52.0639 10.4748C52.0201 10.6087 51.9991 10.7496 51.9675 10.8887C51.9412 11.0052 51.9079 11.1218 51.8886 11.2418C51.8658 11.3722 51.943 11.4052 52.0569 11.3931C52.0569 11.7392 52.0569 12.0835 52.0569 12.4296C51.8781 12.4626 51.9219 12.6052 51.9395 12.7044C52.0324 13.2192 52.1218 13.7357 52.4059 14.1931C52.4637 14.287 52.5251 14.3792 52.5847 14.4713C52.7022 14.6539 52.8214 14.8365 52.9389 15.0192L52.9354 15.0226Z" fill="#394F71"/>
<path d="M40.3054 11.6139C40.244 11.9148 40.1861 12.2157 40.123 12.5183C39.9547 13.3374 39.9196 14.1531 40.2142 14.9565C40.2212 14.9757 40.2177 15 40.2177 15.0209C40.2002 15.0574 40.1774 15.0939 40.1686 15.1322C40.1178 15.3548 40.3106 15.4887 40.4001 15.6418C40.6683 16.0991 41.126 16.3426 41.6204 16.5096C41.659 16.5218 41.7292 16.4452 41.7835 16.4104C42.7321 16.5878 43.6895 16.4644 44.6434 16.5061C44.7591 16.5113 44.7994 16.4661 44.7959 16.3565C44.7906 16.1548 44.7941 15.9548 44.7941 15.7531C44.7941 12.3826 44.7941 9.01045 44.7941 5.64001C44.7941 5.4974 44.7941 5.35306 44.7941 5.18784H47.1648C47.1648 9.76871 47.1648 14.3513 47.1648 18.9322C47.1069 18.9357 47.049 18.9444 46.9912 18.9444C45.3675 18.9444 43.7421 18.9791 42.1202 18.9287C40.9962 18.8939 39.9617 18.5218 39.0745 17.8052C38.189 17.0904 37.7086 16.1357 37.4736 15.0661C37.3351 14.4383 37.3438 13.7844 37.4052 13.1322C37.4859 12.2609 37.7314 11.4331 38.0382 10.6261C38.2749 10 38.6028 9.40697 38.8886 8.79827C38.9219 8.72697 38.9395 8.64697 38.9605 8.5774C38.4695 8.49219 38.0084 8.40871 37.5455 8.33392C37.0686 8.25566 36.5899 8.18784 36.1129 8.11306C36.0358 8.10088 35.9604 8.07479 35.885 8.05566C35.8534 8.01045 35.8306 7.93914 35.7886 7.92523C35.5168 7.84175 35.2555 7.68523 34.9417 7.79479C34.9504 7.83827 34.9592 7.88523 34.968 7.93219C34.9557 7.9374 34.9417 7.94088 34.9276 7.94262C34.726 7.94784 34.7751 8.10958 34.747 8.22436C34.7032 8.40871 34.6716 8.59653 34.6067 8.77392C34.5349 8.97045 34.5594 9.19653 34.6979 9.28001C34.5787 9.90088 34.4612 10.5235 34.342 11.1444C34.2964 11.1687 34.2192 11.1861 34.2087 11.2209C34.1456 11.4365 34.0983 11.6574 34.0474 11.8765C34.0316 11.9444 34.0334 12.0174 34.0176 12.0852C33.972 12.2887 33.9177 12.4922 33.8738 12.6957C33.8475 12.8191 33.83 12.9461 33.8107 13.0713C33.7739 13.3009 33.7335 13.5287 33.6985 13.7583C33.6774 13.8904 33.6774 14.0278 33.6441 14.1583C33.6178 14.2557 33.6318 14.2939 33.7335 14.287C33.6634 14.6574 33.5968 15.0261 33.5231 15.3965C33.5021 15.5026 33.4653 15.607 33.4372 15.7131C33.4039 15.7444 33.3548 15.7722 33.3425 15.8104C33.2514 16.1165 33.1637 16.4244 33.0865 16.7339C33.0444 16.8991 33.0287 17.0696 32.9989 17.2383C32.9848 17.3131 32.9726 17.3896 32.9498 17.4626C32.9164 17.5687 32.8568 17.6713 32.8428 17.7791C32.8165 17.9809 32.8077 18.1878 32.806 18.3913C32.806 18.4331 32.8709 18.4765 32.9059 18.5183C32.8346 18.8012 32.6488 18.9426 32.3483 18.9426C31.7224 18.9426 31.0964 18.9444 30.4704 18.9444C30.4143 18.9444 30.3564 18.9391 30.2793 18.9339C30.3477 18.6157 30.4196 18.3096 30.4792 18.0035C30.6089 17.3357 30.7299 16.6661 30.8597 15.9983C30.9596 15.4765 31.0683 14.9583 31.1718 14.4365C31.3752 13.4122 31.5716 12.3878 31.7785 11.3635C31.9749 10.3965 32.1835 9.43306 32.3834 8.4661C32.4518 8.13045 32.5114 7.79132 32.5658 7.45219C32.571 7.41392 32.5237 7.3461 32.4834 7.32523C31.9468 7.03132 31.6137 6.58436 31.4734 6.00175C31.3138 5.33914 31.5663 4.79306 32.0117 4.31827C32.1151 4.20871 32.2607 4.1374 32.3869 4.04871C32.4395 4.07479 32.4956 4.12697 32.5412 4.12001C32.6447 4.10436 32.7446 4.05566 32.8463 4.02436C33.5144 3.81566 34.7716 4.10784 34.9574 5.05219C34.9785 5.15827 35.0749 5.25045 35.1363 5.34958C35.2169 5.60871 35.4519 5.56523 35.6448 5.60697C35.6974 5.6174 35.7482 5.63479 35.8008 5.64871C35.864 5.70784 35.9183 5.79827 35.992 5.81914C36.2111 5.88001 36.4373 5.91827 36.6618 5.95306C36.8248 5.97914 36.9932 5.9861 37.158 5.99827C37.2772 6.00697 37.3351 5.95132 37.3281 5.83132C37.7384 5.88697 38.1504 5.9374 38.559 5.99827C38.7764 6.03132 38.9921 6.08175 39.2095 6.12523C39.2989 6.32523 39.49 6.35827 39.6741 6.38436C39.9477 6.42436 40.2282 6.42436 40.5 6.47827C40.9647 6.57045 41.4469 6.53392 41.9045 6.68697C42.1254 6.76001 42.3744 6.74958 42.6111 6.7774C42.6006 6.95132 42.5901 7.12523 42.5813 7.2974C42.4779 7.37045 42.3481 7.42436 42.2745 7.52175C42.1184 7.73045 41.9904 7.95827 41.8537 8.18088C41.6257 8.55306 41.389 8.92175 41.1786 9.30436C40.991 9.64697 40.8332 10.0052 40.6683 10.3583C40.5579 10.5948 40.4527 10.8348 40.3492 11.0731C40.3106 11.1635 40.2756 11.2557 40.2475 11.3496C40.2195 11.4452 40.1458 11.5565 40.3071 11.6139H40.3054Z" fill="#394F71"/>
<path d="M23.3794 19.2487C22.9849 19.2487 22.5921 19.2469 22.1976 19.2452C22.0889 19.1617 21.9924 19.0382 21.8714 19.0052C21.6084 18.9356 21.3331 18.9095 21.0614 18.88C21.0228 18.8765 20.9737 18.9495 20.9299 18.9878C20.2899 18.8504 19.741 18.5321 19.201 18.1826C18.6399 17.8191 18.1717 17.3669 17.7544 16.8539C17.7246 16.8174 17.6527 16.8139 17.6001 16.7947C17.4616 16.7861 17.4248 16.8661 17.4318 16.9843C17.4476 17.2765 17.4721 17.5687 17.4739 17.8608C17.4774 19.6695 17.4739 21.4782 17.4774 23.2869C17.4774 23.4643 17.5054 23.6417 17.5212 23.8191H15.0699C15.0699 23.7165 15.0699 23.6121 15.0699 23.5078C15.0699 17.4591 15.0699 11.4104 15.0664 5.36344C15.0664 5.20866 15.0997 5.14083 15.2663 5.14257C15.9729 5.14953 16.6796 5.14953 17.3844 5.15301C17.3827 5.16692 17.3844 5.17909 17.3879 5.19127C17.402 5.42605 17.4248 5.66083 17.43 5.89562C17.437 6.2904 17.4353 6.68518 17.43 7.07823C17.4283 7.20344 17.4598 7.27301 17.6001 7.25214C17.6054 7.30083 17.6089 7.35127 17.6159 7.40692C17.8912 7.10257 18.1559 6.79649 18.4382 6.50779C18.5803 6.36344 18.7556 6.2504 18.9169 6.12344C19.0116 6.11301 19.1186 6.12866 19.1975 6.08866C19.6534 5.85562 20.0847 5.55475 20.5634 5.39127C20.8106 5.30605 21.0964 5.26257 21.3559 5.17388C21.5225 5.11649 21.768 5.14953 21.8048 4.88518C22.1871 4.86779 22.5711 4.82605 22.9533 4.8417C23.3882 4.85909 23.8213 4.92518 24.2544 4.9704C24.3859 5.04866 24.5174 5.12866 24.6524 5.20344C24.7506 5.25736 24.8488 5.31649 24.9557 5.35127C25.1854 5.42605 25.4379 5.45388 25.6483 5.5617C26.0393 5.75996 26.4251 5.97736 26.781 6.22779C27.1317 6.47649 27.4473 6.77214 27.7735 7.05562C28.2294 7.45214 28.5169 7.96866 28.8203 8.47649C28.8641 8.54953 28.9763 8.58257 29.057 8.63301C29.1745 8.9217 29.2902 9.20866 29.4077 9.49736C29.3831 9.52518 29.3323 9.55996 29.3375 9.58083C29.3971 9.82953 29.4533 10.08 29.5322 10.3234C29.576 10.4574 29.6584 10.5774 29.7233 10.7043C29.7654 10.8782 29.8337 11.0487 29.846 11.2243C29.8951 11.9947 29.9232 12.7669 29.7531 13.5287C29.7513 13.5391 29.732 13.5461 29.7215 13.5547C29.5567 13.6156 29.4936 13.7356 29.5006 13.9043C29.5041 13.9826 29.5216 14.0852 29.4796 14.1339C29.2744 14.3756 29.3007 14.7008 29.1534 14.9634C29.0587 15.1304 29.043 15.3408 28.95 15.5095C28.8238 15.7356 28.6572 15.9426 28.5064 16.1547C28.3679 16.3513 28.2188 16.5408 28.0891 16.7426C28.0523 16.8 28.0698 16.8904 28.0628 16.9669C27.8384 17.2921 27.5683 17.5739 27.2299 17.7861C27.1615 17.7861 27.0791 17.7617 27.0265 17.7895C26.7898 17.9165 26.5654 18.0678 26.3287 18.1947C26.0358 18.3513 25.743 18.5113 25.4362 18.633C25.1731 18.7356 24.8908 18.7913 24.6156 18.8574C24.3859 18.9113 24.1527 18.9721 23.9177 18.9861C23.6915 19 23.5337 19.1043 23.3811 19.2469L23.3794 19.2487ZM18.9853 15.4991C18.9958 15.5026 19.0028 15.5095 19.0064 15.52C19.066 15.6347 19.1098 15.7634 19.1922 15.8608C19.2816 15.9652 19.3991 16.0521 19.5201 16.1252C19.6919 16.2295 19.8778 16.313 20.0567 16.4069C20.0952 16.4539 20.1233 16.5252 20.1724 16.5443C20.474 16.6643 20.7703 16.8034 21.0842 16.8765C21.4331 16.9565 21.7978 16.9704 22.1555 17.0121C22.2186 17.04 22.287 17.0974 22.3466 17.0904C22.7955 17.0347 23.2549 17.0104 23.688 16.8921C24.321 16.72 24.8926 16.3947 25.4204 16.0069C25.6553 15.8347 25.8675 15.6313 26.0867 15.44C26.262 15.2869 26.4286 15.1252 26.3813 14.8608C26.3865 14.84 26.3865 14.8156 26.3988 14.8C26.7547 14.32 26.9967 13.7861 27.0914 13.2017C27.1703 12.7078 27.1896 12.2034 27.2352 11.7026C27.3509 11.7147 27.428 11.6765 27.4 11.5513C27.3684 11.4087 27.3123 11.273 27.2755 11.1321C27.1983 10.84 27.1317 10.5443 27.044 10.2556C27.03 10.2104 26.9336 10.1878 26.8757 10.1565C26.5776 9.53562 26.1831 8.98083 25.6729 8.51301C25.487 8.34257 25.2784 8.19649 25.0802 8.03823C25.0539 7.97214 25.0451 7.87301 24.9978 7.84692C24.7067 7.68866 24.4104 7.53562 24.1036 7.40866C24.0299 7.37909 23.9124 7.45388 23.816 7.47996C23.4969 7.43127 23.1777 7.38257 22.8569 7.33562C22.7517 7.12344 22.5413 7.1217 22.3449 7.08344C21.896 6.99475 21.5032 7.23649 21.0789 7.29562C20.5388 7.3704 20.0286 7.61562 19.5902 7.95301C19.4535 8.05736 19.3781 8.23996 19.2746 8.38605C19.2203 8.4417 19.1659 8.49909 19.1098 8.55301C18.6118 9.03823 18.205 9.58605 17.9333 10.2261C17.8947 10.2087 17.8228 10.1739 17.821 10.1756C17.7474 10.3147 17.6247 10.4574 17.6229 10.6C17.6176 10.8521 17.5703 11.0852 17.4809 11.3165C17.4651 11.5078 17.4265 11.7026 17.4405 11.8921C17.4739 12.3043 17.523 12.7147 17.5913 13.1217C17.6334 13.3704 17.7141 13.6139 17.793 13.8556C17.807 13.8991 17.8947 13.9182 17.949 13.9478C18.0998 14.2347 18.2506 14.5217 18.4014 14.8104C18.3208 15.0208 18.7416 15.52 18.9871 15.5043L18.9853 15.4991Z" fill="#394F71"/>
<path d="M4.4468 10.153C4.04527 9.95126 3.6297 9.77213 3.24395 9.5443C2.59168 9.15647 2.02357 8.6643 1.62028 8.0156C1.21875 7.37039 0.96976 6.67995 0.901376 5.91299C0.811951 4.91473 1.0662 4.00865 1.54664 3.15647C1.84998 2.62082 2.21469 2.12343 2.74247 1.77039C2.82839 1.76343 2.92833 1.77908 3.00023 1.74256C3.2159 1.63126 3.42105 1.4956 3.63321 1.37734C3.83486 1.2643 4.03475 1.1356 4.25042 1.05908C4.50642 0.968647 4.7817 0.932125 5.04472 0.860821C5.19727 0.820821 5.35332 0.768647 5.36559 0.570386C6.13535 0.349517 6.92614 0.455604 7.70817 0.434734C7.73096 0.434734 7.75376 0.460821 7.7748 0.472995C7.70116 0.641691 7.86247 0.634734 7.93085 0.639951C8.32187 0.674734 8.66554 0.904299 9.07935 0.878212C9.27398 0.866038 9.48264 1.00343 9.67902 1.09039C9.8719 1.1756 10.0578 1.27821 10.2419 1.37908C10.4663 1.50256 10.7153 1.59995 10.8994 1.76691C11.0905 1.94082 11.2746 2.08343 11.5359 2.11126C11.6586 2.22952 11.7814 2.34604 11.9041 2.4643C11.9076 2.53908 11.8883 2.62604 11.9199 2.68517C11.9988 2.83647 12.1093 2.97039 12.1934 3.11995C12.2706 3.25734 12.2986 3.43821 12.4038 3.54256C12.7142 3.84865 12.7159 4.26604 12.8264 4.63473C12.9351 5.00169 12.993 5.41213 12.7107 5.76343C12.1566 5.76343 11.6025 5.76169 11.0484 5.75995C10.9187 5.65734 10.7889 5.55473 10.7223 5.50082C10.5733 5.31647 10.4681 5.1843 10.3611 5.05212C10.2559 4.79126 10.1489 4.53039 10.0437 4.26952C10.0332 4.16691 10.049 4.04691 10.0034 3.96343C9.94379 3.8556 9.82981 3.77734 9.74565 3.67995C9.52296 3.4243 9.26521 3.22082 8.92505 3.13734C8.8777 3.12517 8.8251 3.1443 8.77425 3.14952C8.32362 3.02952 7.87124 2.91126 7.42061 2.79126C7.30488 2.72169 7.19617 2.60691 7.07343 2.59299C6.78587 2.56343 6.49305 2.58082 6.20373 2.5843C6.14762 2.5843 6.08976 2.60169 6.03716 2.62082C5.76362 2.71995 5.49184 2.82778 5.21655 2.92343C4.59935 3.13734 4.15223 3.55995 3.79803 4.07821C3.65776 4.28343 3.57886 4.53039 3.48066 4.75995C3.42806 4.87995 3.4719 4.95299 3.61217 4.95647C3.6297 5.31647 3.64549 5.67473 3.66302 6.03473C3.59288 6.21213 3.58061 6.37386 3.73666 6.52691C3.83135 6.61908 3.87518 6.75995 3.97162 6.85039C4.24165 7.10778 4.50992 7.37213 4.81151 7.58952C5.06927 7.7756 5.36559 7.91299 5.65666 8.04517C5.87409 8.1443 6.1108 8.20343 6.33699 8.28169C6.37031 8.29386 6.40187 8.30952 6.43518 8.32169C6.69118 8.42256 6.94718 8.52343 7.20318 8.62256C7.22247 8.62952 7.24702 8.62256 7.26806 8.6243C7.63277 8.69908 7.99924 8.75995 8.35869 8.85213C8.63924 8.92517 8.90927 9.04169 9.18631 9.1356C9.4125 9.21212 9.64921 9.26778 9.86839 9.35995C10.2138 9.50604 10.5522 9.67126 10.8906 9.83647C11.0151 9.89734 11.1396 9.96691 11.2483 10.0521C11.4114 10.1808 11.5464 10.353 11.7235 10.4573C11.8445 10.5286 11.962 10.6939 12.1496 10.5965C12.2215 10.6713 12.2951 10.746 12.367 10.8208C12.3898 10.9217 12.3898 11.0347 12.4372 11.1217C12.5266 11.2852 12.6704 11.4243 12.744 11.593C12.9088 11.9739 13.0386 12.3721 13.1981 12.7565C13.3069 13.0173 13.2034 13.2799 13.2437 13.5373C13.2735 13.7356 13.2192 13.9739 13.4489 14.1043C13.4191 14.2626 13.391 14.4208 13.3612 14.5791C13.263 14.7408 13.1017 14.8956 13.0807 15.066C13.0298 15.466 12.8071 15.7878 12.6406 16.1304C12.4968 16.426 12.2951 16.706 12.0672 16.946C11.7638 17.2678 11.4272 17.5634 11.0747 17.8313C10.8468 18.0052 10.568 18.1182 10.305 18.2434C10.1139 18.3339 9.91222 18.4104 9.70883 18.4765C9.48439 18.5495 9.25469 18.6086 9.02674 18.6643C8.63748 18.7599 8.24998 18.8539 7.85721 18.9339C7.74499 18.9565 7.67836 18.9826 7.68538 19.1026C7.42061 19.1199 7.15584 19.1443 6.88932 19.1513C6.18269 19.1704 5.50061 19.0313 4.82379 18.8469C3.95584 18.6086 3.17732 18.1947 2.49524 17.626C1.65184 16.9234 1.05217 16.0539 0.757595 14.986C0.676938 14.6921 0.645376 14.4069 0.641869 14.1078C0.640116 13.9269 0.610308 13.7443 0.592773 13.5426C1.07321 13.5426 1.53086 13.5426 1.98675 13.5426C2.36549 13.5426 2.74423 13.5443 3.12296 13.5391C3.2457 13.5373 3.31935 13.5652 3.31584 13.7026C3.30006 14.5391 3.67179 15.1982 4.27321 15.7547C4.31003 15.7878 4.33633 15.8313 4.3679 15.8713C4.37666 15.9269 4.36614 16.0086 4.39946 16.0365C4.70631 16.3026 5.04998 16.5113 5.43924 16.6382C5.51288 16.6626 5.58653 16.6852 5.65666 16.7165C5.79694 16.7773 5.9302 16.8799 6.07573 16.9008C6.29666 16.9321 6.52461 16.9165 6.74905 16.9043C6.7999 16.9008 6.84899 16.8278 6.89809 16.7878C7.0594 16.7878 7.21896 16.7878 7.38028 16.7878C7.46269 16.8278 7.54159 16.8939 7.62927 16.906C7.96768 16.9547 8.27803 16.8626 8.59365 16.7408C9.08811 16.5495 9.57381 16.3513 9.94028 15.953C9.98587 15.9043 9.98236 15.8104 10.0016 15.7373C10.0753 15.6539 10.1489 15.5686 10.2226 15.4852C10.291 15.4695 10.3821 15.4747 10.4207 15.433C10.5364 15.3078 10.6715 15.1773 10.7276 15.0226C10.8696 14.6365 11.0064 14.2504 10.973 13.8208C10.9467 13.4886 10.81 13.2173 10.6224 12.9599C10.5978 12.9269 10.54 12.9182 10.4961 12.8991C10.1384 12.3373 9.60713 11.9756 9.04077 11.6504C9.05129 11.4069 8.82159 11.433 8.69359 11.3373C8.35869 11.0886 7.96417 11.0191 7.57491 10.9304C7.53458 10.9217 7.47496 10.9947 7.42587 11.0313C6.98751 10.9234 6.54916 10.8156 6.1108 10.7078C6.02664 10.4121 5.7268 10.4556 5.5234 10.36C5.24987 10.2313 4.94302 10.1686 4.66247 10.0521C4.53096 9.99821 4.47486 10.0086 4.45031 10.1443L4.4468 10.153Z" fill="#394F71"/>
<path d="M47.165 18.9322C47.165 14.3513 47.165 9.76873 47.165 5.18787H47.3579C47.3579 5.40004 47.3579 5.60526 47.3579 5.81047C47.3614 10.1287 47.3649 14.4453 47.3667 18.7635C47.3667 18.8122 47.3509 18.8609 47.3421 18.9096C47.3264 18.92 47.3106 18.9322 47.293 18.9426C47.251 18.9392 47.2071 18.9357 47.165 18.9322Z" fill="#394F71"/>
<path d="M12.1495 10.6087C11.9618 10.7061 11.8444 10.5409 11.7234 10.4696C11.5463 10.3653 11.4113 10.1931 11.2482 10.0644C11.1395 9.97917 11.015 9.90961 10.8905 9.84874C10.5521 9.68352 10.2154 9.5183 9.86825 9.37221C9.64907 9.28004 9.41236 9.22439 9.18617 9.14787C8.90912 9.05395 8.64085 8.93743 8.35855 8.86439C7.9991 8.77048 7.63263 8.70961 7.26792 8.63656C7.24688 8.63308 7.22233 8.64178 7.20304 8.63482C6.94704 8.53569 6.69104 8.43482 6.43504 8.33395C6.40173 8.32178 6.37017 8.30439 6.33685 8.29395C6.10891 8.21569 5.87395 8.15656 5.65652 8.05743C5.36545 7.92352 5.06912 7.78613 4.81137 7.60178C4.50978 7.38439 4.24151 7.1183 3.97148 6.86265C3.8768 6.77221 3.83121 6.63134 3.73652 6.53917C3.58047 6.38613 3.59274 6.22439 3.66288 6.047C4.06792 6.99656 4.85696 7.51135 5.76874 7.91656C6.65071 8.30787 7.60107 8.45221 8.51636 8.72352C9.32644 8.96352 10.1278 9.23308 10.8607 9.65048C11.2201 9.85569 11.5393 10.1322 11.8724 10.3809C11.9689 10.4522 12.0565 10.5357 12.1477 10.614L12.1495 10.6087Z" fill="#394F71"/>
<path d="M7.68507 19.1165C7.67806 18.9965 7.74469 18.9704 7.85691 18.9478C8.24968 18.8678 8.63718 18.7739 9.02644 18.6782C9.25614 18.6226 9.48584 18.5635 9.70853 18.4904C9.91192 18.4243 10.1118 18.3495 10.3047 18.2574C10.5677 18.1321 10.8465 18.0191 11.0744 17.8452C11.4269 17.5774 11.7635 17.28 12.0669 16.96C12.2931 16.72 12.4947 16.44 12.6403 16.1443C12.8068 15.8017 13.0295 15.48 13.0804 15.08C13.1032 14.9078 13.2645 14.7548 13.3609 14.593C13.2838 14.9113 13.2434 15.2452 13.1189 15.5443C12.8016 16.3026 12.3667 16.9895 11.7285 17.5321C11.0464 18.1113 10.2731 18.5339 9.41395 18.7756C8.8511 18.9339 8.26195 19.0069 7.68507 19.1182V19.1165Z" fill="#394F71"/>
<path d="M58.4883 23.7304C58.6128 23.6487 58.7267 23.5374 58.8635 23.4904C59.3247 23.3322 59.8016 23.2156 60.2575 23.0452C60.5696 22.9287 60.88 22.7774 61.1517 22.5861C61.6743 22.2191 62.1968 21.8452 62.5597 21.3009C62.7526 21.0122 62.9806 20.7461 63.1769 20.4591C63.2786 20.3096 63.3453 20.1374 63.4364 19.9809C63.4522 19.9548 63.5189 19.96 63.5627 19.9513C63.4592 20.16 63.3628 20.3722 63.2541 20.5774C62.942 21.1582 62.5369 21.6748 62.0407 22.1078C61.3551 22.7061 60.5766 23.1687 59.6981 23.4383C59.3019 23.56 58.8916 23.633 58.4883 23.7287V23.7304Z" fill="#394F71"/>
<path d="M29.0556 8.63307C28.9749 8.58263 28.8627 8.54959 28.8188 8.47655C28.5173 7.96872 28.2279 7.4522 27.7721 7.05568C27.4477 6.7722 27.1321 6.47655 26.7796 6.22785C26.4237 5.97568 26.0379 5.75829 25.6469 5.56176C25.4347 5.45394 25.184 5.42611 24.9543 5.35133C24.8491 5.31655 24.7491 5.25742 24.651 5.2035C24.5159 5.12872 24.3862 5.04872 24.2529 4.97046C24.9333 5.0835 25.568 5.32176 26.1764 5.63655C26.7866 5.95307 27.3442 6.33394 27.8001 6.8522C28.2841 7.40176 28.7698 7.94959 29.0556 8.63481V8.63307Z" fill="#394F71"/>
<path d="M17.5238 23.8192C17.5081 23.6418 17.48 23.4644 17.48 23.287C17.4765 21.4783 17.48 19.6696 17.4765 17.8609C17.4765 17.5687 17.4502 17.2766 17.4344 16.9844C17.4274 16.8661 17.4642 16.7861 17.6027 16.7948C17.6098 17.8992 17.6185 19.0053 17.622 20.1096C17.6255 21.287 17.6273 22.4627 17.622 23.6401C17.622 23.7009 17.5571 23.7601 17.5221 23.8209L17.5238 23.8192Z" fill="#394F71"/>
<path d="M55.0779 4.97217C54.8342 5.13391 54.6062 5.32347 54.2941 5.35825C54.1802 5.37043 54.0714 5.43304 53.961 5.47478C53.9347 5.48521 53.9136 5.51478 53.8891 5.51825C53.3964 5.57912 52.9791 5.82956 52.581 6.08173C52.1322 6.36695 51.7026 6.70086 51.3256 7.07304C51.052 7.3426 50.8855 7.71478 50.6505 8.02782C50.5681 8.13739 50.4243 8.20347 50.3086 8.28869C50.3139 8.27478 50.3174 8.25912 50.3226 8.24521C50.3331 8.2313 50.3454 8.21565 50.3559 8.20173C50.6873 7.58608 51.1467 7.06782 51.6587 6.59825C52.4706 5.85391 53.4192 5.34956 54.501 5.09391C54.6922 5.04869 54.885 5.01217 55.0779 4.97217Z" fill="#394F71"/>
<path d="M3.61201 4.96342C3.47174 4.95995 3.4279 4.8869 3.4805 4.7669C3.58045 4.53734 3.65935 4.29038 3.79787 4.08516C4.15207 3.5669 4.59919 3.14429 5.21639 2.93038C5.49168 2.83473 5.76346 2.7269 6.037 2.62777C6.0896 2.60864 6.14746 2.59299 6.20357 2.59125C6.49464 2.58777 6.78571 2.57038 7.07327 2.59995C7.19426 2.61212 7.30472 2.72864 7.42045 2.79821C7.07152 2.80169 6.72259 2.79299 6.37365 2.80864C5.24796 2.86256 3.97848 3.6069 3.64883 4.78082C3.6313 4.84169 3.62428 4.90429 3.61201 4.96516V4.96342Z" fill="#394F71"/>
<path d="M56.7389 21.5061C56.6565 21.5461 56.5688 21.6278 56.4934 21.6174C56.0814 21.56 55.6641 21.5096 55.2643 21.3983C54.9609 21.313 54.6734 21.1548 54.3946 21.0017C54.1666 20.8765 53.9404 20.7322 53.7476 20.5583C53.5074 20.3426 53.2777 20.1061 53.0883 19.847C52.948 19.6539 52.8235 19.4661 52.5921 19.3722C52.5658 19.3617 52.5587 19.3026 52.543 19.2643C52.7744 19.2122 52.9024 19.3009 53.0164 19.5148C53.2812 20.0139 53.709 20.3739 54.1807 20.6765C54.7207 21.0226 55.3046 21.2713 55.9429 21.3826C56.2076 21.4296 56.4741 21.4644 56.7389 21.5044V21.5061Z" fill="#394F71"/>
<path d="M11.5369 2.11299C11.2757 2.08517 11.0915 1.94256 10.9004 1.76864C10.7163 1.60169 10.4673 1.50256 10.2429 1.38082C10.0588 1.27995 9.87291 1.17734 9.68004 1.09212C9.48541 1.00517 9.27675 0.867775 9.08037 0.879949C8.66656 0.904297 8.32289 0.676471 7.93187 0.641688C7.86174 0.634731 7.70217 0.641688 7.77582 0.474731C8.92606 0.539079 9.9711 0.904297 10.9057 1.56691C11.1319 1.72691 11.3283 1.93212 11.5369 2.11647V2.11299Z" fill="#394F71"/>
<path d="M57.4383 18.9391C57.4856 18.8765 57.5224 18.7791 57.5838 18.7582C57.7451 18.7025 57.9275 18.706 58.0835 18.6434C58.5833 18.4399 59.1373 18.3739 59.581 18.0278C59.7949 17.8608 60.0596 17.7582 60.2701 17.5895C60.5559 17.3599 60.8119 17.0939 61.0801 16.8434C61.1555 16.7739 61.2292 16.6921 61.3326 16.8052C60.9416 17.3217 60.4244 17.6921 59.8878 18.0434C59.1829 18.5043 58.4097 18.7843 57.5768 18.913C57.5295 18.9199 57.4839 18.9321 57.4365 18.9408L57.4383 18.9391Z" fill="#394F71"/>
<path d="M40.306 11.6139C40.1447 11.5582 40.2183 11.4452 40.2464 11.3495C40.2744 11.2556 40.3095 11.1634 40.3481 11.073C40.4515 10.833 40.5567 10.5948 40.6672 10.3582C40.8338 10.0052 40.9898 9.64693 41.1774 9.30432C41.3861 8.92171 41.6246 8.55302 41.8525 8.18084C41.9875 7.95823 42.1173 7.73041 42.2733 7.52171C42.3452 7.42606 42.475 7.37041 42.5802 7.29736C42.3172 7.70606 42.0366 8.10432 41.7982 8.52693C41.4545 9.13562 41.1266 9.75475 40.818 10.3826C40.6216 10.7808 40.4743 11.2034 40.306 11.6139Z" fill="#394F71"/>
<path d="M23.3797 19.2487C23.5305 19.1078 23.6883 19.0017 23.9162 18.9878C24.1512 18.9739 24.3844 18.913 24.6141 18.8591C24.8911 18.7948 25.1734 18.7374 25.4347 18.6348C25.7433 18.513 26.0361 18.353 26.3272 18.1965C26.5639 18.0696 26.7883 17.9182 27.0251 17.7913C27.0777 17.7635 27.1601 17.7878 27.2285 17.7878C26.5849 18.3096 25.8608 18.7026 25.0665 18.9287C24.5177 19.0852 23.9425 19.1443 23.3779 19.2469L23.3797 19.2487Z" fill="#394F71"/>
<path d="M44.7998 3.15994C44.8436 3.15125 44.898 3.11994 44.9278 3.13559C45.0856 3.21907 45.2329 3.3182 45.3907 3.39994C45.4503 3.43125 45.5257 3.45038 45.5941 3.45038C45.8992 3.45559 46.2043 3.46429 46.5076 3.45038C46.846 3.43472 47.0898 3.21559 47.3195 3.00342C47.4983 2.8382 47.6667 2.65907 47.7035 2.39125C47.7157 2.30603 47.8332 2.23646 47.9016 2.1582C47.8192 2.82081 47.4352 3.26081 46.839 3.52864C46.2341 3.79994 45.2925 3.75472 44.8016 3.15994H44.7998Z" fill="#394F71"/>
<path d="M64.1938 5.48175C63.9764 5.34957 63.7432 5.3374 63.4925 5.34784C63.0208 5.36697 62.5474 5.36349 62.0757 5.34784C61.874 5.34088 61.8127 5.44175 61.7653 5.60001C61.7373 5.69392 61.6829 5.78088 61.6408 5.86957C61.6391 5.73392 61.6356 5.59653 61.6338 5.46088C61.6315 5.24755 61.7344 5.14146 61.9424 5.14262C62.3492 5.14262 62.756 5.13566 63.1646 5.14262C63.503 5.14957 63.8396 5.17218 64.1938 5.18957V5.48175Z" fill="#394F71"/>
<path d="M28.0635 16.9687C28.0705 16.8939 28.053 16.8017 28.0898 16.7443C28.2195 16.5426 28.3686 16.353 28.5071 16.1565C28.6579 15.9426 28.8245 15.7374 28.9507 15.5113C29.0436 15.3426 29.0594 15.1322 29.1541 14.9652C29.3014 14.7026 29.2751 14.3774 29.4802 14.1356C29.5206 14.087 29.503 13.9843 29.5013 13.9061C29.496 13.7374 29.5591 13.6174 29.7222 13.5565C29.5767 14.0574 29.4574 14.5687 29.2786 15.0591C29.0384 15.7165 28.6509 16.2974 28.2073 16.84C28.1669 16.8887 28.1126 16.927 28.0652 16.9687H28.0635Z" fill="#394F71"/>
<path d="M42.6097 6.77742C42.3729 6.74959 42.124 6.76003 41.903 6.68698C41.4436 6.53568 40.9632 6.57046 40.4985 6.47829C40.2285 6.42437 39.948 6.42437 39.6727 6.38437C39.4886 6.35829 39.2974 6.32524 39.208 6.12524C39.6306 6.18437 40.0549 6.24003 40.4775 6.30264C40.8492 6.35655 41.2192 6.42437 41.5909 6.47133C41.9241 6.51307 42.2607 6.53568 42.6097 6.56698V6.77568V6.77742Z" fill="#394F71"/>
<path d="M12.7116 5.7669C12.9956 5.41734 12.9378 5.0069 12.8273 4.63821C12.7168 4.26951 12.7151 3.85212 12.4047 3.54603C12.2978 3.44169 12.2715 3.26082 12.1943 3.12343C12.1102 2.97386 11.9997 2.83995 11.9208 2.68864C11.8892 2.62777 11.9085 2.54256 11.905 2.46777C12.4819 3.10082 12.7922 3.86082 12.9728 4.67821C13.0342 4.95647 13.0693 5.24343 13.1008 5.5269C13.1131 5.63647 13.1745 5.81386 12.9343 5.76864C12.9167 5.76864 12.8992 5.76864 12.8817 5.76864C12.8256 5.76864 12.7677 5.7669 12.7116 5.76517V5.7669Z" fill="#394F71"/>
<path d="M60.2 20.3983C60.1807 20.4714 60.1877 20.5792 60.1404 20.614C59.8458 20.8314 59.5512 21.0522 59.2339 21.2331C58.7377 21.5148 58.1923 21.6296 57.619 21.5809C57.5418 21.574 57.4699 21.5235 57.3945 21.494C57.6961 21.4383 57.9995 21.3931 58.2993 21.327C58.9586 21.1827 59.5688 20.934 60.0755 20.4766C60.1123 20.4435 60.1597 20.4244 60.2018 20.3983H60.2Z" fill="#394F71"/>
<path d="M9.99735 15.7495C9.97806 15.8226 9.98157 15.9147 9.93598 15.9652C9.56951 16.3634 9.08557 16.5617 8.58935 16.753C8.27373 16.8747 7.96162 16.9669 7.62496 16.9182C7.53729 16.906 7.45839 16.8417 7.37598 16.7999C8.04403 16.6817 8.71735 16.5739 9.31351 16.2243C9.55198 16.0834 9.7694 15.9078 9.99559 15.7495H9.99735Z" fill="#394F71"/>
<path d="M21.8049 4.88525C21.7681 5.1496 21.5226 5.11656 21.356 5.17395C21.0965 5.26091 20.8124 5.30612 20.5635 5.39134C20.0848 5.55482 19.6534 5.85569 19.1975 6.08873C19.1186 6.12873 19.0117 6.11308 18.917 6.12351C19.557 5.60178 20.2864 5.25221 21.0895 5.05221C21.328 4.99308 21.5664 4.94091 21.8049 4.88525Z" fill="#394F71"/>
<path d="M35.1332 5.35307C35.0718 5.25394 34.9754 5.16351 34.9543 5.05568C34.7684 4.11133 33.5112 3.81916 32.8432 4.02786C32.7415 4.05916 32.6433 4.10786 32.5381 4.12351C32.4907 4.13046 32.4346 4.07829 32.3838 4.0522C32.5854 3.96699 32.7836 3.82612 32.9905 3.80873C33.6392 3.75481 34.2564 3.87307 34.7264 4.36699C34.9824 4.63655 35.1577 4.96003 35.1332 5.35307Z" fill="#394F71"/>
<path d="M5.36726 0.570435C5.35499 0.768695 5.19894 0.820869 5.04639 0.860869C4.78337 0.932174 4.50809 0.968695 4.25209 1.05913C4.03466 1.13565 3.83652 1.26435 3.63488 1.37739C3.42272 1.49565 3.21932 1.6313 3.00189 1.74261C2.93 1.77913 2.83181 1.76348 2.74414 1.77043C3.11937 1.53913 3.48935 1.29739 3.87335 1.08C4.33625 0.817391 4.84474 0.671304 5.36726 0.570435Z" fill="#394F71"/>
<path d="M10.4923 12.9079C10.5344 12.927 10.594 12.9357 10.6185 12.9687C10.8061 13.2261 10.9429 13.4974 10.9692 13.8296C11.0025 14.2592 10.8658 14.647 10.7237 15.0313C10.6676 15.1861 10.5326 15.3166 10.4169 15.4418C10.3783 15.4835 10.2854 15.4783 10.2188 15.494C10.3801 15.1531 10.5747 14.8226 10.6939 14.4661C10.8623 13.967 10.7904 13.4696 10.5291 13.0053C10.5116 12.974 10.5046 12.9392 10.4923 12.9061V12.9079Z" fill="#394F71"/>
<path d="M13.4481 14.1165C13.2166 13.9861 13.2727 13.7478 13.2429 13.5495C13.2043 13.2921 13.306 13.0295 13.1973 12.7687C13.0378 12.3843 12.9098 11.9878 12.7432 11.6052C12.6696 11.4365 12.5258 11.2974 12.4363 11.1339C12.389 11.0469 12.3873 10.9339 12.3662 10.833C13.1745 11.7826 13.5007 12.8887 13.4481 14.1147V14.1165Z" fill="#394F71"/>
<path d="M60.6782 6.43132C60.5151 6.40524 60.3766 6.39132 60.2258 6.25915C59.8313 5.91654 59.3789 5.64871 58.8546 5.51828C58.6565 5.46958 58.4636 5.39132 58.2795 5.30089C58.2129 5.26785 58.1831 5.16176 58.1357 5.09045C58.3725 5.15306 58.6214 5.18785 58.8459 5.28176C59.4456 5.53393 60.0189 5.83654 60.5169 6.26089C60.5765 6.31132 60.6239 6.37393 60.6782 6.43132Z" fill="#394F71"/>
<path d="M33.7351 14.2887C33.6316 14.2939 33.6194 14.2574 33.6457 14.16C33.679 14.0313 33.679 13.8939 33.7 13.76C33.7351 13.5305 33.7737 13.3009 33.8122 13.0731C33.8333 12.9479 33.8491 12.8209 33.8754 12.6974C33.9192 12.4922 33.9736 12.2905 34.0191 12.087C34.0349 12.0192 34.0332 11.9461 34.0489 11.8783C34.098 11.6592 34.1471 11.44 34.2103 11.2226C34.2208 11.1879 34.2962 11.1705 34.3435 11.1461C34.1419 12.1931 33.9385 13.2418 33.7351 14.2887Z" fill="#394F71"/>
<path d="M6.89543 16.7999C6.84633 16.8399 6.79899 16.913 6.74638 16.9165C6.52195 16.9286 6.294 16.9443 6.07307 16.913C5.92754 16.8921 5.79428 16.7912 5.654 16.7286C5.58386 16.6973 5.51022 16.6747 5.43658 16.6504C5.04556 16.5234 4.70365 16.3147 4.3968 16.0486C4.36348 16.0191 4.37575 15.9391 4.36523 15.8834C4.57389 16.0173 4.7808 16.153 4.99121 16.2834C5.4506 16.5652 5.95734 16.6956 6.49038 16.7478C6.6254 16.7599 6.76041 16.7826 6.89543 16.8017V16.7999Z" fill="#394F71"/>
<path d="M52.1043 17.6504C52.199 17.5113 52.2972 17.6122 52.3813 17.6556C52.7899 17.8678 53.1932 18.0922 53.6035 18.3026C53.8209 18.4139 54.0541 18.4956 54.2733 18.6052C54.3224 18.6296 54.3417 18.7148 54.375 18.7704C53.5368 18.5548 52.8004 18.1409 52.1025 17.6504H52.1043Z" fill="#394F71"/>
<path d="M32.9046 18.5201C32.8696 18.4783 32.8047 18.4348 32.8047 18.3931C32.8047 18.1896 32.8135 17.9827 32.8415 17.7809C32.8555 17.6731 32.9169 17.5705 32.9485 17.4644C32.9713 17.3914 32.9835 17.3148 32.9976 17.2401C33.0274 17.0731 33.0449 16.9009 33.0852 16.7357C33.1624 16.4261 33.2518 16.1183 33.3412 15.8122C33.3518 15.774 33.4026 15.7479 33.4359 15.7148C33.3395 16.2175 33.243 16.7183 33.1466 17.2209C33.0642 17.654 32.9835 18.087 32.9029 18.5201H32.9046Z" fill="#394F71"/>
<path d="M17.6018 7.25214C17.4633 7.27127 17.43 7.20344 17.4317 7.07823C17.437 6.68344 17.4387 6.28866 17.4317 5.89562C17.4282 5.66084 17.4054 5.42605 17.3896 5.19127C17.4195 5.18779 17.4493 5.18257 17.4808 5.1791C17.5843 5.16344 17.6123 5.20518 17.6106 5.30779C17.6036 5.95649 17.6036 6.60518 17.6001 7.25214H17.6018Z" fill="#394F71"/>
<path d="M55.2979 18.9444C55.3487 18.9044 55.3996 18.8296 55.4522 18.8279C55.9606 18.8192 56.4691 18.8261 56.9759 18.8209C57.1056 18.8209 57.146 18.8714 57.1319 18.9879C56.7076 19.0053 56.2833 19.0348 55.8589 19.0348C55.6713 19.0348 55.4855 18.9774 55.2979 18.9461V18.9444Z" fill="#394F71"/>
<path d="M41.7854 16.4104C41.7311 16.4452 41.6609 16.5217 41.6223 16.5096C41.1279 16.3426 40.6702 16.1009 40.402 15.6417C40.3125 15.4887 40.1197 15.353 40.1705 15.1322C40.1793 15.0939 40.2021 15.0574 40.2196 15.0209C40.5317 15.7165 41.0507 16.1809 41.7872 16.4104H41.7854Z" fill="#394F71"/>
<path d="M47.9117 1.55305C47.8416 1.4887 47.7259 1.43305 47.7119 1.35827C47.654 1.05044 47.4769 0.820876 47.2489 0.63305C47.0964 0.506094 46.9088 0.417398 46.7282 0.328702C46.6335 0.281746 46.5336 0.260876 46.5546 0.125224C46.9 0.106094 47.1578 0.297398 47.3857 0.507833C47.6873 0.786094 47.9082 1.12175 47.9135 1.55305H47.9117Z" fill="#394F71"/>
<path d="M63.7295 19.5547C63.5927 19.5339 63.6032 19.4573 63.6366 19.3513C63.7979 18.8208 63.9609 18.2921 63.9644 17.7269C63.9644 17.6017 64.0942 17.4782 64.1643 17.3547C64.124 17.6956 64.103 18.04 64.0363 18.3739C63.9557 18.7721 63.8347 19.1617 63.7295 19.5547Z" fill="#394F71"/>
<path d="M4.44629 10.1531C4.47084 10.0174 4.52519 10.007 4.65845 10.0609C4.94075 10.1774 5.24585 10.24 5.51938 10.3687C5.72278 10.4644 6.02262 10.4226 6.10678 10.7165C5.5527 10.5287 5.00037 10.3409 4.44629 10.1513V10.1531Z" fill="#394F71"/>
<path d="M37.3261 5.833C37.3331 5.95126 37.2752 6.00865 37.156 5.99996C36.9912 5.98778 36.8228 5.98083 36.6598 5.95474C36.4353 5.91996 36.2091 5.88169 35.99 5.82083C35.9163 5.79996 35.862 5.70952 35.7988 5.65039C36.2232 5.70952 36.6457 5.76865 37.0701 5.8243C37.1542 5.83474 37.2419 5.82952 37.3278 5.833H37.3261Z" fill="#394F71"/>
<path d="M7.42168 11.04C7.47252 11.0053 7.53214 10.9305 7.57072 10.9392C7.95998 11.0279 8.3545 11.0957 8.6894 11.3461C8.8174 11.4418 9.0471 11.4157 9.03658 11.6592C8.59121 11.4818 8.14584 11.3044 7.69872 11.1287C7.60754 11.094 7.51285 11.0696 7.41992 11.04H7.42168Z" fill="#394F71"/>
<path d="M54.291 23.3931C54.3875 23.2331 54.5312 23.3166 54.6522 23.3357C54.7802 23.3566 54.903 23.4157 55.0292 23.447C55.2747 23.5079 55.5254 23.5548 55.7692 23.6244C55.8253 23.64 55.8621 23.7253 55.9077 23.7792C55.4325 23.68 54.9573 23.5827 54.4821 23.4783C54.4155 23.4644 54.3541 23.4209 54.291 23.3913V23.3931Z" fill="#394F71"/>
<path d="M8.77539 3.15483C8.82624 3.14961 8.8806 3.13048 8.92618 3.14266C9.2646 3.22613 9.52235 3.42961 9.74679 3.68526C9.83095 3.78266 9.94492 3.85918 10.0045 3.96874C10.0501 4.05396 10.0343 4.17222 10.0449 4.27483C9.7275 3.78613 9.28388 3.43483 8.77539 3.15657V3.15483Z" fill="#394F71"/>
<path d="M10.3621 5.05566C10.4691 5.18784 10.5743 5.32001 10.7233 5.50436C10.7899 5.55827 10.9197 5.66088 11.0494 5.76349C11.0284 5.76697 11.0074 5.77219 10.9863 5.77219C10.8075 5.77219 10.5743 5.83653 10.4638 5.74958C10.3691 5.67479 10.4147 5.42784 10.3954 5.2574C10.3884 5.18958 10.3726 5.12349 10.3604 5.05566H10.3621Z" fill="#394F71"/>
<path d="M20.9316 18.9861C20.9755 18.9479 21.0228 18.8731 21.0631 18.8783C21.3349 18.9079 21.6102 18.9357 21.8732 19.0035C21.996 19.0348 22.0924 19.1601 22.1994 19.2435C21.7768 19.1583 21.3542 19.0714 20.9316 18.9861Z" fill="#394F71"/>
<path d="M34.6979 9.28173C34.5594 9.19825 34.5348 8.97216 34.6067 8.77564C34.6716 8.59999 34.7032 8.41042 34.747 8.22607C34.775 8.11129 34.7242 7.94955 34.9276 7.94434C34.8785 8.22608 34.8311 8.50607 34.7821 8.78781C34.754 8.95303 34.7259 9.11651 34.6979 9.28173Z" fill="#394F71"/>
<path d="M60.933 19.5461C61.1031 19.8922 60.7787 20.007 60.6103 20.1792C60.5121 20.2783 60.3491 20.3166 60.2158 20.3827C60.4543 20.1044 60.6927 19.8244 60.9312 19.5461H60.933Z" fill="#394F71"/>
<path d="M34.9667 7.93561C34.958 7.88866 34.9492 7.8417 34.9404 7.79822C35.2543 7.68866 35.5156 7.84518 35.7873 7.92866C35.8294 7.94083 35.8522 8.01388 35.8838 8.05909C35.5787 8.01909 35.2718 7.97735 34.9667 7.93735V7.93561Z" fill="#394F71"/>
<path d="M29.7221 10.7044C29.6572 10.5774 29.5748 10.4574 29.5309 10.3235C29.452 10.08 29.3942 9.82961 29.3363 9.58091C29.3311 9.56005 29.3819 9.52526 29.4065 9.49744C29.5117 9.89918 29.6169 10.3027 29.7221 10.7044Z" fill="#394F71"/>
<path d="M53.9805 23.2765C54.1015 23.186 54.1769 23.2087 54.1979 23.3634C54.126 23.3339 54.0541 23.306 53.9805 23.2765Z" fill="#394F71"/>
<path d="M17.4815 5.17733C17.4517 5.18081 17.4219 5.18603 17.3903 5.18951C17.385 5.17733 17.385 5.16516 17.3868 5.15125C17.4184 5.15994 17.4499 5.16864 17.4815 5.17733Z" fill="#394F71"/>
<path d="M47.293 18.9426C47.3087 18.9322 47.3245 18.92 47.3421 18.9095C47.3263 18.92 47.3105 18.9322 47.293 18.9426Z" fill="#394F71"/>
<path d="M54.1943 23.36C54.2119 23.3704 54.2277 23.3809 54.2452 23.3896C54.2277 23.3791 54.2119 23.3687 54.1943 23.36Z" fill="#394F71"/>
<path d="M55.9565 7.22091C55.2359 7.34613 54.5678 7.607 53.9751 8.03134C52.9424 8.77395 52.3199 9.77395 52.1042 11.0192C52.0832 11.1444 52.0709 11.2713 52.0551 11.3966C51.9412 11.4087 51.864 11.3757 51.8868 11.2453C51.9079 11.127 51.9394 11.0105 51.9657 10.8922C51.9973 10.7548 52.0166 10.6122 52.0622 10.4783C52.1779 10.134 52.248 9.77743 52.504 9.48526C52.7249 9.23308 52.895 8.93743 53.0914 8.66439C53.144 8.59134 53.2001 8.52178 53.265 8.45917C53.4298 8.30265 53.6104 8.1583 53.7682 7.99656C54.047 7.71308 54.4293 7.61047 54.7642 7.4296C55.0325 7.28526 55.334 7.19134 55.6269 7.09917C55.7426 7.06265 55.9127 7.00873 55.9548 7.22091H55.9565Z" fill="#394F71"/>
<path d="M52.9811 14.9321C53.444 15.5026 54.0244 15.9304 54.6837 16.2469C54.959 16.3791 55.2659 16.4469 55.5587 16.5426C55.5183 16.6904 55.4289 16.7426 55.2834 16.6765C54.9678 16.5356 54.6451 16.4052 54.3383 16.2504C54.17 16.1652 54.0367 16.0156 53.8684 15.9304C53.4914 15.7408 53.2512 15.4139 52.9741 15.12C52.9513 15.0956 52.9478 15.0556 52.9355 15.0226C52.9513 14.993 52.9654 14.9617 52.9811 14.9321Z" fill="#394F71"/>
<path d="M60.8903 9.24518C60.6747 8.99301 60.4713 8.72866 60.2381 8.4904C59.7296 7.96866 59.1299 7.58605 58.4092 7.41214C58.39 7.40692 58.3742 7.38779 58.3584 7.37562C58.4233 7.17909 58.5828 7.23996 58.6968 7.28344C58.8827 7.35475 59.0545 7.46083 59.2316 7.55649C59.7699 7.84692 60.2258 8.23822 60.6361 8.68518C60.7869 8.8504 60.8903 9.02257 60.8921 9.24866L60.8903 9.24518Z" fill="#394F71"/>
<path d="M52.9808 14.9321C52.965 14.9617 52.9509 14.993 52.9352 15.0225C52.8177 14.8399 52.6985 14.6573 52.581 14.4747C52.5214 14.3825 52.46 14.2904 52.4021 14.1965C52.1181 13.7391 52.0286 13.2225 51.9357 12.7078C51.9182 12.6086 51.8743 12.466 52.0532 12.433C52.0532 13.3704 52.4723 14.1547 52.972 14.9112C52.9755 14.9165 52.9772 14.9252 52.9808 14.9304V14.9321Z" fill="#394F71"/>
<path d="M22.2001 16.8435C22.8366 16.8626 23.4643 16.8018 24.0587 16.5705C24.8933 16.2435 25.614 15.7513 26.1804 15.0522C26.2382 14.9809 26.3154 14.9218 26.382 14.8574C26.4276 15.1218 26.2628 15.2835 26.0874 15.4366C25.8682 15.6279 25.6561 15.8313 25.4211 16.0035C24.8933 16.3913 24.3217 16.7166 23.6887 16.8887C23.2556 17.007 22.7963 17.0313 22.3474 17.087C22.2878 17.0939 22.2211 17.0366 22.1562 17.0087C22.1703 16.9531 22.1861 16.8974 22.2001 16.8435Z" fill="#394F71"/>
<path d="M22.8555 7.33213C22.6924 7.31995 22.5293 7.2956 22.3645 7.29734C21.3335 7.31473 20.3744 7.56517 19.5257 8.16343C19.4346 8.22778 19.3556 8.30604 19.2715 8.37908C19.3749 8.23299 19.4503 8.05039 19.5871 7.94604C20.0272 7.61039 20.5375 7.36343 21.0758 7.28865C21.5001 7.22952 21.8946 6.98778 22.3417 7.07647C22.5381 7.11473 22.7468 7.11647 22.8537 7.32865L22.8555 7.33213Z" fill="#394F71"/>
<path d="M22.1993 16.8435C22.1853 16.8991 22.1695 16.9548 22.1555 17.0087C21.7978 16.9669 21.4331 16.953 21.0841 16.873C20.7703 16.8017 20.4722 16.6608 20.1724 16.5408C20.1233 16.5217 20.0952 16.4504 20.0566 16.4035C20.0566 16.3721 20.0566 16.3408 20.0584 16.3113C20.1618 16.3513 20.2635 16.4017 20.3705 16.4295C20.8299 16.553 21.2911 16.6748 21.754 16.7878C21.8977 16.8226 22.0503 16.8243 22.1993 16.8417V16.8435Z" fill="#394F71"/>
<path d="M17.646 11.1809C17.6338 11.6557 17.5724 12.134 17.6233 12.6018C17.6723 13.0557 17.8354 13.4957 17.9476 13.9426C17.8933 13.9131 17.8056 13.8922 17.7916 13.8505C17.7127 13.6087 17.632 13.3653 17.5899 13.1166C17.5216 12.7096 17.4725 12.2974 17.4391 11.887C17.4234 11.6974 17.4637 11.5026 17.4795 11.3113C17.5356 11.2679 17.5917 11.2244 17.6478 11.1809H17.646Z" fill="#394F71"/>
<path d="M27.2335 11.6991C27.1721 11.1704 27.0651 10.6504 26.874 10.1512C26.9319 10.1843 27.0283 10.2052 27.0424 10.2504C27.13 10.5391 27.1967 10.8347 27.2738 11.1269C27.3106 11.2678 27.3667 11.4052 27.3983 11.546C27.4264 11.673 27.3492 11.7112 27.2335 11.6973V11.6991Z" fill="#394F71"/>
<path d="M25.0787 8.03307C24.721 7.86959 24.3633 7.70785 24.0056 7.54611C23.9442 7.51828 23.8776 7.49915 23.8145 7.47655C23.9109 7.45046 24.0284 7.37568 24.102 7.40524C24.4089 7.5322 24.7052 7.68524 24.9963 7.8435C25.0454 7.86959 25.0524 7.96872 25.0787 8.03481V8.03307Z" fill="#394F71"/>
<path d="M20.0589 16.3131C20.0589 16.3444 20.0589 16.3757 20.0571 16.4053C19.8783 16.3131 19.6924 16.2279 19.5206 16.1235C19.4014 16.0505 19.2821 15.9653 19.1927 15.8592C19.1103 15.7635 19.0682 15.6331 19.0068 15.5183C19.3207 15.7548 19.6328 15.9896 19.9467 16.2261C19.9852 16.254 20.0221 16.2835 20.0589 16.3114V16.3131Z" fill="#394F71"/>
<path d="M17.6459 11.1808C17.5898 11.2243 17.5336 11.2678 17.4775 11.3113C17.567 11.08 17.6161 10.8469 17.6196 10.5948C17.6213 10.4521 17.7441 10.3095 17.8177 10.1704C17.8177 10.1704 17.8913 10.2035 17.9299 10.2208C17.8352 10.5408 17.7388 10.8608 17.6441 11.1808H17.6459Z" fill="#394F71"/>
<path d="M18.3998 14.8052C18.5944 15.0365 18.7908 15.2678 18.9854 15.4991C18.7399 15.5147 18.3191 15.0173 18.3998 14.8052Z" fill="#394F71"/>
</g>
<defs>
<clipPath id="clip0_222_13410">
<rect width="64" height="24" fill="white" transform="translate(0.476562)"/>
</clipPath>
</defs>
</svg>
