<svg width="177" height="22" viewBox="0 0 177 22" fill="none" xmlns="http://www.w3.org/2000/svg">
<g clip-path="url(#clip0_222_13527)">
<path d="M17.8662 11.1222C18.0495 11.1833 18.2634 11.2444 18.4468 11.275C19.669 11.4583 20.5856 12.1 21.4106 12.9555C22.0523 13.6583 22.419 14.4527 22.6329 15.3389C22.7245 15.7666 22.7856 16.1944 22.7856 16.6222C22.7856 18.2416 22.7856 19.8916 22.7856 21.5111C22.7856 21.6639 22.7551 21.8166 22.7245 22H11.7856C11.7856 20.7777 11.7856 19.525 11.7856 18.3027C11.7856 17.9972 11.7856 17.7222 11.7856 17.4166C11.7856 16.775 11.8468 16.1027 11.8468 15.4611C11.9079 15.2472 11.9384 15.0333 12.0301 14.8194C12.3662 13.9027 12.8856 13.1083 13.619 12.4666C14.1995 11.9472 14.8718 11.5805 15.6051 11.3666C15.9718 11.275 16.3079 11.1833 16.6745 11.1222C17.0718 11.1222 17.469 11.1222 17.8662 11.1222Z" fill="#394F71"/>
<path d="M7.17158 21.9083C7.17158 21.9083 7.17158 21.9083 7.17158 21.9389C7.17158 21.9389 7.17158 21.9694 7.17158 22H5.24658C5.24658 22 5.30769 21.9389 5.3688 21.9083C5.67436 21.9083 5.94936 21.9389 6.25492 21.9389C6.56047 21.9389 6.86603 21.9389 7.17158 21.9083Z" fill="#394F71"/>
<path d="M7.17188 22C7.17188 22 7.17188 21.9694 7.17188 21.9388C7.26354 21.9388 7.35521 21.9694 7.44687 22H7.17188Z" fill="#394F71"/>
<path d="M7.17168 21.9083C6.86612 21.9083 6.56057 21.9389 6.25501 21.9389C5.94946 21.9389 5.67446 21.9389 5.3689 21.9083C4.51335 21.7556 3.68835 21.45 2.98557 20.9306C2.13001 20.2583 1.5189 19.3722 1.12168 18.3944C0.938346 17.9361 0.938346 17.4472 0.84668 16.9583C0.84668 16.9278 0.84668 16.8972 0.84668 16.8361C0.84668 15.4611 0.84668 14.0556 0.84668 12.6806C0.84668 12.2833 0.84668 11.8556 0.84668 11.4583C0.84668 11.3667 0.84668 11.2444 0.877235 11.1222C1.54946 11.1222 2.19112 11.1222 2.83279 11.1222C3.50501 11.1222 4.17724 11.1222 4.84946 11.1222C4.94112 11.1222 5.00224 11.0917 5.0939 11.0611C5.3689 11.0611 5.67446 11.0611 5.94946 11.0611C6.16335 11.0611 6.37724 11.0611 6.59112 11.0611C6.86612 11.0611 7.17168 11.0306 7.44668 11C7.5689 11 7.66057 11.0611 7.78279 11.0611C9.00501 11.0611 10.2272 11.0611 11.4495 11.0611C11.7245 11.0611 11.7856 11.1528 11.7856 11.3972C11.7856 12.7111 11.7856 14.0556 11.7856 15.3694C11.7856 15.3694 11.7245 15.4 11.7245 15.4306C11.7245 16.0722 11.6633 16.7444 11.6633 17.3861C11.6633 17.4472 11.6633 17.4778 11.6328 17.5389C11.6328 17.5389 11.6328 17.5694 11.6328 17.6C11.5717 17.8444 11.5106 18.0583 11.48 18.3028C11.3272 18.6389 11.1745 18.975 10.9911 19.3111C10.2883 20.625 9.12724 21.3278 7.72168 21.725C7.53835 21.7861 7.38557 21.7861 7.20224 21.8472L7.17168 21.9083Z" fill="#394F71"/>
<path d="M7.44682 11.0612C7.17182 11.0612 6.86627 11.0917 6.59127 11.1223C6.37738 11.1223 6.16349 11.1223 5.9496 11.1223C5.6746 11.1223 5.36904 11.1223 5.09404 11.1223C4.75793 11 4.42182 10.8778 4.08571 10.725C2.74127 10.0834 1.76349 9.07505 1.18293 7.70005C0.816265 6.87505 0.724599 6.05005 0.816265 5.16393C0.938488 3.72782 1.61071 2.53616 2.68015 1.58893C3.4746 0.886157 4.42182 0.488935 5.49127 0.366713C6.68293 0.244491 7.81349 0.336157 8.85238 0.886157C10.0746 1.52782 10.9302 2.47505 11.419 3.75838C11.5718 4.18616 11.6329 4.67505 11.7552 5.13338C11.7552 5.13338 11.7552 5.16393 11.7857 5.19449C11.7857 5.28616 11.7246 5.40838 11.7246 5.50005C11.7246 5.8056 11.7552 6.0806 11.7857 6.38616C11.7246 6.56949 11.6635 6.72227 11.6329 6.9056C11.3579 8.43338 10.5024 9.56394 9.18849 10.3584C8.63849 10.6945 8.02738 10.8778 7.44682 11.1223V11.0612Z" fill="#394F71"/>
<path d="M11.7857 6.29444C11.7857 5.98889 11.7552 5.71389 11.7246 5.40833C11.7246 5.31667 11.7246 5.19445 11.7857 5.10278C11.8774 4.43056 12.0607 3.78889 12.3663 3.17778C13.1607 1.61945 14.4746 0.702779 16.1552 0.336112C17.2552 0.122224 18.3552 0.21389 19.4246 0.641668C20.7996 1.19167 21.7163 2.13889 22.2968 3.45278C22.5413 4.00278 22.6329 4.58333 22.6941 5.16389C22.8468 6.69167 22.3579 8.00556 21.4107 9.16667C20.5857 10.1444 19.4857 10.725 18.2024 10.9694C18.0802 10.9694 17.9579 11.0306 17.8357 11.0917C17.4385 11.0917 17.0413 11.0917 16.6441 11.0917C16.1246 10.9389 15.6052 10.8472 15.1163 10.6333C13.4357 9.96111 12.4274 8.67778 11.9385 6.99722C11.8774 6.75278 11.8163 6.53889 11.7246 6.29444H11.7857Z" fill="#394F71"/>
<path d="M159.216 11C159.033 11.5195 158.849 12.0389 158.666 12.5278C158.238 13.75 157.78 14.9723 157.322 16.1945C157.077 16.8667 156.863 17.5389 156.619 18.2112C156.558 18.3945 156.466 18.5167 156.222 18.4862C155.916 18.4862 155.58 18.4862 155.274 18.4862C155.091 18.4862 154.969 18.4862 154.877 18.2417C154.297 16.6528 153.655 15.0945 153.044 13.5362C152.585 12.3445 152.127 11.1223 151.669 9.9306C151.485 9.44171 151.302 8.95282 151.088 8.46393C151.088 8.40282 151.088 8.37227 151.058 8.31116C151.669 8.31116 152.249 8.31116 152.86 8.31116C152.952 8.31116 153.105 8.43338 153.166 8.52505C153.624 9.83893 154.083 11.1834 154.541 12.4973C154.847 13.3223 155.152 14.1473 155.458 14.9723C155.488 15.0639 155.488 15.1556 155.519 15.2167C155.519 15.2778 155.61 15.3695 155.641 15.4306C155.702 15.3695 155.763 15.3084 155.794 15.2473C155.916 14.8806 156.038 14.5139 156.16 14.1778C156.588 12.9862 157.016 11.7945 157.444 10.6028C157.688 9.9306 157.933 9.22782 158.208 8.5556C158.238 8.46393 158.36 8.34171 158.452 8.34171C158.941 8.34171 159.43 8.34171 159.919 8.34171C160.01 8.34171 160.133 8.43338 160.163 8.52505C160.622 9.74727 161.08 10.9695 161.508 12.2223C161.874 13.2612 162.272 14.3306 162.638 15.3695C162.638 15.4306 162.699 15.4612 162.76 15.5834C162.883 15.2473 162.974 14.9417 163.097 14.6362C163.31 14.025 163.524 13.4139 163.738 12.8334C164.074 11.8862 164.41 10.9695 164.777 10.0223C164.96 9.53338 165.113 9.04449 165.297 8.58616C165.327 8.49449 165.48 8.37227 165.572 8.37227C166.183 8.37227 166.794 8.37227 167.466 8.37227C167.283 8.8306 167.13 9.25838 166.977 9.6556C166.549 10.8167 166.122 11.9473 165.663 13.1084C165.113 14.575 164.563 16.0417 163.983 17.5084C163.86 17.7834 163.799 18.0889 163.677 18.3639C163.647 18.4556 163.524 18.5473 163.433 18.5473C163.035 18.5473 162.608 18.5473 162.21 18.5473C162.149 18.5473 162.027 18.4862 162.027 18.425C161.508 17.1112 161.019 15.7973 160.53 14.4834C160.163 13.475 159.766 12.4362 159.399 11.4278C159.338 11.3056 159.308 11.1528 159.277 11.0306H159.216V11Z" fill="#394F71"/>
<path d="M141.586 14.2388C141.739 15.0944 142.105 15.8277 142.808 16.3472C144 17.2333 145.986 17.2638 147.208 16.3166C147.453 16.1333 147.666 15.8583 147.85 15.5833C147.972 15.4305 148.033 15.4305 148.216 15.4916C148.644 15.6749 149.103 15.8583 149.591 16.0722C149.439 16.3166 149.286 16.5916 149.103 16.8361C148.491 17.6305 147.666 18.1499 146.719 18.4555C145.864 18.7611 144.978 18.7916 144.091 18.6999C142.961 18.5777 141.983 18.0277 141.189 17.1722C140.364 16.3166 139.875 15.2777 139.722 14.0861C139.569 12.7111 139.814 11.4583 140.578 10.3277C141.403 9.13605 142.533 8.40272 143.939 8.15828C145.344 7.91383 146.719 8.15828 147.911 8.98328C148.828 9.62494 149.469 10.5111 149.775 11.6111C149.897 12.0694 149.958 12.5583 149.989 13.0472C150.019 13.3222 149.989 13.6277 149.989 13.9333C149.989 14.1777 149.897 14.2694 149.653 14.2694C147.269 14.2694 144.855 14.2694 142.472 14.2694C142.197 14.2694 141.891 14.2694 141.586 14.2694V14.2388ZM148.155 12.6194C148.094 12.4361 148.064 12.2527 148.033 12.0999C147.789 11.2444 147.3 10.5722 146.475 10.1749C145.925 9.89994 145.314 9.89994 144.703 9.86939C143.725 9.86939 142.9 10.2055 142.319 10.9999C141.953 11.4583 141.739 11.9777 141.678 12.5888H148.125L148.155 12.6194Z" fill="#394F71"/>
<path d="M54.2577 14.2389C54.3188 14.6972 54.4715 15.0944 54.6854 15.4917C55.1438 16.2555 55.7854 16.7444 56.6715 16.8972C57.8632 17.1417 58.9938 16.9889 60.0021 16.1944C60.1854 16.0417 60.3382 15.8278 60.491 15.6444C60.6132 15.4917 60.7354 15.4 60.9493 15.4917C61.3771 15.675 61.8049 15.8583 62.2632 16.0417C61.9882 16.6222 61.6215 17.0805 61.1632 17.4778C60.4299 18.0889 59.6049 18.4861 58.6577 18.6389C56.8549 18.9139 55.2049 18.5778 53.891 17.2333C53.066 16.4083 52.6077 15.3694 52.4243 14.2083C52.3021 13.3833 52.3327 12.5889 52.5771 11.7944C52.8827 10.8167 53.4021 9.9611 54.166 9.28888C54.8688 8.67777 55.7243 8.3111 56.641 8.15832C57.8327 7.97499 58.9938 8.09721 60.0632 8.64721C61.1632 9.22777 61.866 10.1139 62.3243 11.275C62.6299 12.1305 62.7215 12.9861 62.691 13.8722C62.691 14.1778 62.6299 14.2389 62.3243 14.2389C59.6965 14.2389 57.0688 14.2389 54.441 14.2389C54.4104 14.2389 54.3493 14.2389 54.2882 14.2389H54.2577ZM60.766 12.6194C60.7049 12.4055 60.6743 12.2222 60.6438 12.0389C60.3688 11.1222 59.8188 10.4805 58.9021 10.1139C58.4132 9.89999 57.9243 9.89999 57.4049 9.93055C57.0688 9.93055 56.7327 9.93055 56.4271 10.0222C55.6327 10.2361 55.0215 10.7555 54.6549 11.4889C54.4715 11.825 54.3799 12.2222 54.2577 12.65H60.766V12.6194Z" fill="#394F71"/>
<path d="M104.827 14.2084C105.041 15.2473 105.469 16.0417 106.355 16.5612C107.027 16.9278 107.76 17.05 108.494 16.9889C109.563 16.8667 110.48 16.5 111.122 15.5834C111.183 15.5223 111.335 15.4612 111.397 15.4917C111.855 15.675 112.313 15.8584 112.802 16.0417C112.344 16.9278 111.672 17.6 110.816 18.0584C109.777 18.6084 108.708 18.7917 107.547 18.7C106.202 18.5778 105.102 18.0278 104.216 17.0195C103.452 16.1639 103.055 15.1556 102.902 14.025C102.719 12.4667 103.085 11.0917 104.155 9.90004C105.01 8.92226 106.11 8.31115 107.424 8.15838C108.983 7.97504 110.419 8.31115 111.61 9.3806C112.405 10.0834 112.894 11 113.077 12.0084C113.199 12.65 113.199 13.3223 113.26 13.9945C113.26 14.1778 113.169 14.2389 112.985 14.2389C110.388 14.2389 107.791 14.2389 105.224 14.2389C105.102 14.2389 104.98 14.2389 104.827 14.2389V14.2084ZM111.397 12.6195C111.305 12.2834 111.244 11.9778 111.091 11.6723C110.755 10.8778 110.174 10.3278 109.349 10.0528C108.86 9.90004 108.372 9.90004 107.883 9.90004C106.63 9.90004 105.744 10.4806 105.224 11.5806C105.072 11.8862 104.98 12.2528 104.858 12.6195H111.397Z" fill="#394F71"/>
<path d="M86.2191 8.3417C86.2191 8.3417 86.3107 8.46392 86.3107 8.52503C86.3107 8.95281 86.3107 9.41114 86.3107 9.80837C86.6163 9.50281 86.8913 9.10559 87.258 8.86114C88.1441 8.21948 89.1524 7.97503 90.283 8.12781C90.9552 8.21948 91.5663 8.43337 92.1469 8.76948C93.0024 9.28892 93.4302 10.1139 93.6746 11C93.8274 11.5806 93.858 12.1917 93.8885 12.8028C93.8885 14.6056 93.8885 16.4389 93.8885 18.2417C93.8885 18.4556 93.8274 18.5167 93.6135 18.5167C93.0635 18.5167 92.5441 18.5167 91.9635 18.5167C91.9635 18.2111 91.9941 17.9361 91.9941 17.6611C91.9941 16.1028 91.9941 14.5445 91.9941 12.9861C91.9941 12.375 91.933 11.7639 91.6274 11.2139C91.1996 10.4195 90.558 9.9917 89.6107 9.9917C88.9691 9.9917 88.358 10.0223 87.808 10.3584C86.983 10.8167 86.4941 11.4889 86.3719 12.4361C86.3107 12.8639 86.3107 13.2917 86.3107 13.7195C86.3107 15.2167 86.3107 16.7139 86.3107 18.2111V18.4861H84.3857C84.3857 18.2723 84.4469 18.0584 84.4469 17.875C84.4469 14.7889 84.4469 11.7028 84.4469 8.58614C84.4469 8.40281 84.4774 8.31114 84.6913 8.31114C85.1802 8.31114 85.6691 8.31114 86.1885 8.31114C86.1885 8.31114 86.2191 8.31114 86.2496 8.31114L86.2191 8.3417Z" fill="#394F71"/>
<path d="M38.3993 17.05C37.8187 17.9361 36.9632 18.425 35.9243 18.6389C34.7632 18.8833 33.6632 18.7611 32.6549 18.0889C31.891 17.6 31.4326 16.8666 31.1882 16.0416C31.0049 15.4305 30.9437 14.7889 30.9743 14.1777C30.9743 12.2833 30.9743 10.3889 30.9743 8.52497C30.9743 8.49441 30.9743 8.4333 30.9743 8.37219C31.5549 8.37219 32.1354 8.37219 32.716 8.37219C32.7771 8.37219 32.8382 8.49441 32.8687 8.58608C32.8687 8.83053 32.8687 9.10553 32.8687 9.34997C32.8687 11.1222 32.8687 12.8944 32.8687 14.6666C32.8687 15.7361 33.816 16.8361 34.8854 16.9889C35.7104 17.1111 36.5049 16.9889 37.2076 16.5305C37.8799 16.1027 38.3382 15.4611 38.4299 14.6666C38.491 14.025 38.5521 13.3527 38.5521 12.7111C38.5521 11.3666 38.5521 10.0222 38.5521 8.64719C38.5521 8.46386 38.5826 8.40275 38.766 8.40275C39.2854 8.40275 39.8049 8.40275 40.2937 8.40275C40.2937 8.40275 40.3243 8.40275 40.3549 8.40275C40.3854 8.49441 40.4465 8.58608 40.4465 8.64719C40.4465 9.77775 40.4465 10.9083 40.4465 12.0389C40.4465 14.1166 40.4465 16.1639 40.4465 18.2416C40.4465 18.3333 40.4465 18.425 40.4465 18.5166H38.5521V17.0805C38.5521 17.0805 38.5521 16.9583 38.5215 16.8361C38.4604 16.9583 38.4604 17.0194 38.4299 17.0805L38.3993 17.05Z" fill="#394F71"/>
<path d="M44.5108 15.5222C44.633 16.5916 45.5802 17.1416 46.4052 17.1111C46.9247 17.1111 47.4441 17.1111 47.933 16.8361C48.5441 16.5305 48.6663 16.0416 48.6052 15.4305C48.5441 14.9416 48.208 14.6055 47.7802 14.4833C47.0775 14.2694 46.3441 14.1472 45.6413 13.9333C44.908 13.7194 44.1747 13.4138 43.7163 12.7416C43.1663 11.9777 43.0136 11.1527 43.3191 10.2666C43.7775 9.01384 44.7552 8.34162 46.0691 8.15828C47.0775 8.0055 48.0247 8.18884 48.9108 8.67773C49.6441 9.07495 50.0719 9.71662 50.1636 10.5416C50.2247 11.0305 50.1941 11.0305 49.6747 11.0305C49.308 11.0305 48.9413 11.0305 48.5747 11.0305C48.483 11.0305 48.3608 10.9388 48.3302 10.8777C48.2386 10.3277 47.9025 9.99162 47.383 9.86939C46.8636 9.71662 46.3136 9.68606 45.7941 9.96106C45.2747 10.2361 45.0302 10.6638 45.0608 11.2444C45.0608 11.7638 45.3969 12.0694 45.8552 12.2222C46.4358 12.4361 47.0469 12.5583 47.658 12.7111C48.2386 12.8638 48.8497 13.0166 49.3691 13.3833C50.2247 13.9944 50.5608 14.8194 50.5302 15.8888C50.4997 16.6222 50.1941 17.2027 49.6441 17.6916C49.0025 18.2722 48.2386 18.5472 47.383 18.6999C46.283 18.9138 45.2441 18.6999 44.2969 18.1194C43.4719 17.6305 42.983 16.8361 42.7691 15.8888C42.7691 15.7972 42.708 15.7361 42.708 15.675C42.708 15.6138 42.7997 15.4916 42.8302 15.4916C43.3802 15.4916 43.9302 15.4916 44.4802 15.4916L44.5108 15.5222Z" fill="#394F71"/>
<path d="M170.186 15.5223C170.308 16.5917 171.255 17.1417 172.08 17.1111C172.599 17.1111 173.088 17.1111 173.608 16.8361C174.219 16.5306 174.341 16.0417 174.28 15.4306C174.249 15.0334 173.913 14.6056 173.455 14.4834C172.752 14.2695 172.019 14.1473 171.316 13.9334C170.552 13.7195 169.849 13.4139 169.361 12.7417C168.811 11.9778 168.658 11.1223 168.994 10.2667C169.483 9.04448 170.43 8.37226 171.744 8.18892C172.752 8.03615 173.73 8.21948 174.586 8.73892C175.288 9.1667 175.716 9.80837 175.808 10.6334C175.838 11.0917 175.838 11.0917 175.38 11.0917C175.013 11.0917 174.677 11.0917 174.311 11.0917C174.127 11.0917 174.036 11.0917 174.005 10.8473C173.913 10.3278 173.547 10.0223 173.027 9.90004C172.416 9.74726 171.805 9.74726 171.255 10.175C170.674 10.6028 170.461 11.7639 171.347 12.1611C171.805 12.375 172.324 12.4973 172.844 12.65C173.241 12.7723 173.669 12.8334 174.066 12.9556C175.197 13.3223 176.022 14.0556 176.205 15.2473C176.358 16.225 176.083 17.0806 175.288 17.7528C174.28 18.5778 173.119 18.8834 171.897 18.7611C170.308 18.5778 168.933 17.7834 168.505 15.9195C168.505 15.8278 168.444 15.7667 168.444 15.7056C168.444 15.6445 168.536 15.5223 168.566 15.5223C169.116 15.5223 169.666 15.5223 170.216 15.5223H170.186Z" fill="#394F71"/>
<path d="M122.947 8.34167C123.558 8.34167 124.108 8.34167 124.658 8.34167C124.872 8.34167 124.994 8.43334 125.085 8.64723C125.452 9.59445 125.849 10.5111 126.216 11.4583C126.644 12.5583 127.102 13.6583 127.53 14.7278C127.713 15.1861 127.927 15.6445 128.141 16.1639C128.355 15.6445 128.538 15.1861 128.722 14.6972C129.149 13.6278 129.577 12.5583 130.005 11.5195C130.402 10.5417 130.799 9.5639 131.197 8.58612C131.227 8.49445 131.319 8.40279 131.38 8.37223C132.022 8.37223 132.663 8.37223 133.335 8.37223C133.06 9.0139 132.816 9.62501 132.541 10.2361C132.022 11.4889 131.502 12.7417 130.983 13.9639C130.494 15.0945 130.005 16.225 129.516 17.3556C129.394 17.6611 129.241 17.9667 129.119 18.3028C129.058 18.4861 128.966 18.5472 128.783 18.5472C128.324 18.5472 127.835 18.5472 127.377 18.5472C127.255 18.5472 127.163 18.5472 127.102 18.3945C126.552 17.05 125.972 15.7361 125.422 14.3917C124.933 13.2 124.413 12.0083 123.924 10.8167C123.619 10.0833 123.313 9.38056 123.008 8.64723C122.977 8.55556 122.947 8.49445 122.916 8.37223L122.947 8.34167Z" fill="#394F71"/>
<path d="M99.5717 4.79718V8.31107C99.5717 8.31107 99.7551 8.31107 99.8467 8.31107C100.427 8.31107 100.977 8.31107 101.558 8.31107C101.772 8.31107 101.833 8.40273 101.833 8.58607C101.833 8.95273 101.833 9.3194 101.833 9.68607C101.833 9.89996 101.772 9.96107 101.558 9.96107C100.977 9.96107 100.397 9.96107 99.8162 9.96107C99.6023 9.96107 99.5106 9.99162 99.5717 10.2361C99.6328 10.4194 99.5717 10.6333 99.5717 10.8472C99.5717 13.1388 99.5717 15.4 99.5717 17.6916C99.5717 17.9666 99.5717 18.2416 99.5412 18.5166H97.7078V10.0222H95.8745C95.8745 9.50273 95.8745 9.01385 95.8745 8.52496C95.8745 8.46385 96.0273 8.40273 96.119 8.40273C96.5773 8.40273 97.0356 8.40273 97.494 8.40273C97.5551 8.40273 97.6162 8.37218 97.7078 8.34162C97.7078 8.34162 97.7078 8.31107 97.7078 8.28051V4.55273C97.9828 4.55273 98.2273 4.55273 98.5023 4.55273C98.8078 4.55273 99.1134 4.55273 99.419 4.55273C99.5717 4.55273 99.6328 4.58329 99.6023 4.73607C99.6023 4.73607 99.6023 4.76662 99.6023 4.79718H99.5717Z" fill="#394F71"/>
<path d="M122.03 10.2667C121.297 9.96117 120.563 9.83894 119.83 10.0834C118.944 10.3584 118.455 11.0001 118.149 11.7945C117.813 12.6501 117.691 13.5362 117.691 14.4528C117.691 15.7973 117.691 17.1417 117.691 18.4862H115.766V8.34172C116.347 8.34172 116.958 8.34172 117.538 8.34172C117.599 8.34172 117.691 8.46394 117.691 8.52505C117.691 9.16672 117.691 9.80839 117.661 10.4501C117.661 10.4501 117.691 10.5112 117.722 10.5417C117.844 10.2362 117.966 9.96117 118.119 9.65561C118.516 8.83061 119.127 8.28061 120.044 8.12783C120.502 8.06672 120.961 8.12783 121.419 8.15839C121.663 8.15839 121.908 8.31117 122.122 8.37228C122.274 8.43339 122.336 8.55561 122.305 8.67783C122.213 9.19728 122.122 9.68617 122.03 10.2056V10.2667Z" fill="#394F71"/>
<path d="M65.2578 8.34164C65.8078 8.34164 66.3273 8.34164 66.8773 8.34164C66.9689 8.34164 67.0606 8.40275 67.1523 8.43331C67.1523 8.43331 67.1523 8.46386 67.1523 8.49442C67.1523 9.04442 67.1523 9.62497 67.1523 10.175C67.1523 10.175 67.1523 10.2055 67.1523 10.2361C67.1523 10.3278 67.1523 10.4194 67.1523 10.4805H67.2134C67.3356 10.2055 67.4578 9.93053 67.58 9.68608C68.1606 8.55553 69.1995 7.85275 70.605 8.12775C70.9411 8.18886 71.2467 8.28053 71.5523 8.34164C71.7661 8.40275 71.7967 8.55553 71.7661 8.70831C71.705 9.04442 71.6439 9.38053 71.5828 9.71664C71.5828 9.86942 71.5217 10.0222 71.5217 10.175C71.1856 10.0833 70.88 9.99164 70.5745 9.96108C69.6884 9.77775 68.8939 9.96108 68.2828 10.6639C67.7328 11.275 67.4578 11.9778 67.305 12.7722C67.0911 13.9028 67.1828 15.0639 67.1523 16.225C67.1523 16.9583 67.1523 17.7222 67.1523 18.4555H65.2578C65.2578 18.4555 65.2578 18.2416 65.2578 18.1194C65.2578 15.3694 65.2578 12.65 65.2578 9.89997C65.2578 9.38053 65.2578 8.86108 65.2578 8.34164C65.2578 8.34164 65.2884 8.31108 65.3189 8.28053L65.2578 8.34164Z" fill="#394F71"/>
<path d="M79.6496 8.34167C80.0774 8.34167 80.5357 8.34167 80.9635 8.34167C81.1468 8.34167 81.2079 8.4639 81.2079 8.58612C81.2079 11.8556 81.2079 15.0945 81.2079 18.3639C81.2079 18.3945 81.2079 18.4556 81.2079 18.5167H79.3135V8.37223C79.3135 8.37223 79.4968 8.37223 79.5579 8.37223C79.5579 8.37223 79.5885 8.37223 79.619 8.37223L79.6496 8.34167Z" fill="#394F71"/>
<path d="M137.124 18.5167C136.544 18.5167 136.024 18.5167 135.474 18.5167C135.261 18.5167 135.23 18.425 135.23 18.2417C135.23 16.3472 135.23 14.4528 135.23 12.5583C135.23 11.2445 135.23 9.96112 135.23 8.64723C135.23 8.40279 135.291 8.34167 135.536 8.34167C136.055 8.34167 136.574 8.34167 137.124 8.34167V18.5167Z" fill="#394F71"/>
<path d="M80.2605 3.36111C81.0549 3.3 81.6355 3.88055 81.6049 4.61389C81.6049 5.34722 80.9632 5.89722 80.2299 5.86666C79.4355 5.86666 78.9466 5.31666 78.916 4.61389C78.916 3.91111 79.4966 3.36111 80.2605 3.36111Z" fill="#394F71"/>
<path d="M136.177 3.36114C137.033 3.33058 137.522 3.91114 137.522 4.58336C137.522 5.28614 137.033 5.83614 136.177 5.8667C135.444 5.8667 134.863 5.22503 134.863 4.64447C134.863 3.88058 135.413 3.36114 136.177 3.36114Z" fill="#394F71"/>
<path d="M38.3994 17.05C38.3994 17.05 38.43 16.9278 38.4911 16.8055C38.4911 16.9278 38.4911 16.9889 38.5216 17.05C38.4911 17.05 38.43 17.05 38.3994 17.05Z" fill="#394F71"/>
<path d="M65.2579 8.34167C65.2579 8.34167 65.2273 8.37223 65.1968 8.40279C65.1968 8.40279 65.2273 8.37223 65.2579 8.34167Z" fill="#394F71"/>
<path d="M11.7855 15.4C11.7855 15.4 11.8161 15.4306 11.8466 15.4611C11.8466 16.1028 11.7855 16.775 11.7855 17.4167C11.755 17.4167 11.7244 17.4167 11.6938 17.4167C11.6938 16.775 11.7244 16.1028 11.755 15.4611C11.755 15.4611 11.7855 15.4306 11.8161 15.4H11.7855Z" fill="#394F71"/>
<path d="M11.6939 17.4166C11.6939 17.4166 11.755 17.4166 11.7855 17.4166C11.7855 17.7222 11.7855 17.9972 11.7855 18.3027C11.6939 18.3027 11.5716 18.3333 11.48 18.3638C11.5411 18.1194 11.6022 17.9055 11.6328 17.6611C11.6328 17.6611 11.6328 17.6305 11.6328 17.6C11.6328 17.5388 11.6328 17.5083 11.6633 17.4472L11.6939 17.4166Z" fill="#394F71"/>
</g>
<defs>
<clipPath id="clip0_222_13527">
<rect width="176" height="22" fill="white" transform="translate(0.418945)"/>
</clipPath>
</defs>
</svg>
