<svg width="180" height="28" viewBox="0 0 180 28" fill="none" xmlns="http://www.w3.org/2000/svg">
<g clip-path="url(#clip0_286_4587)">
<path d="M12.9956 0.000488281C14.2852 0.000488281 15.4756 0.100414 16.5669 0.396234C17.6581 0.594107 18.5509 0.989853 19.3446 1.48453C20.1382 1.97922 20.7334 2.67177 21.1302 3.56319C21.527 4.45263 21.7254 5.54192 21.7254 6.72916C21.7254 8.11328 21.4278 9.3015 20.7334 10.1919C20.1382 11.0814 19.1461 11.8729 17.9557 12.4665C19.6422 12.9612 20.9318 13.8506 21.7254 15.0388C22.519 16.2261 23.0151 17.7101 23.0151 19.392C23.0151 20.7762 22.7174 21.9644 22.2214 22.9537C21.7254 23.9431 20.9318 24.8335 20.039 25.4272C19.1461 26.0218 18.0549 26.5164 16.8645 26.8123C15.674 27.1081 14.4836 27.3069 13.2932 27.3069H0V0.000488281H12.9956ZM12.2019 11.0814C13.2932 11.0814 14.186 10.7846 14.8804 10.2899C15.5748 9.7952 15.8725 8.90477 15.8725 7.81647C15.8725 7.22285 15.7733 6.62923 15.5748 6.23348C15.3764 5.83774 15.0788 5.54093 14.682 5.24412C14.2852 5.04625 13.8884 4.84837 13.3924 4.74944C12.8964 4.6505 12.4004 4.6505 11.8051 4.6505H6.05137V11.0814H12.2019ZM12.4996 22.7559C13.0948 22.7559 13.69 22.6569 14.186 22.559C14.682 22.4591 15.178 22.2612 15.5748 21.9644C15.9717 21.6676 16.2693 21.3708 16.5669 20.8761C16.7653 20.3814 16.9637 19.7868 16.9637 19.0952C16.9637 17.7101 16.5669 16.7207 15.7733 16.0272C14.9796 15.4336 13.8884 15.1378 12.5988 15.1378H6.05137V22.7559H12.4996ZM31.6457 22.6569C32.4393 23.4484 33.6298 23.8442 35.217 23.8442C36.3082 23.8442 37.3003 23.5474 38.0939 23.0527C38.8875 22.4581 39.3835 21.8654 39.5819 21.2708H44.4429C43.6492 23.6453 42.4588 25.3282 40.8716 26.4155C39.2843 27.4049 37.3995 27.9995 35.1178 27.9995C33.5306 27.9995 32.1417 27.7017 30.8521 27.207C29.5624 26.7123 28.5704 26.0208 27.6776 25.0314C26.7848 24.141 26.0903 23.0527 25.6935 21.7655C25.1975 20.4793 24.9991 19.0952 24.9991 17.5112C24.9991 16.0272 25.1975 14.6431 25.6935 13.3559C26.1895 12.0697 26.884 10.9824 27.7768 9.99307C28.6696 9.10264 29.7609 8.31115 30.9513 7.81647C32.2409 7.32178 33.5306 7.02498 35.1178 7.02498C36.8043 7.02498 38.2923 7.32178 39.5819 8.01434C40.8716 8.70689 41.8636 9.49839 42.6572 10.6856C43.4508 11.7739 44.0461 13.0591 44.4429 14.4452C44.6413 15.8303 44.7405 17.2154 44.6413 18.7984H30.2569C30.2569 20.3814 30.8521 21.8654 31.6457 22.6569ZM37.8955 12.2686C37.2011 11.5761 36.1098 11.1803 34.8202 11.1803C33.9274 11.1803 33.233 11.3772 32.6377 11.675C32.0425 11.9718 31.6457 12.3666 31.2489 12.7633C30.8521 13.16 30.6537 13.6537 30.5545 14.1484C30.4553 14.6431 30.3561 15.0378 30.3561 15.4346H39.2843C39.0859 13.9505 38.5899 12.9612 37.8955 12.2686ZM52.3791 0.000488281V10.2899H52.4783C53.1727 9.10264 54.0655 8.31115 55.1568 7.81647C56.248 7.32178 57.24 7.02498 58.3313 7.02498C59.8193 7.02498 61.0097 7.22285 61.9026 7.61859C62.7954 8.01434 63.589 8.60796 64.085 9.30051C64.581 9.99307 64.9779 10.8835 65.1763 11.8729C65.3747 12.8622 65.4739 13.9515 65.4739 15.2367V27.4059H60.0177V16.2261C60.0177 14.5441 59.7201 13.3569 59.2241 12.5654C58.7281 11.7739 57.8353 11.3782 56.5456 11.3782C55.0576 11.3782 53.9663 11.8729 53.3711 12.6653C52.6767 13.5548 52.3791 15.0388 52.3791 17.0176V27.4059H46.9229V0.000488281H52.3791ZM69.442 10.4878C70.0372 9.59732 70.7316 9.0037 71.6244 8.4091C72.5173 7.91441 73.5093 7.51966 74.6005 7.3208C75.6918 7.12292 76.782 7.02399 77.8742 7.02399C78.8663 7.02399 79.8583 7.12292 80.9505 7.22186C81.9425 7.3208 82.9346 7.61662 83.7272 8.01335C84.62 8.40811 85.2152 9.00271 85.8114 9.69527C86.3065 10.3888 86.6041 11.3782 86.6041 12.5654V22.9537C86.6041 23.8442 86.7033 24.7346 86.8025 25.5271C86.9027 26.3186 87.1983 27.0111 87.4969 27.4059H81.9415C81.7421 27.208 81.6429 26.8123 81.5447 26.5164C81.4455 26.2186 81.4455 25.8239 81.4455 25.5271C80.5527 26.4165 79.5607 27.0111 78.3702 27.4059C77.1798 27.8016 75.9894 27.9006 74.7989 27.9006C73.8069 27.9006 73.0133 27.8016 72.1205 27.5058C71.3268 27.3079 70.6324 26.9112 69.938 26.4165C69.3428 25.9218 68.8468 25.3282 68.45 24.5377C68.1524 23.7452 67.9539 22.9537 67.9539 21.8654C67.9539 20.7762 68.1523 19.7868 68.5492 19.0952C68.946 18.4027 69.442 17.809 70.0372 17.3144C70.6324 16.9196 71.426 16.5229 72.2197 16.325C73.0133 16.1281 73.8069 15.9302 74.6997 15.8303L77.0806 15.5335C77.8742 15.4346 78.5686 15.3356 79.1639 15.2367C79.7591 15.0388 80.2551 14.841 80.6519 14.5441C81.0487 14.2473 81.1479 13.8516 81.1479 13.258C81.1479 12.6644 81.0487 12.1697 80.8503 11.8729C80.6519 11.5761 80.3543 11.2792 80.0567 11.0814C79.7581 10.8835 79.3623 10.7846 78.9655 10.6866C78.5686 10.5867 78.0726 10.5867 77.5766 10.5867C76.4854 10.5867 75.6918 10.7846 75.0965 11.2792C74.5013 11.7739 74.1045 12.5654 74.0053 13.5548H68.5492C68.5492 12.3675 68.946 11.2792 69.442 10.4878ZM80.2541 18.2048C79.9575 18.3037 79.5607 18.4027 79.1629 18.5016C78.7661 18.6015 78.3692 18.6015 77.8732 18.6995C77.4774 18.7984 76.9814 18.7984 76.5836 18.8973L75.3932 19.1942C74.9964 19.2931 74.5995 19.491 74.4011 19.6888C74.1035 19.8867 73.9051 20.1835 73.7067 20.4803C73.4101 20.8761 73.4101 21.2718 73.4101 21.7665C73.4101 22.2612 73.5093 22.6569 73.7077 22.9537C73.9061 23.2506 74.1045 23.5483 74.4021 23.7452C74.6997 23.9431 75.0965 24.043 75.4934 24.141C75.8902 24.2389 76.286 24.2399 76.782 24.2399C77.8742 24.2399 78.6669 24.043 79.2621 23.7452C79.8583 23.3505 80.2541 22.9537 80.5527 22.4591C80.8503 21.9644 81.0487 21.4697 81.0487 20.975C81.1479 20.4803 81.1479 20.0856 81.1479 19.7878V17.7101C80.8503 17.908 80.5527 18.1068 80.2541 18.2048ZM94.8389 7.51966V10.2899H94.9381C95.6315 9.10264 96.5254 8.31115 97.6156 7.81647C98.7078 7.32178 99.8982 7.02498 100.988 7.02498C102.477 7.02498 103.667 7.22285 104.56 7.61859C105.552 8.01434 106.247 8.60796 106.743 9.30051C107.239 9.99307 107.635 10.8835 107.933 11.8729C108.131 12.8622 108.231 13.9515 108.231 15.2367V27.4059H102.775V16.2261C102.775 14.5441 102.477 13.3569 101.981 12.5654C101.485 11.7739 100.592 11.2792 99.2028 11.2792C97.7148 11.2792 96.6226 11.8729 95.9291 12.7633C95.2347 13.6537 94.9371 15.1378 94.9371 17.1165V27.5048H89.481V7.51966H94.8389ZM120.431 11.0814C119.539 11.0814 118.844 11.2792 118.25 11.676C117.655 12.0707 117.159 12.5654 116.762 13.259C116.365 13.8526 116.167 14.5451 115.967 15.3366C115.77 16.1291 115.77 16.8207 115.77 17.6132C115.77 18.3047 115.869 19.0972 115.967 19.7888C116.167 20.5812 116.364 21.1739 116.762 21.7675C117.159 22.3621 117.555 22.8568 118.151 23.2515C118.746 23.6473 119.439 23.8461 120.332 23.8461C121.623 23.8461 122.615 23.4504 123.407 22.7569C124.103 22.0653 124.599 21.0759 124.698 19.7888H129.956C129.56 22.46 128.568 24.4388 126.879 25.8249C125.194 27.209 123.012 27.9025 120.332 27.9025C118.844 27.9025 117.455 27.6057 116.265 27.1111C114.974 26.6164 113.982 25.9238 113.09 25.0334C112.198 24.143 111.502 23.0547 111.006 21.8674C110.51 20.5812 110.313 19.2941 110.313 17.81C110.313 16.2271 110.51 14.8419 111.006 13.5558C111.502 12.2696 112.098 11.0824 112.99 10.093C113.883 9.10363 114.974 8.41107 116.166 7.81746C117.454 7.32277 118.843 7.02596 120.43 7.02596C121.622 7.02596 122.713 7.22384 123.803 7.52065C124.893 7.81746 125.886 8.31214 126.68 8.90477C127.573 9.49938 128.267 10.2899 128.763 11.2792C129.259 12.1697 129.558 13.3569 129.656 14.6431H124.299C124.104 12.2686 122.813 11.0814 120.431 11.0814ZM29.1656 1.88028H40.2763V4.55156H29.1656V1.88028ZM138.19 22.6569C138.984 23.4484 140.273 23.8442 141.761 23.8442C142.853 23.8442 143.845 23.5474 144.638 23.0527C145.432 22.4581 145.928 21.8654 146.126 21.2708H150.889C150.094 23.6453 148.904 25.3282 147.316 26.4155C145.728 27.4049 143.844 27.9995 141.562 27.9995C139.975 27.9995 138.586 27.7017 137.296 27.207C136.075 26.753 134.985 26.0057 134.122 25.0314C133.229 24.141 132.535 23.0527 132.138 21.7655C131.642 20.4793 131.444 19.0952 131.444 17.5112C131.444 16.0272 131.642 14.6431 132.138 13.3559C132.616 12.1151 133.323 10.9745 134.221 9.99307C135.114 9.10264 136.205 8.31115 137.396 7.81647C138.686 7.32178 140.074 7.02498 141.562 7.02498C143.248 7.02498 144.736 7.32178 145.927 8.01434C147.216 8.70689 148.208 9.49839 149.003 10.6856C149.796 11.7739 150.391 13.0591 150.788 14.4452C151.184 15.8293 151.284 17.3134 151.184 18.8973H136.8C136.8 20.3814 137.396 21.8654 138.19 22.6569ZM144.539 12.2686C143.844 11.5761 142.752 11.1803 141.463 11.1803C140.57 11.1803 139.875 11.3772 139.28 11.675C138.685 11.9718 138.189 12.3666 137.892 12.7633C137.595 13.16 137.296 13.6537 137.198 14.1484C137.099 14.6431 137 15.0378 137 15.4346H145.928C145.63 13.9505 145.134 12.9612 144.539 12.2686Z" fill="#394F71"/>
<path d="M169.221 4L172.332 10.8887L179.221 14L172.332 17.1113L169.221 24L166.109 17.1113L159.221 14L166.109 10.8887L169.221 4Z" fill="#7DC1CA"/>
</g>
<defs>
<clipPath id="clip0_286_4587">
<rect width="179.22" height="28" fill="white"/>
</clipPath>
</defs>
</svg>
