<svg width="164" height="38" viewBox="0 0 164 38" fill="none" xmlns="http://www.w3.org/2000/svg">
<g clip-path="url(#clip0_286_4589)">
<path fill-rule="evenodd" clip-rule="evenodd" d="M133.688 20.5683C133.973 20.2356 134.478 20.2513 134.738 20.6057H134.736L135.723 21.9584C135.91 22.2183 135.91 22.5766 135.713 22.8306C133.999 25.0574 130.994 27.2016 127.371 27.4083C124.51 27.5717 122.151 26.4849 120.865 24.4333C120.612 24.0277 120.049 24.0041 119.764 24.388C118.24 26.4357 116.396 28.0384 114.475 28.1486C111.054 28.3436 110.087 26.0458 110.933 20.9779C111.017 20.4738 110.577 20.0466 110.101 20.1726C109.391 20.3616 108.638 20.4443 107.873 20.3773C107.555 20.3498 107.258 20.5447 107.162 20.8597C105.895 25.0259 102.881 28.9008 98.9807 29.1232C96.4897 29.265 92.7699 27.8375 93.1435 21.8678C93.1749 21.3815 92.7384 20.9995 92.2902 21.1354C91.5097 21.3736 90.6682 21.4858 89.8129 21.413C89.4964 21.3854 89.1995 21.5803 89.1032 21.8954C87.837 26.0616 84.823 29.9364 80.9223 30.1589C78.4313 30.3006 74.7115 28.8732 75.085 22.9034C75.1165 22.4171 74.68 22.0352 74.2318 22.171C73.4512 22.4093 72.6098 22.5234 71.7545 22.4486C71.438 22.4211 71.1411 22.616 71.0448 22.931C69.7786 27.0972 66.7646 30.9721 62.8639 31.1945C61.0925 31.2969 58.6958 30.6019 57.5968 28.0423C57.3845 27.5481 56.7494 27.4733 56.4348 27.9025C54.8954 30.0073 53.0178 31.669 51.0596 31.7813C49.0522 31.8974 47.9532 31.0902 47.4754 29.6509C47.3064 29.1429 46.6713 29.0228 46.3292 29.4245C44.9589 31.039 43.3978 32.2203 41.8171 32.3109C39.3811 32.4527 37.9793 30.6452 37.8652 28.4538C37.7316 25.8982 38.8345 22.9074 40.0673 19.6429C40.2383 19.1901 39.9296 18.6979 39.4617 18.6782C38.7519 18.6486 37.94 18.5738 37.1771 18.4301C36.8331 18.3631 36.4988 18.5777 36.4005 18.9282C34.9437 24.138 32.7122 29.2453 30.8287 32.2637C30.6183 32.6023 30.1838 32.6909 29.8672 32.4586L28.43 31.3993C28.1351 31.1808 28.0545 30.7594 28.2531 30.4404C30.9742 26.0754 33.3885 19.2432 34.2221 14.191C34.2752 13.8681 34.5367 13.6279 34.8513 13.6102L36.7623 13.4999C37.2007 13.4743 37.5467 13.8839 37.4661 14.3347L37.4583 14.382C37.3875 14.7837 37.6549 15.1597 38.0402 15.2129C39.7546 15.4491 42.3164 15.4787 44.0564 15.4098C44.546 15.392 44.89 15.8981 44.7131 16.3706C43.3172 20.0879 41.4494 25.2386 41.5556 27.2764C41.6047 28.1979 42.0097 28.6999 42.7234 28.6586C44.0898 28.5798 46.1896 25.8293 47.7821 22.7676C47.8116 22.7125 47.8333 22.6534 47.8451 22.5924C48.3818 20.1942 49.1781 17.5204 49.9822 14.8191L50.0313 14.6517C50.1139 14.3702 50.3577 14.1733 50.6408 14.1556L52.9313 14.0256C53.4032 13.9981 53.757 14.4745 53.6135 14.9451C53.4956 15.333 53.3776 15.7189 53.2616 16.1009C51.2464 22.7144 49.5536 28.2687 51.8342 28.1388C53.3245 28.0541 55.4341 25.5221 57.2508 21.919C57.2803 21.8599 57.3019 21.7969 57.3137 21.73C57.4041 21.2594 57.5162 20.7672 57.6518 20.2513C58.7096 16.0162 59.9109 11.8224 61.1121 7.62272C61.4837 6.32718 61.8534 5.02967 62.221 3.73215C62.3016 3.44469 62.5474 3.24386 62.8344 3.22614L65.1859 3.09226C65.6636 3.06469 66.0175 3.54511 65.8661 4.01962C64.9283 6.96905 63.9453 10.1095 63.0133 13.1337C62.8167 13.7716 63.499 14.3013 64.0377 13.9331C64.9657 13.2971 66.0372 12.8758 67.0752 12.8167C69.7196 12.6651 71.5205 14.8447 71.6936 18.1288C71.7034 18.3021 71.7132 18.4892 71.7172 18.6801C71.727 19.0444 71.9983 19.3377 72.3463 19.3673C73.5908 19.4775 74.8648 19.1074 75.8479 18.2293C75.9482 18.1387 76.017 18.0166 76.0504 17.8847C77.0256 14.0945 78.101 10.3319 79.1765 6.56542C79.5461 5.27578 79.9137 3.98614 80.2794 2.69454C80.36 2.40707 80.6058 2.20625 80.8928 2.18853L83.2423 2.05464C83.7201 2.02707 84.0739 2.50749 83.9245 2.982C82.9847 5.93143 82.0037 9.07184 81.0718 12.0961C80.8751 12.734 81.5574 13.2637 82.0961 12.8955C83.0241 12.2595 84.0956 11.8382 85.1337 11.7791C87.78 11.6275 89.579 13.8071 89.752 17.0912C89.7618 17.2645 89.7716 17.4515 89.7756 17.6425C89.7834 18.0068 90.0567 18.3001 90.4047 18.3297C91.6492 18.4399 92.9233 18.0698 93.9063 17.1916C94.0066 17.1011 94.0754 16.979 94.1108 16.8471C95.0859 13.0569 96.1614 9.29433 97.2368 5.5278C97.6065 4.23816 97.9741 2.94853 98.3398 1.65692C98.4224 1.36946 98.6662 1.16863 98.9532 1.15091L101.305 1.01702C101.782 0.98946 102.136 1.46987 101.985 1.94438C101.047 4.89381 100.066 8.03422 99.1321 11.0585C98.9355 11.6964 99.6178 12.226 100.156 11.8578C101.084 11.2219 102.156 10.8005 103.194 10.7415C105.838 10.5899 107.639 12.7695 107.812 16.0536C107.822 16.2288 107.832 16.4139 107.836 16.6049C107.846 16.9672 108.117 17.2625 108.463 17.292C109.668 17.3984 110.899 17.0558 111.868 16.2387C111.977 16.1481 112.051 16.0221 112.087 15.8823C113.197 11.598 114.827 5.98459 116.398 0.613397C116.481 0.329874 116.725 0.132983 117.01 0.115262L119.339 -0.0186252C119.811 -0.0461899 120.165 0.426351 120.024 0.896921C117.861 8.08936 116.097 14.382 115.124 18.0934C113.831 23.1279 113.781 24.581 115.252 24.4963C116.487 24.4254 118.148 22.6711 119.717 20.021C119.78 19.9166 119.811 19.7985 119.817 19.6784C120.022 14.3741 123.27 9.54635 128.098 9.2707C131.333 9.08562 133.104 11.531 133.23 13.939C133.472 18.5344 128.936 21.472 124.54 21.2003C124.029 21.1688 123.655 21.7182 123.881 22.1966C124.495 23.5118 125.788 24.2462 127.994 24.1183C130.1 24.0021 132.302 22.1868 133.688 20.5683ZM61.0256 21.858C59.9816 26.0458 61.2498 27.684 62.8875 27.5914C65.5771 27.4359 68.1782 22.5018 67.9777 18.6939C67.8892 17.0302 66.918 16.1639 65.7835 16.2288C63.8941 16.3371 61.8592 18.5167 61.0256 21.858ZM79.086 20.8203C78.044 25.0082 79.3102 26.6464 80.9479 26.5538H80.9459C83.6355 26.4002 86.2386 21.4642 86.0381 17.6563C85.9516 15.9926 84.9783 15.1262 83.8439 15.1912C81.9545 15.2995 79.9196 17.4791 79.086 20.8203ZM97.1464 19.7847C96.1044 23.9726 97.3705 25.6107 99.0083 25.5182H99.0063C101.694 25.3626 104.299 20.4285 104.098 16.6206C104.012 14.9569 103.039 14.0906 101.904 14.1556C100.015 14.2639 97.98 16.4434 97.1464 19.7847ZM129.801 14.3111C129.785 13.2144 129.111 12.419 128.02 12.482H128.018C125.873 12.606 124.194 14.9313 123.659 17.7528C123.574 18.2017 123.901 18.6191 124.339 18.6093C127.111 18.5403 129.889 16.7093 129.801 14.3111ZM29.2204 16.3489C28.9393 7.84718 23.4205 2.23578 15.2613 2.52718C11.7577 2.68666 7.75085 4.01764 4.73489 6.39609C4.45178 6.62055 4.37707 7.03205 4.56974 7.34314L5.84966 9.43018C6.06789 9.78656 6.53189 9.85941 6.85039 9.59557C9.1448 7.68573 12.2787 6.4335 15.2908 6.30158C20.8803 6.06925 24.9894 9.65267 25.2273 16.5773C25.5281 24.64 20.1155 33.8624 11.4196 34.3605C11.1168 34.3783 10.8002 34.3842 10.4837 34.3842C10.0413 34.3842 9.713 33.951 9.8231 33.5021C11.5002 26.7231 13.4584 19.4519 15.4539 12.6848C15.5916 12.2142 15.2396 11.7456 14.7697 11.7732L12.2315 11.9209C11.9465 11.9386 11.7027 12.1374 11.6181 12.421C9.69924 19.07 7.78034 26.2801 6.05216 33.0473C5.95189 33.4371 5.55671 33.6616 5.18906 33.5356C4.28859 33.2284 3.46481 32.878 2.76292 32.4684C2.42672 32.2715 2.00204 32.4113 1.82903 32.7716L0.737858 35.0575C0.57664 35.3962 0.694604 35.8097 1.01311 35.9908C3.4884 37.3966 7.24754 38.1999 11.0263 37.9853C23.4598 37.2726 29.5507 25.7722 29.2204 16.3509V16.3489ZM53.6528 5.90189C52.1409 5.98853 50.7981 7.69163 50.8944 9.48531C50.9554 10.6667 51.7143 11.4582 52.89 11.3912C54.4019 11.3046 55.7821 9.51288 55.6917 7.80583C55.6307 6.62252 54.746 5.83889 53.6528 5.90189Z" fill="#394F71"/>
<path d="M153.861 9L156.973 15.8887L163.861 19L156.973 22.1113L153.861 29L150.75 22.1113L143.861 19L150.75 15.8887L153.861 9Z" fill="#F2A4A7"/>
</g>
<defs>
<clipPath id="clip0_286_4589">
<rect width="163.196" height="38" fill="white" transform="translate(0.666016)"/>
</clipPath>
</defs>
</svg>
