<svg width="197" height="26" viewBox="0 0 197 26" fill="none" xmlns="http://www.w3.org/2000/svg">
<g clip-path="url(#clip0_286_4652)">
<path d="M25.6244 13.1368C25.6244 20.15 19.9796 25.8632 12.9665 25.8632C5.95333 25.8632 0.308594 20.15 0.308594 13.1368C0.308594 6.12368 5.95333 0.410526 12.9665 0.410526C19.9796 0.410526 25.6244 6.12368 25.6244 13.1368ZM39.5139 13.1368C39.5139 19.7395 36.6744 25.1105 33.1849 25.1105C29.6954 25.1105 26.856 19.7395 26.856 13.1368C26.856 6.53421 29.6954 1.16316 33.1849 1.16316C36.6744 1.16316 39.5139 6.53421 39.5139 13.1368ZM45.1928 13.1368C45.1928 19.0553 44.2007 23.8789 42.9691 23.8789C41.7375 23.8789 40.7454 19.0553 40.7454 13.1368C40.7454 7.21842 41.7375 2.39474 42.9691 2.39474C44.2007 2.39474 45.1928 7.21842 45.1928 13.1368ZM80.0533 1.50526H80.0875V1.23158H72.9033L66.2323 16.9342L59.5612 1.23158H51.8296V1.50526H51.8639C53.1639 1.81316 53.8481 2.25789 53.8481 3.83158V22.4763C53.8481 24.0842 53.1639 24.4947 51.8639 24.8026H51.8296V25.0763H57.0981V24.8026H57.0639C55.7639 24.4947 55.0796 24.05 55.0796 22.4763V4.89211L63.6665 25.0763H64.1454L72.9717 4.34474V22.9211C72.8691 24.1868 72.1849 24.5632 71.0218 24.8368H70.9875V25.1105H80.156V24.8368H80.1217C78.9244 24.5632 78.2402 24.1868 78.1375 22.9211V3.79737C78.1033 2.2579 78.7533 1.81316 80.0533 1.50526ZM84.2612 13.8553C84.3981 10.5026 85.6296 8.07368 87.6481 8.03947C88.2639 8.03947 88.777 8.24474 89.1875 8.65526C90.0428 9.47632 90.4533 11.2553 90.3849 13.8553H84.2612ZM84.1586 14.8132H94.9007V14.7789C94.8665 12.2132 94.1139 10.2289 92.7112 8.86052C91.4796 7.66316 89.6323 7.01316 87.7165 7.01316H87.6823C86.6902 7.01316 85.4586 7.25263 84.6033 7.69737C83.6112 8.14211 82.7218 8.86053 82.0033 9.75C80.8402 11.1868 80.1217 13.1711 79.9507 15.3605C79.9507 15.4289 79.9507 15.4974 79.9507 15.5658C79.9507 15.6342 79.9507 15.7026 79.9507 15.7711C79.9507 16.0789 79.9165 16.3868 79.9507 16.6947C80.0533 21.6895 82.756 25.6921 87.5454 25.6921C91.7533 25.6921 94.2165 22.6132 94.7981 18.4737L94.4902 18.3711C93.4296 20.5947 91.4796 21.9289 89.2902 21.7579C86.2454 21.5184 83.9533 18.4737 84.1586 14.8132ZM107.011 21.5868C106.669 22.4079 105.916 22.8868 104.924 22.8868C103.932 22.8868 103.043 22.2026 102.393 20.9711C101.709 19.6368 101.332 17.7895 101.332 15.6C101.332 11.0158 102.769 8.03947 104.959 8.03947C105.882 8.03947 106.601 8.48421 106.977 9.30526V21.5868H107.011ZM114.161 24.871C112.861 24.5632 112.177 24.0842 112.177 22.4079V0.136841L104.206 2.49737V2.77106H104.24C105.335 2.66842 106.088 2.83947 106.532 3.25C106.874 3.5579 107.045 4.03684 107.045 4.72105V7.76579C106.259 7.25263 105.335 7.01316 104.206 7.01316C101.914 7.01316 99.7928 7.97105 98.2875 9.75C96.7139 11.5974 95.8586 14.0947 95.8586 17.0026C95.8586 22.2026 98.4244 25.6921 102.222 25.6921C104.445 25.6921 106.224 24.4605 107.045 22.4079V25.1789H114.195V24.9053L114.161 24.871ZM120.969 3.14737C120.969 1.53947 119.738 0.307893 118.13 0.307893C116.522 0.307893 115.256 1.57368 115.256 3.14737C115.256 4.75526 116.522 5.98684 118.13 5.98684C119.772 6.02105 120.969 4.78947 120.969 3.14737ZM122.851 24.871C121.551 24.5632 120.866 24.0842 120.866 22.4079V7.04737L113.716 9.1V9.37368H113.751C115.29 9.51052 115.735 10.0579 115.735 11.8368V25.1105H122.885V24.8368L122.851 24.871ZM141.188 24.871C139.888 24.5632 139.203 24.0842 139.203 22.4079V7.04737L132.395 9.03158V9.30526H132.43C133.695 9.4421 134.072 9.98947 134.072 11.8026V21.5526C133.661 22.3737 132.874 22.8868 131.882 22.9211C130.343 22.9211 129.488 21.8605 129.488 19.9789V7.08158L122.338 9.13421V9.4079H122.372C123.911 9.54474 124.356 10.0921 124.356 11.8711V20.0816C124.356 20.6632 124.39 21.2105 124.493 21.7921L124.63 22.3395C125.245 24.4947 126.819 25.6579 129.316 25.6579C131.438 25.6579 133.285 24.3579 134.072 22.3053V25.1447H141.222L141.188 24.871ZM169.001 25.1447V24.871H168.966C167.53 24.5289 166.982 23.9132 166.982 22.6474V12.2132C166.982 8.96316 165.169 7.01316 162.09 7.01316C159.866 7.01316 157.985 8.31316 157.266 10.2974C156.685 8.17632 155.043 7.01316 152.58 7.01316C150.424 7.01316 148.748 8.1421 148.03 10.0579V7.04737L140.88 9.03158V9.30526H140.914C142.453 9.4421 142.898 9.98947 142.898 11.7684V25.1447H149.569V24.871H149.535C148.406 24.5974 148.03 24.1184 148.03 22.8526V10.8789C148.338 10.1605 148.919 9.33947 150.116 9.33947C151.588 9.33947 152.374 10.3658 152.374 12.3842V25.1105H159.045V24.8368H159.011C157.882 24.5632 157.506 24.0842 157.506 22.8184V12.1789C157.506 11.7684 157.472 11.3921 157.403 10.9816C157.711 10.2289 158.361 9.30526 159.593 9.30526C161.098 9.30526 161.851 10.2974 161.851 12.35V25.0763H169.001V25.1447Z" fill="#394F71"/>
<path d="M187 3L190.111 9.88873L197 13L190.111 16.1113L187 23L183.889 16.1113L177 13L183.889 9.88873L187 3Z" fill="#BBA9E4"/>
</g>
<defs>
<clipPath id="clip0_286_4652">
<rect width="196.692" height="26" fill="white" transform="translate(0.308594)"/>
</clipPath>
</defs>
</svg>
